<svg xmlns="http://www.w3.org/2000/svg" viewBox="0 0 1400 700" font-family="sans-serif">
<rect width="1400" height="700" fill="#1a1a2e"/>
<text x="625" y="28" fill="#ffffff" font-size="15" text-anchor="middle">2000–2026 F1 Driver Ratings — Rating − 2×RD smoothed</text>
<line x1="70" y1="611.0" x2="1180" y2="611.0" stroke="#ffffff" stroke-opacity="0.08"/>
<text x="64" y="615.0" fill="#777777" font-size="11" text-anchor="end">1200</text>
<line x1="70" y1="558.5" x2="1180" y2="558.5" stroke="#ffffff" stroke-opacity="0.08"/>
<text x="64" y="562.5" fill="#777777" font-size="11" text-anchor="end">1300</text>
<line x1="70" y1="506.0" x2="1180" y2="506.0" stroke="#ffffff" stroke-opacity="0.08"/>
<text x="64" y="510.0" fill="#777777" font-size="11" text-anchor="end">1400</text>
<line x1="70" y1="453.5" x2="1180" y2="453.5" stroke="#ffffff" stroke-opacity="0.08"/>
<text x="64" y="457.5" fill="#777777" font-size="11" text-anchor="end">1500</text>
<line x1="70" y1="401.0" x2="1180" y2="401.0" stroke="#ffffff" stroke-opacity="0.08"/>
<text x="64" y="405.0" fill="#777777" font-size="11" text-anchor="end">1600</text>
<line x1="70" y1="348.5" x2="1180" y2="348.5" stroke="#ffffff" stroke-opacity="0.08"/>
<text x="64" y="352.5" fill="#777777" font-size="11" text-anchor="end">1700</text>
<line x1="70" y1="296.1" x2="1180" y2="296.1" stroke="#ffffff" stroke-opacity="0.08"/>
<text x="64" y="300.1" fill="#777777" font-size="11" text-anchor="end">1800</text>
<line x1="70" y1="243.6" x2="1180" y2="243.6" stroke="#ffffff" stroke-opacity="0.08"/>
<text x="64" y="247.6" fill="#777777" font-size="11" text-anchor="end">1900</text>
<line x1="70" y1="191.1" x2="1180" y2="191.1" stroke="#ffffff" stroke-opacity="0.08"/>
<text x="64" y="195.1" fill="#777777" font-size="11" text-anchor="end">2000</text>
<line x1="70" y1="138.6" x2="1180" y2="138.6" stroke="#ffffff" stroke-opacity="0.08"/>
<text x="64" y="142.6" fill="#777777" font-size="11" text-anchor="end">2100</text>
<line x1="70" y1="86.1" x2="1180" y2="86.1" stroke="#ffffff" stroke-opacity="0.08"/>
<text x="64" y="90.1" fill="#777777" font-size="11" text-anchor="end">2200</text>
<line x1="70" y1="453.5" x2="1180" y2="453.5" stroke="#ffffff" stroke-opacity="0.25" stroke-dasharray="4,4"/>
<line x1="70.0" y1="50" x2="70.0" y2="645" stroke="#ffffff" stroke-opacity="0.2"/>
<text x="70.0" y="665" fill="#aaaaaa" font-size="12" text-anchor="middle">2000</text>
<line x1="107.2" y1="50" x2="107.2" y2="645" stroke="#ffffff" stroke-opacity="0.2"/>
<text x="107.2" y="665" fill="#aaaaaa" font-size="12" text-anchor="middle">2001</text>
<line x1="144.4" y1="50" x2="144.4" y2="645" stroke="#ffffff" stroke-opacity="0.2"/>
<text x="144.4" y="665" fill="#aaaaaa" font-size="12" text-anchor="middle">2002</text>
<line x1="181.7" y1="50" x2="181.7" y2="645" stroke="#ffffff" stroke-opacity="0.2"/>
<text x="181.7" y="665" fill="#aaaaaa" font-size="12" text-anchor="middle">2003</text>
<line x1="216.7" y1="50" x2="216.7" y2="645" stroke="#ffffff" stroke-opacity="0.2"/>
<text x="216.7" y="665" fill="#aaaaaa" font-size="12" text-anchor="middle">2004</text>
<line x1="256.1" y1="50" x2="256.1" y2="645" stroke="#ffffff" stroke-opacity="0.2"/>
<text x="256.1" y="665" fill="#aaaaaa" font-size="12" text-anchor="middle">2005</text>
<line x1="297.7" y1="50" x2="297.7" y2="645" stroke="#ffffff" stroke-opacity="0.2"/>
<text x="297.7" y="665" fill="#aaaaaa" font-size="12" text-anchor="middle">2006</text>
<line x1="337.1" y1="50" x2="337.1" y2="645" stroke="#ffffff" stroke-opacity="0.2"/>
<text x="337.1" y="665" fill="#aaaaaa" font-size="12" text-anchor="middle">2007</text>
<line x1="374.3" y1="50" x2="374.3" y2="645" stroke="#ffffff" stroke-opacity="0.2"/>
<text x="374.3" y="665" fill="#aaaaaa" font-size="12" text-anchor="middle">2008</text>
<line x1="413.7" y1="50" x2="413.7" y2="645" stroke="#ffffff" stroke-opacity="0.2"/>
<text x="413.7" y="665" fill="#aaaaaa" font-size="12" text-anchor="middle">2009</text>
<line x1="450.9" y1="50" x2="450.9" y2="645" stroke="#ffffff" stroke-opacity="0.2"/>
<text x="450.9" y="665" fill="#aaaaaa" font-size="12" text-anchor="middle">2010</text>
<line x1="492.5" y1="50" x2="492.5" y2="645" stroke="#ffffff" stroke-opacity="0.2"/>
<text x="492.5" y="665" fill="#aaaaaa" font-size="12" text-anchor="middle">2011</text>
<line x1="534.1" y1="50" x2="534.1" y2="645" stroke="#ffffff" stroke-opacity="0.2"/>
<text x="534.1" y="665" fill="#aaaaaa" font-size="12" text-anchor="middle">2012</text>
<line x1="577.9" y1="50" x2="577.9" y2="645" stroke="#ffffff" stroke-opacity="0.2"/>
<text x="577.9" y="665" fill="#aaaaaa" font-size="12" text-anchor="middle">2013</text>
<line x1="619.5" y1="50" x2="619.5" y2="645" stroke="#ffffff" stroke-opacity="0.2"/>
<text x="619.5" y="665" fill="#aaaaaa" font-size="12" text-anchor="middle">2014</text>
<line x1="661.1" y1="50" x2="661.1" y2="645" stroke="#ffffff" stroke-opacity="0.2"/>
<text x="661.1" y="665" fill="#aaaaaa" font-size="12" text-anchor="middle">2015</text>
<line x1="702.7" y1="50" x2="702.7" y2="645" stroke="#ffffff" stroke-opacity="0.2"/>
<text x="702.7" y="665" fill="#aaaaaa" font-size="12" text-anchor="middle">2016</text>
<line x1="748.7" y1="50" x2="748.7" y2="645" stroke="#ffffff" stroke-opacity="0.2"/>
<text x="748.7" y="665" fill="#aaaaaa" font-size="12" text-anchor="middle">2017</text>
<line x1="792.5" y1="50" x2="792.5" y2="645" stroke="#ffffff" stroke-opacity="0.2"/>
<text x="792.5" y="665" fill="#aaaaaa" font-size="12" text-anchor="middle">2018</text>
<line x1="838.5" y1="50" x2="838.5" y2="645" stroke="#ffffff" stroke-opacity="0.2"/>
<text x="838.5" y="665" fill="#aaaaaa" font-size="12" text-anchor="middle">2019</text>
<line x1="884.4" y1="50" x2="884.4" y2="645" stroke="#ffffff" stroke-opacity="0.2"/>
<text x="884.4" y="665" fill="#aaaaaa" font-size="12" text-anchor="middle">2020</text>
<line x1="921.7" y1="50" x2="921.7" y2="645" stroke="#ffffff" stroke-opacity="0.2"/>
<text x="921.7" y="665" fill="#aaaaaa" font-size="12" text-anchor="middle">2021</text>
<line x1="969.8" y1="50" x2="969.8" y2="645" stroke="#ffffff" stroke-opacity="0.2"/>
<text x="969.8" y="665" fill="#aaaaaa" font-size="12" text-anchor="middle">2022</text>
<line x1="1018.0" y1="50" x2="1018.0" y2="645" stroke="#ffffff" stroke-opacity="0.2"/>
<text x="1018.0" y="665" fill="#aaaaaa" font-size="12" text-anchor="middle">2023</text>
<line x1="1066.2" y1="50" x2="1066.2" y2="645" stroke="#ffffff" stroke-opacity="0.2"/>
<text x="1066.2" y="665" fill="#aaaaaa" font-size="12" text-anchor="middle">2024</text>
<line x1="1118.7" y1="50" x2="1118.7" y2="645" stroke="#ffffff" stroke-opacity="0.2"/>
<text x="1118.7" y="665" fill="#aaaaaa" font-size="12" text-anchor="middle">2025</text>
<line x1="1171.2" y1="50" x2="1171.2" y2="645" stroke="#ffffff" stroke-opacity="0.2"/>
<text x="1171.2" y="665" fill="#aaaaaa" font-size="12" text-anchor="middle">2026</text>
<polyline points="297.7,488.2 299.9,486.6 302.1,485.0 304.3,483.5 306.4,481.9 308.6,481.9 310.8,481.9 313.0,482.4 315.2,482.9 317.4,483.5 319.6,484.0 321.8,482.4 324.0,480.8 326.2,479.3 328.3,477.2 330.5,475.6 332.7,472.4 334.9,470.3 337.1,468.8 339.3,466.7 341.5,465.6 343.7,463.5 345.9,462.5 348.0,462.5 350.2,460.9 352.4,458.8 354.6,456.2 356.8,453.5 359.0,451.4 361.2,449.3 363.4,447.8 365.6,445.7 367.8,445.7 369.9,445.7 372.1,443.0 374.3,440.9 376.5,438.3 378.7,436.2 380.9,434.6 383.1,433.1 385.3,431.0 387.5,429.9 389.6,427.3 391.8,424.7 394.0,422.6 396.2,420.5 398.4,418.4 400.6,415.2 402.8,413.1 405.0,411.0 407.2,409.4 409.3,407.3 411.5,404.2 413.7,401.6 415.9,398.9 418.1,396.3 420.3,392.6 422.5,390.0 424.7,386.9 426.9,384.2 429.1,382.7 431.2,381.1 433.4,380.6 435.6,381.1 437.8,380.6 440.0,381.1 442.2,377.9 444.4,374.8 446.6,371.6 448.8,368.0 450.9,365.3 453.1,362.7 455.3,360.1 457.5,357.5 459.7,356.4 461.9,354.3 464.1,352.2 466.3,351.7 468.5,350.1 470.7,348.5 472.8,347.5 475.0,347.0 477.2,345.9 479.4,346.5 481.6,346.5 483.8,346.5 486.0,345.9 488.2,346.5 490.4,346.5 492.5,348.0 494.7,348.5 496.9,348.5 499.1,348.5 501.3,350.1 503.5,350.6 505.7,351.2 507.9,349.6 510.1,348.5 512.2,349.1 514.4,348.5 516.6,348.0 518.8,347.5 521.0,347.0 523.2,347.0 525.4,346.5 527.6,345.9 529.8,345.4 532.0,345.9 534.1,346.5 536.3,343.8 538.5,342.8 540.7,341.7 542.9,341.2 545.1,341.7 547.3,341.7 549.5,343.8 551.7,344.9 553.8,344.9 556.0,345.4 558.2,345.4 560.4,343.8 562.6,344.4 564.8,343.8 567.0,343.8 569.2,343.3 571.4,342.3 573.6,341.7 575.7,339.6 577.9,335.4 580.1,331.2 582.3,327.0 584.5,322.3 586.7,319.2 588.9,315.5 591.1,311.8 593.3,309.2 595.4,307.6 597.6,305.0 599.8,297.1 602.0,290.3 604.2,282.4 606.4,276.6 608.6,269.3 610.8,263.0 613.0,256.2 615.1,249.9 617.3,243.6 619.5,236.2 621.7,231.0 623.9,225.2 626.1,221.5 628.3,216.8 630.5,213.6 632.7,210.5 634.9,208.4 637.0,205.8 639.2,204.2 641.4,202.6 643.6,202.1 645.8,201.6 648.0,201.0 650.2,201.0 652.4,201.0 654.6,202.6 656.7,203.7 658.9,205.8 661.1,204.2 663.3,201.6 665.5,200.0 667.7,198.4 669.9,197.4 672.1,197.4 674.3,197.4 676.4,198.4 678.6,199.5 680.8,202.6 683.0,203.7 685.2,204.7 687.4,199.5 689.6,194.2 691.8,189.0 694.0,183.2 696.2,177.4 698.3,173.2 700.5,169.0 702.7,166.4 704.9,163.8 707.1,161.7 709.3,160.6 711.5,160.6 713.7,159.0 715.9,155.9 718.0,153.3 720.2,151.2 722.4,148.5 724.6,144.9 726.8,142.8 729.0,141.2 731.2,139.1 733.4,138.0 735.6,137.5 737.8,137.5 739.9,137.5 742.1,138.6 744.3,140.1 746.5,141.7" fill="none" stroke="#e6194b" stroke-width="2" stroke-linejoin="round"/>
<polyline points="663.3,402.6 665.5,400.0 667.7,395.8 669.9,390.5 672.1,386.3 674.3,381.1 676.4,375.8 678.6,370.6 680.8,365.3 683.0,361.1 685.2,357.5 687.4,353.3 689.6,349.1 691.8,344.9 694.0,340.7 696.2,337.5 698.3,333.3 700.5,329.1 702.7,323.9 704.9,316.5 707.1,310.8 709.3,304.5 711.5,299.2 713.7,294.0 715.9,288.7 718.0,284.0 720.2,278.7 722.4,274.0 724.6,270.9 726.8,267.7 729.0,265.1 731.2,260.9 733.4,257.7 735.6,254.1 737.8,250.4 739.9,248.8 742.1,246.7 744.3,243.6 746.5,242.0 748.7,240.9 750.9,239.9 753.1,239.9 755.3,238.3 757.5,238.8 759.6,236.7 761.8,237.3 764.0,235.7 766.2,235.2 768.4,233.6 770.6,233.6 772.8,233.1 775.0,232.0 777.2,228.9 779.3,225.7 781.5,223.1 783.7,221.5 785.9,219.9 788.1,218.4 790.3,217.3 792.5,216.3 794.7,214.2 796.9,212.6 799.1,210.5 801.2,208.9 803.4,207.3 805.6,204.7 807.8,201.0 810.0,197.9 812.2,195.8 814.4,193.7 816.6,191.1 818.8,189.0 820.9,186.3 823.1,183.2 825.3,179.5 827.5,176.9 829.7,174.3 831.9,172.7 834.1,172.2 836.3,170.6 838.5,170.6 840.7,171.1 842.8,170.1 845.0,170.1 847.2,170.1 849.4,170.1 851.6,170.1 853.8,169.5 856.0,168.5 858.2,169.0 860.4,169.5 862.5,169.5 864.7,170.1 866.9,170.1 869.1,169.0 871.3,167.4 873.5,166.9 875.7,164.8 877.9,161.7 880.1,159.0 882.2,156.9 884.4,155.9 886.6,153.8 888.8,151.7 891.0,150.1 893.2,148.5 895.4,148.0 897.6,148.5 899.8,148.5 902.0,148.0 904.1,147.5 906.3,147.5 908.5,147.0 910.7,147.0 912.9,147.0 915.1,146.4 917.3,145.4 919.5,143.8 921.7,143.3 923.8,143.3 926.0,143.8 928.2,144.9 930.4,146.4 932.6,148.0 934.8,150.1 937.0,152.7 939.2,156.4 941.4,159.0 943.6,163.2 945.7,162.2 947.9,161.7 950.1,162.2 952.3,162.2 954.5,161.7 956.7,162.7 958.9,164.3 961.1,165.9 963.3,168.5 965.4,170.6 967.6,174.3 969.8,177.4 972.0,172.7 974.2,169.0 976.4,164.3 978.6,160.1 980.8,156.4 983.0,153.8 985.1,151.2 987.3,148.5 989.5,147.0 991.7,143.3 993.9,138.0 996.1,133.8 998.3,130.7 1000.5,127.5 1002.7,125.4 1004.9,123.9 1007.0,119.1 1009.2,115.5 1011.4,112.8 1013.6,110.2 1015.8,105.5 1018.0,101.3 1020.2,98.7 1022.4,95.0 1024.6,91.8 1026.7,89.7 1028.9,87.1 1031.1,85.0 1033.3,83.4 1035.5,82.4 1037.7,81.9 1039.9,81.9 1042.1,82.4 1044.3,82.9 1046.4,84.5 1048.6,86.6 1050.8,86.1 1053.0,86.6 1055.2,87.6 1057.4,88.7 1059.6,90.8 1061.8,92.9 1064.0,95.5 1066.2,98.7 1068.3,101.3 1070.5,105.5 1072.7,108.6 1074.9,113.4 1077.1,117.6 1079.3,122.3 1081.5,127.0 1083.7,131.2 1085.9,134.4 1088.0,138.6 1090.2,141.7 1092.4,145.9 1094.6,148.5 1096.8,151.7 1099.0,155.4 1101.2,157.5 1103.4,159.6 1105.6,161.7 1107.8,163.8 1109.9,165.3 1112.1,166.9 1114.3,168.5 1116.5,170.6 1118.7,171.6 1120.9,174.3 1123.1,175.3 1125.3,177.4 1127.5,177.9 1129.6,179.5 1131.8,180.6 1134.0,182.7 1136.2,185.3 1138.4,184.8 1140.6,184.2 1142.8,184.2 1145.0,184.2 1147.2,183.2 1149.3,181.1 1151.5,179.5 1153.7,178.5 1155.9,178.5 1158.1,179.0 1160.3,179.0 1162.5,181.1 1164.7,181.6 1166.9,184.2 1169.1,187.4 1171.2,190.5 1173.4,194.2 1175.6,197.4 1177.8,199.5 1180.0,201.6" fill="none" stroke="#3cb44b" stroke-width="2" stroke-linejoin="round"/>
<polyline points="838.5,569.6 840.7,567.5 842.8,563.8 845.0,561.2 847.2,558.5 849.4,554.9 851.6,552.8 853.8,550.1 856.0,547.5 858.2,543.8 860.4,542.3 862.5,541.2 864.7,539.1 866.9,539.1 869.1,539.1 871.3,538.1 873.5,538.6 875.7,536.5 877.9,535.4 880.1,533.9 882.2,532.8 884.4,531.8 886.6,530.7 888.8,529.1 891.0,526.5 893.2,524.4 895.4,521.8 897.6,519.2 899.8,516.0 902.0,512.9 904.1,510.2 906.3,506.0 908.5,501.3 910.7,497.1 912.9,492.9 915.1,489.2 917.3,485.0 919.5,480.8 921.7,477.7 923.8,474.5 926.0,471.4 928.2,467.7 930.4,464.0 932.6,460.9 934.8,456.7 937.0,453.0 939.2,448.3 941.4,445.1 943.6,442.0 945.7,439.4 947.9,437.3 950.1,433.1 952.3,428.9 954.5,425.7 956.7,422.0 958.9,416.8 961.1,411.5 963.3,405.8 965.4,396.8 967.6,387.9 969.8,379.0 972.0,370.1 974.2,362.7 976.4,355.4 978.6,349.1 980.8,343.3 983.0,338.6 985.1,334.4 987.3,330.7 989.5,328.1 991.7,324.4 993.9,321.8 996.1,319.7 998.3,319.2 1000.5,318.1 1002.7,318.1 1004.9,318.6 1007.0,316.5 1009.2,313.9 1011.4,311.8 1013.6,310.8 1015.8,310.2 1018.0,309.7 1020.2,309.7 1022.4,310.2 1024.6,310.2 1026.7,310.8 1028.9,311.8 1031.1,313.9 1033.3,315.5 1035.5,317.1 1037.7,319.7 1039.9,322.3 1042.1,326.5 1044.3,330.2 1046.4,330.2 1048.6,330.2 1050.8,328.1 1053.0,326.5 1055.2,324.4 1057.4,322.8 1059.6,322.3 1061.8,320.7 1064.0,319.7 1066.2,318.1 1068.3,318.6 1070.5,319.2 1072.7,314.4 1074.9,310.8 1077.1,307.1 1079.3,303.9 1081.5,300.8 1083.7,297.6 1085.9,296.6 1088.0,295.0 1090.2,293.4 1092.4,292.9 1094.6,291.3 1096.8,285.0 1099.0,279.3 1101.2,273.0 1103.4,267.2 1105.6,261.9 1107.8,258.3 1109.9,254.1 1112.1,249.9 1114.3,246.2 1116.5,243.6 1118.7,241.5 1120.9,239.4 1123.1,237.3 1125.3,236.2 1127.5,235.2 1129.6,235.2 1131.8,234.6 1134.0,234.6 1136.2,232.5 1138.4,231.5 1140.6,230.4 1142.8,229.4 1145.0,226.2 1147.2,224.1 1149.3,222.0 1151.5,220.5 1153.7,219.4 1155.9,217.3 1158.1,217.8 1160.3,217.3 1162.5,216.8 1164.7,215.7 1166.9,215.7 1169.1,216.3 1171.2,216.3 1173.4,217.8 1175.6,218.9 1177.8,221.0" fill="none" stroke="#4363d8" stroke-width="2" stroke-linejoin="round"/>
<polyline points="838.5,423.1 840.7,421.0 842.8,418.9 845.0,413.1 847.2,407.9 849.4,402.6 851.6,397.9 853.8,393.2 856.0,389.0 858.2,385.3 860.4,382.1 862.5,379.0 864.7,374.8 866.9,372.7 869.1,369.5 871.3,366.9 873.5,364.3 875.7,362.2 877.9,359.6 880.1,355.9 882.2,354.3 884.4,352.2 886.6,351.7 888.8,350.6 891.0,349.6 893.2,348.0 895.4,348.0 897.6,347.0 899.8,347.0 902.0,346.5 904.1,347.0 906.3,344.9 908.5,342.8 910.7,340.2 912.9,336.0 915.1,333.3 917.3,330.7 919.5,327.0 921.7,324.9 923.8,322.8 926.0,321.3 928.2,319.7 930.4,318.6 932.6,318.1 934.8,318.6 937.0,318.1 939.2,319.7 941.4,321.8 943.6,323.4 945.7,324.9 947.9,326.5 950.1,327.0 952.3,327.6 954.5,329.7 956.7,331.8 958.9,332.8 961.1,334.4 963.3,335.4 965.4,336.5 967.6,337.5 969.8,338.1 972.0,338.1 974.2,339.1 976.4,340.2 978.6,341.7 980.8,343.8 983.0,344.4 985.1,347.0 987.3,349.1 989.5,349.1 991.7,349.1 993.9,349.6 996.1,350.1 998.3,351.7 1000.5,351.7 1002.7,353.3 1004.9,354.3 1007.0,354.8 1009.2,356.4 1011.4,358.5 1013.6,360.6 1015.8,362.7 1018.0,364.3 1020.2,363.2 1022.4,359.6 1024.6,355.9 1026.7,352.7 1028.9,347.5 1031.1,342.8 1033.3,336.0 1035.5,327.6 1037.7,319.7 1039.9,312.9 1042.1,306.0 1044.3,300.8 1046.4,294.0 1048.6,288.7 1050.8,282.9 1053.0,278.2 1055.2,274.0 1057.4,270.9 1059.6,267.7 1061.8,265.6 1064.0,263.0 1066.2,259.8 1068.3,258.3 1070.5,255.1 1072.7,252.5 1074.9,250.4 1077.1,248.8 1079.3,248.3 1081.5,248.3 1083.7,248.3 1085.9,249.9 1088.0,251.4 1090.2,247.2 1092.4,242.5 1094.6,238.8 1096.8,235.7 1099.0,233.1 1101.2,231.5 1103.4,229.9 1105.6,229.9 1107.8,228.9 1109.9,229.4 1112.1,228.9 1114.3,229.4 1116.5,228.3 1118.7,227.3 1120.9,228.3 1123.1,228.3 1125.3,229.9 1127.5,231.5 1129.6,233.6 1131.8,236.2 1134.0,238.8 1136.2,243.6 1138.4,249.3 1140.6,247.2 1142.8,247.8 1145.0,247.8 1147.2,249.9 1149.3,251.4 1151.5,248.3 1153.7,244.6 1155.9,241.5 1158.1,238.3 1160.3,236.7 1162.5,235.2 1164.7,235.7 1166.9,235.2 1169.1,234.6 1171.2,235.7 1173.4,236.7 1175.6,238.3 1177.8,239.4" fill="none" stroke="#f58231" stroke-width="2" stroke-linejoin="round"/>
<polyline points="1020.2,397.4 1022.4,393.7 1024.6,390.5 1026.7,387.4 1028.9,382.1 1031.1,377.9 1033.3,374.3 1035.5,369.5 1037.7,363.8 1039.9,359.0 1042.1,354.8 1044.3,350.1 1046.4,346.5 1048.6,341.7 1050.8,338.1 1053.0,334.9 1055.2,331.8 1057.4,328.6 1059.6,326.0 1061.8,319.7 1064.0,312.9 1066.2,307.1 1068.3,301.3 1070.5,296.1 1072.7,291.3 1074.9,285.0 1077.1,279.8 1079.3,273.5 1081.5,267.2 1083.7,261.4 1085.9,256.2 1088.0,250.4 1090.2,245.1 1092.4,240.9 1094.6,237.3 1096.8,233.1 1099.0,231.0 1101.2,228.3 1103.4,227.3 1105.6,226.2 1107.8,225.2 1109.9,224.1 1112.1,221.5 1114.3,218.9 1116.5,216.8 1118.7,212.1 1120.9,206.8 1123.1,202.1 1125.3,197.9 1127.5,193.7 1129.6,191.6 1131.8,189.0 1134.0,186.9 1136.2,185.3 1138.4,184.2 1140.6,183.2 1142.8,182.7 1145.0,183.2 1147.2,183.7 1149.3,186.3 1151.5,187.4 1153.7,190.0 1155.9,192.6 1158.1,195.3 1160.3,198.4 1162.5,201.0 1164.7,203.7 1166.9,205.8 1169.1,208.9 1171.2,213.6 1173.4,217.3 1175.6,219.9 1177.8,224.7 1180.0,230.4" fill="none" stroke="#911eb4" stroke-width="2" stroke-linejoin="round"/>
<polyline points="792.5,439.9 794.7,437.8 796.9,434.1 799.1,428.3 801.2,424.1 803.4,418.9 805.6,414.2 807.8,408.9 810.0,404.7 812.2,398.9 814.4,394.2 816.6,386.9 818.8,381.1 820.9,373.7 823.1,365.3 825.3,357.5 827.5,350.1 829.7,343.3 831.9,336.0 834.1,328.6 836.3,322.3 838.5,315.5 840.7,309.2 842.8,303.9 845.0,299.7 847.2,295.5 849.4,291.9 851.6,287.1 853.8,284.5 856.0,282.9 858.2,280.8 860.4,279.3 862.5,278.2 864.7,278.7 866.9,278.7 869.1,279.3 871.3,281.4 873.5,284.0 875.7,287.1 877.9,290.3 880.1,294.5 882.2,297.1 884.4,299.2 886.6,302.4 888.8,303.9 891.0,306.0 893.2,308.7 895.4,311.8 897.6,313.9 899.8,315.5 902.0,315.0 904.1,315.5 906.3,315.0 908.5,314.4 910.7,314.4 912.9,314.4 915.1,315.5 917.3,316.0 919.5,316.5 921.7,315.0 923.8,314.4 926.0,313.9 928.2,313.4 930.4,313.9 932.6,312.9 934.8,313.9 937.0,310.8 939.2,309.2 941.4,306.6 943.6,303.9 945.7,301.8 947.9,299.7 950.1,298.2 952.3,297.1 954.5,291.9 956.7,289.2 958.9,285.6 961.1,282.4 963.3,279.3 965.4,276.1 967.6,273.5 969.8,267.7 972.0,264.6 974.2,260.9 976.4,259.3 978.6,256.7 980.8,254.6 983.0,252.5 985.1,250.4 987.3,248.8 989.5,247.2 991.7,245.7 993.9,243.6 996.1,243.0 998.3,242.0 1000.5,239.9 1002.7,238.8 1004.9,237.8 1007.0,237.8 1009.2,238.8 1011.4,238.8 1013.6,239.9 1015.8,241.5 1018.0,243.6 1020.2,244.6 1022.4,246.2 1024.6,246.7 1026.7,248.8 1028.9,249.3 1031.1,250.9 1033.3,250.4 1035.5,250.9 1037.7,251.4 1039.9,251.4 1042.1,250.4 1044.3,251.4 1046.4,251.4 1048.6,251.4 1050.8,251.4 1053.0,253.0 1055.2,254.1 1057.4,250.4 1059.6,247.2 1061.8,243.0 1064.0,240.4 1066.2,237.8 1068.3,235.2 1070.5,233.6 1072.7,232.5 1074.9,231.5 1077.1,230.4 1079.3,230.4 1081.5,229.9 1083.7,231.5 1085.9,232.0 1088.0,232.5 1090.2,232.0 1092.4,228.9 1094.6,226.2 1096.8,223.1 1099.0,220.5 1101.2,218.9 1103.4,217.8 1105.6,217.3 1107.8,217.3 1109.9,217.8 1112.1,218.4 1114.3,219.4 1116.5,219.9 1118.7,222.0 1120.9,222.6 1123.1,223.1 1125.3,224.1 1127.5,225.7 1129.6,226.2 1131.8,227.8 1134.0,228.9 1136.2,231.0 1138.4,233.6 1140.6,236.2 1142.8,239.4 1145.0,238.8 1147.2,239.4 1149.3,238.8 1151.5,238.8 1153.7,239.9 1155.9,238.8 1158.1,238.3 1160.3,238.8 1162.5,240.4 1164.7,240.4 1166.9,241.5 1169.1,242.0 1171.2,243.6 1173.4,245.1 1175.6,247.2 1177.8,248.8 1180.0,252.0" fill="none" stroke="#42d4f4" stroke-width="2" stroke-linejoin="round"/>
<polyline points="144.4,572.2 146.6,571.1 148.8,569.6 151.0,569.6 153.2,568.5 155.4,567.5 157.6,564.8 159.8,562.2 162.0,560.6 164.1,558.0 166.3,555.9 168.5,553.3 170.7,551.2 172.9,548.6 175.1,544.4 177.3,540.7 179.5,535.4 181.7,531.8 183.8,527.6 186.0,523.9 188.2,519.7 190.4,513.9 192.6,510.2 194.8,506.6 197.0,502.4 199.2,499.7 201.4,496.1 203.6,495.0 205.7,491.3 207.9,489.2 210.1,486.6 212.3,484.5 214.5,482.4 216.7,480.3 218.9,477.7 221.1,474.5 223.3,472.4 225.4,470.3 227.6,467.2 229.8,465.1 232.0,461.9 234.2,459.3 236.4,455.6 238.6,453.0 240.8,450.9 243.0,449.3 245.1,447.2 247.3,444.6 249.5,442.5 251.7,441.5 253.9,438.8 256.1,436.7 258.3,434.1 260.5,433.1 262.7,431.5 264.9,430.4 267.0,429.9 269.2,429.9 271.4,428.9 273.6,429.4 275.8,428.9 278.0,428.9 280.2,427.3 282.4,426.2 284.6,425.2 286.7,424.7 288.9,423.6 291.1,422.6 293.3,421.5 295.5,421.5 297.7,421.0 299.9,423.1 302.1,423.6 304.3,424.1 306.4,424.1 308.6,425.2 310.8,426.8 313.0,427.8 315.2,428.3 317.4,428.9 319.6,428.3 321.8,427.8 324.0,426.8 326.2,426.2 328.3,424.7 330.5,423.6 332.7,423.6 334.9,422.6 337.1,420.5 339.3,419.4 341.5,417.3 343.7,415.2 345.9,413.1 348.0,411.5 350.2,408.9 352.4,407.3 354.6,404.7 356.8,402.1 359.0,400.5 361.2,398.9 363.4,396.8 365.6,395.3 367.8,394.2 369.9,392.6 372.1,391.1 374.3,389.5 376.5,386.9 378.7,385.8 380.9,383.7 383.1,383.7 385.3,382.7 387.5,382.7 389.6,381.1 391.8,380.0 394.0,378.5 396.2,377.4 398.4,375.8 400.6,373.7 402.8,371.6 405.0,369.5 407.2,368.0 409.3,366.4 411.5,362.7 413.7,358.5 415.9,354.8 418.1,350.6 420.3,348.5 422.5,344.9 424.7,341.7 426.9,339.1 429.1,337.5 431.2,336.5 433.4,336.5 435.6,336.0 437.8,336.0 440.0,335.4 442.2,333.9 444.4,331.8 446.6,325.5 448.8,319.2 450.9,315.0 453.1,309.2 455.3,302.4 457.5,297.6 459.7,290.8 461.9,286.6 464.1,281.9 466.3,277.7 468.5,273.5 470.7,269.3 472.8,266.1 475.0,261.9 477.2,259.3 479.4,257.2 481.6,254.6 483.8,252.5 486.0,249.9 488.2,248.3 490.4,246.2 492.5,244.1 494.7,241.5 496.9,238.8 499.1,236.7 501.3,235.2 503.5,233.6 505.7,232.0 507.9,231.0 510.1,229.9 512.2,229.9 514.4,229.4 516.6,229.4 518.8,229.9 521.0,228.9 523.2,229.9 525.4,231.0 527.6,231.5 529.8,233.1 532.0,235.2 534.1,236.7 536.3,239.9 538.5,242.5 540.7,245.7 542.9,250.4 545.1,253.5 547.3,256.7 549.5,260.4 551.7,264.6 553.8,268.8 556.0,273.5 558.2,276.6 560.4,281.4 562.6,281.9 564.8,281.4 567.0,279.3 569.2,277.7 571.4,277.2 573.6,276.1 575.7,275.6 577.9,274.0 580.1,273.5 582.3,272.4 584.5,271.9 586.7,271.9 588.9,271.4 591.1,271.4 593.3,273.0 595.4,274.5 597.6,276.1 599.8,278.7 602.0,281.4 604.2,284.5 606.4,283.5 608.6,284.0 610.8,284.0 613.0,283.5 615.1,284.5 617.3,286.6" fill="none" stroke="#f032e6" stroke-width="2" stroke-linejoin="round"/>
<polyline points="337.1,274.0 339.3,270.9 341.5,267.2 343.7,266.1 345.9,265.1 348.0,264.0 350.2,264.6 352.4,266.7 354.6,267.7 356.8,270.9 359.0,270.9 361.2,273.0 363.4,274.0 365.6,276.6 367.8,278.2 369.9,281.9 372.1,284.5 374.3,286.6 376.5,288.7 378.7,291.9 380.9,292.4 383.1,293.4 385.3,295.0 387.5,297.1 389.6,298.2 391.8,298.7 394.0,300.3 396.2,302.9 398.4,305.5 400.6,308.1 402.8,312.3 405.0,315.5 407.2,320.2 409.3,322.3 411.5,324.9 413.7,328.6 415.9,330.7 418.1,334.4 420.3,337.0 422.5,341.7 424.7,344.4 426.9,347.0 429.1,349.1 431.2,348.0 433.4,343.3 435.6,339.1 437.8,335.4 440.0,332.3 442.2,327.0 444.4,321.8 446.6,318.1 448.8,313.9 450.9,310.2 453.1,306.6 455.3,302.9 457.5,300.3 459.7,297.1 461.9,290.8 464.1,286.1 466.3,281.9 468.5,277.7 470.7,275.1 472.8,271.9 475.0,269.8 477.2,267.2 479.4,265.1 481.6,263.5 483.8,260.9 486.0,258.8 488.2,256.2 490.4,254.6 492.5,253.0 494.7,252.5 496.9,251.4 499.1,250.9 501.3,250.4 503.5,250.4 505.7,250.4 507.9,249.9 510.1,248.3 512.2,248.3 514.4,249.3 516.6,250.4 518.8,251.4 521.0,251.4 523.2,252.5 525.4,253.5 527.6,255.6 529.8,256.2 532.0,258.3 534.1,259.8 536.3,261.4 538.5,264.6 540.7,267.7 542.9,271.9 545.1,275.6 547.3,279.8 549.5,285.0 551.7,282.9 553.8,280.3 556.0,277.7 558.2,275.1 560.4,272.4 562.6,270.3 564.8,268.8 567.0,266.7 569.2,263.5 571.4,261.4 573.6,258.3 575.7,256.2 577.9,253.0 580.1,250.9 582.3,247.8 584.5,246.7 586.7,245.7 588.9,241.5 591.1,238.3 593.3,235.2 595.4,232.0 597.6,229.4 599.8,227.3 602.0,225.7 604.2,222.0 606.4,218.4 608.6,214.7 610.8,212.1 613.0,207.3 615.1,202.1 617.3,197.4 619.5,190.0 621.7,182.1 623.9,175.3 626.1,168.5 628.3,163.2 630.5,158.0 632.7,152.7 634.9,147.5 637.0,142.2 639.2,139.1 641.4,134.4 643.6,129.6 645.8,124.9 648.0,121.2 650.2,117.6 652.4,114.9 654.6,112.8 656.7,110.2 658.9,108.6 661.1,107.6 663.3,107.6 665.5,106.0 667.7,106.5 669.9,107.1 672.1,107.1 674.3,107.1 676.4,108.1 678.6,108.6 680.8,109.2 683.0,109.7 685.2,109.2 687.4,109.7 689.6,109.7 691.8,110.7 694.0,111.8 696.2,112.8 698.3,114.4 700.5,114.9 702.7,116.5 704.9,118.6 707.1,118.6 709.3,118.6 711.5,117.0 713.7,116.0 715.9,116.0 718.0,114.9 720.2,114.4 722.4,112.8 724.6,112.3 726.8,112.8 729.0,113.4 731.2,113.9 733.4,114.4 735.6,114.9 737.8,115.5 739.9,115.5 742.1,116.5 744.3,118.1 746.5,120.7 748.7,122.3 750.9,125.4 753.1,128.1 755.3,132.3 757.5,133.8 759.6,137.5 761.8,138.0 764.0,139.1 766.2,139.1 768.4,138.0 770.6,137.5 772.8,137.5 775.0,136.5 777.2,137.0 779.3,137.5 781.5,138.0 783.7,140.1 785.9,141.2 788.1,138.6 790.3,136.5 792.5,133.8 794.7,131.7 796.9,128.6 799.1,126.0 801.2,123.3 803.4,120.7 805.6,119.7 807.8,116.0 810.0,113.9 812.2,111.3 814.4,108.1 816.6,106.0 818.8,104.4 820.9,102.9 823.1,101.8 825.3,101.3 827.5,101.8 829.7,102.9 831.9,102.3 834.1,103.4 836.3,103.9 838.5,105.0 840.7,106.0 842.8,107.1 845.0,109.2 847.2,112.3 849.4,116.0 851.6,119.1 853.8,123.9 856.0,128.6 858.2,133.3 860.4,137.5 862.5,138.0 864.7,137.5 866.9,138.0 869.1,138.6 871.3,138.6 873.5,139.6 875.7,140.1 877.9,141.2 880.1,143.3 882.2,143.3 884.4,143.3 886.6,142.2 888.8,142.8 891.0,143.3 893.2,144.3 895.4,145.9 897.6,148.0 899.8,151.2 902.0,151.2 904.1,152.2 906.3,153.3 908.5,155.9 910.7,158.0 912.9,161.1 915.1,164.8 917.3,168.5 919.5,172.7 921.7,176.4 923.8,181.6 926.0,186.3 928.2,193.2 930.4,199.5 932.6,203.7 934.8,203.1 937.0,202.1 939.2,202.6 941.4,201.6 943.6,201.6 945.7,203.1 947.9,204.2 950.1,205.2 952.3,206.3 954.5,207.9 956.7,209.4 958.9,211.5 961.1,214.7 963.3,217.3 965.4,221.0 967.6,225.7 969.8,231.0 972.0,236.7 974.2,240.9 976.4,244.1 978.6,246.2 980.8,246.2 983.0,247.8 985.1,248.3 987.3,247.8 989.5,248.8 991.7,249.3 993.9,250.4 996.1,252.0 998.3,254.6 1000.5,256.7 1002.7,259.8 1004.9,261.9 1007.0,263.5 1009.2,266.7 1011.4,268.8 1013.6,272.4 1015.8,276.6 1018.0,274.0 1020.2,273.0 1022.4,270.9 1024.6,269.8 1026.7,268.8 1028.9,268.8 1031.1,268.2 1033.3,268.8 1035.5,268.8 1037.7,269.3 1039.9,270.9 1042.1,272.4 1044.3,274.0 1046.4,276.1 1048.6,278.7 1050.8,281.9 1053.0,284.5 1055.2,287.7 1057.4,287.7 1059.6,288.2 1061.8,287.7 1064.0,287.1 1066.2,286.6 1068.3,286.6 1070.5,285.0 1072.7,283.5 1074.9,281.9 1077.1,278.2 1079.3,276.1 1081.5,273.5 1083.7,271.4 1085.9,269.3 1088.0,267.2 1090.2,266.1 1092.4,266.1 1094.6,266.7 1096.8,267.2 1099.0,268.2 1101.2,268.8 1103.4,270.3 1105.6,271.4 1107.8,273.0 1109.9,274.0 1112.1,275.1 1114.3,276.6 1116.5,276.1 1118.7,276.1 1120.9,276.1 1123.1,274.5 1125.3,273.5 1127.5,273.0 1129.6,272.4 1131.8,271.4 1134.0,271.9 1136.2,270.9 1138.4,271.4 1140.6,271.9 1142.8,273.0 1145.0,274.5 1147.2,276.6 1149.3,277.7 1151.5,278.2 1153.7,278.7 1155.9,279.8 1158.1,280.8 1160.3,281.9 1162.5,283.5 1164.7,285.0 1166.9,285.6 1169.1,285.0 1171.2,284.5 1173.4,284.5 1175.6,285.6 1177.8,286.6 1180.0,288.7" fill="none" stroke="#bfef45" stroke-width="2" stroke-linejoin="round"/>
<polyline points="1118.7,355.9 1120.9,353.8 1123.1,351.7 1125.3,350.6 1127.5,349.6 1129.6,349.6 1131.8,350.1 1134.0,350.6 1136.2,347.5 1138.4,344.9 1140.6,343.3 1142.8,341.7 1145.0,338.6 1147.2,335.4 1149.3,332.3 1151.5,328.1 1153.7,324.4 1155.9,320.2 1158.1,317.6 1160.3,313.9 1162.5,311.8 1164.7,309.2 1166.9,307.6 1169.1,306.6 1171.2,305.0 1173.4,303.4 1175.6,303.4 1177.8,303.9 1180.0,305.0" fill="none" stroke="#ff6b6b" stroke-width="2" stroke-linejoin="round"/>
<polyline points="74.4,327.6 76.6,324.9 78.8,322.8 80.9,321.3 83.1,321.8 85.3,319.7 87.5,317.1 89.7,316.5 91.9,315.5 94.1,315.5 96.3,316.0 98.5,318.1 100.7,319.2 102.8,321.8 105.0,323.4 107.2,326.5 109.4,329.1 111.6,330.7 113.8,331.8 116.0,332.8 118.2,333.9 120.4,333.3 122.5,332.8 124.7,332.3 126.9,331.8 129.1,331.8 131.3,331.8 133.5,331.8 135.7,332.8 137.9,333.9 140.1,334.9 142.2,336.5" fill="none" stroke="#469990" stroke-width="2" stroke-linejoin="round"/>
<polyline points="116.0,355.9 118.2,353.3 120.4,351.7 122.5,349.6 124.7,347.0 126.9,345.4 129.1,343.8 131.3,343.3 133.5,341.7 135.7,340.2 137.9,337.5 140.1,336.0 142.2,333.3 144.4,332.3 146.6,331.8 148.8,332.3 151.0,331.8 153.2,332.8 155.4,333.9 157.6,336.0 159.8,337.0 162.0,339.1 164.1,340.2 166.3,341.7 168.5,343.3 170.7,345.9 172.9,347.5 175.1,348.5 177.3,348.5 179.5,349.6 181.7,351.2 183.8,353.3 186.0,351.7 188.2,351.2 190.4,349.1 192.6,347.0 194.8,345.9 197.0,344.9 199.2,343.8 201.4,343.8 203.6,343.8 205.7,345.4 207.9,348.0 210.1,350.1 212.3,353.8 214.5,354.8 216.7,356.9 218.9,358.0 221.1,361.1 223.3,361.7 225.4,361.7 227.6,361.7 229.8,361.7 232.0,361.7 234.2,360.6 236.4,359.0 238.6,357.5 240.8,355.9 243.0,355.9 245.1,354.8 247.3,353.8 249.5,352.7 251.7,352.2 253.9,352.2 256.1,351.7 258.3,351.7 260.5,352.7 262.7,352.2 264.9,353.3 267.0,352.7 269.2,353.3 271.4,353.8 273.6,354.3 275.8,355.4 278.0,354.8 280.2,355.4 282.4,357.5 284.6,358.5 286.7,360.6 288.9,363.2 291.1,362.2 293.3,362.2 295.5,361.1 297.7,360.1 299.9,360.6 302.1,360.6 304.3,361.1 306.4,362.7 308.6,362.7 310.8,364.3 313.0,366.4" fill="none" stroke="#9a6324" stroke-width="2" stroke-linejoin="round"/>
<polyline points="1068.3,447.8 1070.5,446.7 1072.7,445.7 1074.9,443.6 1077.1,442.5 1079.3,441.5 1081.5,440.4 1083.7,439.4 1085.9,437.3 1088.0,436.7 1090.2,434.6 1092.4,433.6 1094.6,431.5 1096.8,429.4 1099.0,428.3 1101.2,426.2 1103.4,425.2 1105.6,424.7 1107.8,423.1 1109.9,422.0 1112.1,421.5 1114.3,421.0 1116.5,419.4 1118.7,418.4 1120.9,415.7 1123.1,414.2 1125.3,413.1 1127.5,412.6 1129.6,411.0 1131.8,411.0 1134.0,408.4 1136.2,406.3 1138.4,401.6 1140.6,397.9 1142.8,394.7 1145.0,391.1 1147.2,387.4 1149.3,385.3 1151.5,382.7 1153.7,379.5 1155.9,377.9 1158.1,375.3 1160.3,374.3 1162.5,374.3 1164.7,373.7 1166.9,374.3 1169.1,374.3 1171.2,375.3 1173.4,375.8 1175.6,377.9 1177.8,379.0 1180.0,381.1" fill="none" stroke="#ffd700" stroke-width="2" stroke-linejoin="round"/>
<polyline points="70.0,592.7 72.2,589.5 74.4,587.4 76.6,585.3 78.8,582.2 80.9,579.0 83.1,575.3 85.3,573.2 87.5,570.6 89.7,567.5 91.9,565.4 94.1,560.1 96.3,556.4 98.5,552.2 100.7,547.5 102.8,543.3 105.0,538.1 107.2,534.4 109.4,530.2 111.6,527.0 113.8,523.9 116.0,520.7 118.2,518.6 120.4,517.1 122.5,515.0 124.7,512.3 126.9,510.2 129.1,508.1 131.3,506.6 133.5,505.0 135.7,505.5 137.9,504.5 140.1,501.8 142.2,501.3 144.4,500.8 146.6,499.7 148.8,498.7 151.0,499.2 153.2,497.6 155.4,498.2 157.6,497.6 159.8,497.1 162.0,496.6 164.1,496.6 166.3,496.6 168.5,497.6 170.7,499.2 172.9,499.7 175.1,501.3 177.3,502.4 179.5,505.0 181.7,506.6 183.8,508.1 186.0,510.8 188.2,513.4 190.4,515.0 192.6,516.5 194.8,518.6 197.0,520.7 199.2,522.3 201.4,524.9 203.6,526.5 205.7,526.0 207.9,526.0 210.1,525.5 212.3,526.5 214.5,527.0 216.7,528.1 218.9,530.2 221.1,530.2 223.3,531.8 225.4,531.2 227.6,531.8 229.8,532.8 232.0,533.9 234.2,534.9 236.4,534.9 238.6,534.4 240.8,533.9 243.0,531.8 245.1,530.7 247.3,527.0 249.5,523.4 251.7,519.7 253.9,515.5 256.1,511.3 258.3,506.6 260.5,503.4 262.7,499.2 264.9,495.5 267.0,492.9 269.2,490.8 271.4,489.2 273.6,487.7 275.8,485.0 278.0,481.9 280.2,479.8 282.4,477.2 284.6,476.1 286.7,474.0 288.9,471.4 291.1,469.3 293.3,466.1 295.5,464.0 297.7,460.9 299.9,457.7 302.1,455.6 304.3,453.0 306.4,449.9 308.6,446.7 310.8,444.1 313.0,442.5 315.2,440.9 317.4,439.4 319.6,437.3 321.8,436.7 324.0,435.7 326.2,434.6 328.3,432.5 330.5,430.4 332.7,428.9 334.9,427.8 337.1,422.0 339.3,416.8 341.5,411.5 343.7,408.4 345.9,403.7 348.0,400.0 350.2,397.4 352.4,394.7 354.6,391.6 356.8,390.0 359.0,387.9 361.2,387.4 363.4,387.4 365.6,387.4 367.8,388.4 369.9,386.9 372.1,384.8 374.3,383.7 376.5,383.7 378.7,383.7 380.9,383.7 383.1,384.2 385.3,384.8 387.5,383.2 389.6,382.1 391.8,380.6 394.0,379.5 396.2,379.5 398.4,378.5 400.6,377.9 402.8,378.5 405.0,380.0 407.2,380.6 409.3,382.1 411.5,384.8 413.7,385.8 415.9,388.4 418.1,391.6 420.3,394.2 422.5,394.2 424.7,394.2 426.9,395.3 429.1,395.8 431.2,396.3 433.4,396.3 435.6,396.3 437.8,396.8 440.0,397.4 442.2,398.9 444.4,399.5 446.6,400.5 448.8,401.6 450.9,403.1 453.1,405.2 455.3,406.8 457.5,407.3 459.7,408.9 461.9,410.0 464.1,410.5 466.3,411.0 468.5,412.1 470.7,412.6 472.8,413.1 475.0,412.6 477.2,412.6 479.4,413.1 481.6,412.6 483.8,411.5 486.0,412.1 488.2,411.5 490.4,411.0 492.5,411.5 494.7,410.0 496.9,409.4 499.1,410.0 501.3,410.0 503.5,411.0 505.7,412.6 507.9,413.1 510.1,415.2" fill="none" stroke="#800000" stroke-width="2" stroke-linejoin="round"/>
<polyline points="661.1,419.9 663.3,416.8 665.5,415.7 667.7,414.2 669.9,411.5 672.1,410.5 674.3,409.4 676.4,408.9 678.6,407.9 680.8,407.3 683.0,406.3 685.2,404.2 687.4,404.2 689.6,403.1 691.8,402.1 694.0,402.1 696.2,401.6 698.3,400.5 700.5,399.5 702.7,398.4 704.9,397.9 707.1,395.8 709.3,395.8 711.5,395.3 713.7,394.7 715.9,395.3 718.0,396.3 720.2,396.3 722.4,397.9 724.6,399.5 726.8,402.1 729.0,403.7 731.2,405.8 733.4,406.3 735.6,406.8 737.8,406.3 739.9,405.2 742.1,404.2 744.3,403.1 746.5,403.1 748.7,402.1 750.9,402.1 753.1,401.6 755.3,401.0 757.5,401.0 759.6,400.5 761.8,400.5 764.0,401.0 766.2,401.6 768.4,402.1 770.6,402.6 772.8,402.6 775.0,403.7 777.2,403.7 779.3,404.7 781.5,405.2 783.7,405.8 785.9,406.8 788.1,407.3 790.3,407.9 792.5,407.3 794.7,407.9 796.9,408.4 799.1,408.9 801.2,409.4 803.4,411.0 805.6,412.6 807.8,414.2 810.0,417.3 812.2,418.4 814.4,419.4 816.6,419.4 818.8,419.4 820.9,418.4 823.1,418.9 825.3,418.4 827.5,415.7 829.7,411.5 831.9,409.4 834.1,405.8 836.3,402.6 838.5,400.0 840.7,396.8 842.8,393.2 845.0,387.4 847.2,382.7 849.4,379.5 851.6,375.8 853.8,371.6 856.0,368.0 858.2,365.3 860.4,363.2 862.5,361.7 864.7,361.1 866.9,359.6 869.1,358.0 871.3,356.4 873.5,354.8 875.7,353.3 877.9,350.6 880.1,348.0 882.2,346.5 884.4,344.9 886.6,342.3 888.8,341.2 891.0,339.6 893.2,336.5 895.4,333.3 897.6,329.7 899.8,327.0 902.0,324.4 904.1,321.3 906.3,318.6 908.5,315.0 910.7,312.9 912.9,310.2 915.1,307.6 917.3,306.6 919.5,304.5 921.7,303.9 923.8,302.4 926.0,301.8 928.2,299.7 930.4,298.2 932.6,297.1 934.8,296.1 937.0,293.4 939.2,291.3 941.4,289.8 943.6,287.7 945.7,286.6 947.9,284.5 950.1,282.4 952.3,279.8 954.5,278.2 956.7,276.6 958.9,274.0 961.1,271.4 963.3,269.8 965.4,267.2 967.6,263.5 969.8,260.9 972.0,259.3 974.2,257.2 976.4,255.6 978.6,253.5 980.8,252.0 983.0,250.4 985.1,249.9 987.3,248.3 989.5,248.3 991.7,248.8 993.9,248.8 996.1,248.3 998.3,249.3 1000.5,249.9 1002.7,250.4 1004.9,251.4 1007.0,253.0 1009.2,254.1 1011.4,254.6 1013.6,256.2 1015.8,257.7 1018.0,259.3 1020.2,262.5 1022.4,264.6 1024.6,264.6 1026.7,265.1 1028.9,266.1 1031.1,267.2 1033.3,268.2 1035.5,268.8 1037.7,269.8 1039.9,270.9 1042.1,270.3 1044.3,270.9 1046.4,270.9 1048.6,271.4 1050.8,273.0 1053.0,274.5 1055.2,275.6 1057.4,276.6 1059.6,279.3 1061.8,281.4 1064.0,284.0 1066.2,281.9 1068.3,280.8 1070.5,278.2 1072.7,277.2 1074.9,276.1 1077.1,275.6 1079.3,276.6 1081.5,277.2 1083.7,277.7 1085.9,278.7 1088.0,280.3 1090.2,281.9 1092.4,284.5 1094.6,287.1 1096.8,290.8 1099.0,295.0 1101.2,299.2 1103.4,301.3 1105.6,302.9 1107.8,306.0 1109.9,309.7 1112.1,311.8 1114.3,316.0 1116.5,320.7 1118.7,325.5 1120.9,330.2 1123.1,334.9 1125.3,338.6 1127.5,340.7 1129.6,344.9 1131.8,348.5 1134.0,353.3 1136.2,356.9 1138.4,361.1 1140.6,365.3 1142.8,369.0 1145.0,372.2 1147.2,375.3 1149.3,377.4 1151.5,380.6 1153.7,383.2 1155.9,387.4 1158.1,390.5 1160.3,393.7 1162.5,394.7 1164.7,395.3 1166.9,396.8 1169.1,398.9 1171.2,401.6 1173.4,403.1 1175.6,404.7 1177.8,406.8 1180.0,408.4" fill="none" stroke="#aaffc3" stroke-width="2" stroke-linejoin="round"/>
<polyline points="1044.3,484.0 1046.4,482.9 1048.6,481.4 1050.8,482.4 1053.0,482.9 1055.2,483.5 1057.4,482.9 1059.6,483.5 1061.8,482.9 1064.0,482.4 1066.2,482.9 1068.3,482.4 1070.5,481.9 1072.7,481.4 1074.9,479.8 1077.1,479.3 1079.3,478.7 1081.5,477.2 1083.7,476.6 1085.9,475.1 1088.0,473.5 1090.2,471.9 1092.4,470.3 1094.6,468.8 1096.8,467.2 1099.0,465.6 1101.2,463.0 1103.4,461.4 1105.6,458.8 1107.8,456.7 1109.9,455.1 1112.1,454.6 1114.3,453.0 1116.5,452.5 1118.7,449.9 1120.9,446.7 1123.1,443.0 1125.3,439.9 1127.5,437.3 1129.6,433.6 1131.8,429.9 1134.0,427.3 1136.2,424.1 1138.4,421.5 1140.6,419.4 1142.8,417.3 1145.0,415.7 1147.2,414.7 1149.3,413.1 1151.5,413.1 1153.7,412.6 1155.9,413.1 1158.1,414.2 1160.3,414.2 1162.5,414.7 1164.7,416.8 1166.9,417.3 1169.1,418.4 1171.2,418.9 1173.4,419.4 1175.6,421.0 1177.8,422.6 1180.0,424.1" fill="none" stroke="#808000" stroke-width="2" stroke-linejoin="round"/>
<polyline points="450.9,467.7 453.1,464.6 455.3,461.9 457.5,460.9 459.7,457.2 461.9,455.6 464.1,452.5 466.3,449.3 468.5,445.7 470.7,442.5 472.8,440.4 475.0,437.8 477.2,436.2 479.4,434.6 481.6,433.1 483.8,432.0 486.0,432.0 488.2,431.0 490.4,431.5 492.5,431.0 494.7,430.4 496.9,429.4 499.1,428.9 501.3,427.3 503.5,426.8 505.7,425.2 507.9,424.1 510.1,422.6 512.2,421.0 514.4,419.4 516.6,417.3 518.8,414.7 521.0,413.1 523.2,410.5 525.4,407.9 527.6,405.8 529.8,403.1 532.0,400.5 534.1,396.8 536.3,394.2 538.5,391.1 540.7,388.4 542.9,385.8 545.1,383.7 547.3,382.1 549.5,381.6 551.7,380.6 553.8,379.5 556.0,379.5 558.2,379.0 560.4,379.0 562.6,379.0 564.8,378.5 567.0,377.4 569.2,376.9 571.4,376.9 573.6,377.4 575.7,377.4 577.9,379.0 580.1,379.0 582.3,380.6 584.5,380.6 586.7,382.1 588.9,382.1 591.1,382.1 593.3,382.7 595.4,382.7 597.6,382.7 599.8,382.7 602.0,382.7 604.2,382.1 606.4,381.6 608.6,382.7 610.8,383.7 613.0,380.6 615.1,377.9 617.3,374.8 619.5,372.7 621.7,370.1 623.9,368.0 626.1,366.9 628.3,366.9 630.5,366.4 632.7,365.9 634.9,366.9 637.0,368.0 639.2,369.0 641.4,369.5 643.6,371.1 645.8,372.7 648.0,373.7 650.2,374.8 652.4,376.4 654.6,377.4 656.7,379.0 658.9,380.6 661.1,382.7 663.3,385.8 665.5,386.3 667.7,386.9 669.9,386.3 672.1,385.3 674.3,384.2 676.4,382.1 678.6,382.1 680.8,382.1 683.0,381.1 685.2,381.1 687.4,380.6 689.6,380.0 691.8,379.5 694.0,379.5 696.2,378.5 698.3,379.0 700.5,379.5 702.7,381.1 704.9,382.1 707.1,382.7 709.3,382.1 711.5,382.7 713.7,381.6 715.9,381.6 718.0,382.7 720.2,382.7 722.4,382.7 724.6,382.1 726.8,382.7 729.0,383.2 731.2,384.2 733.4,385.8 735.6,387.4 737.8,389.0 739.9,391.1 742.1,392.1 744.3,395.3 746.5,397.4 748.7,402.1 750.9,403.7 753.1,406.3 755.3,408.4 757.5,410.5 759.6,414.2 761.8,416.8 764.0,419.4 766.2,421.5 768.4,423.1 770.6,425.7 772.8,425.2 775.0,425.2 777.2,424.7 779.3,424.7 781.5,422.0 783.7,419.9 785.9,416.3 788.1,413.1 790.3,411.0 792.5,408.4 794.7,406.3 796.9,404.7 799.1,404.2 801.2,403.7 803.4,403.1 805.6,402.1 807.8,402.6 810.0,403.7 812.2,403.1 814.4,403.7 816.6,405.8 818.8,406.8 820.9,407.3 823.1,407.9 825.3,407.3 827.5,406.8 829.7,405.8 831.9,405.8 834.1,405.8 836.3,405.8 838.5,405.8 840.7,406.8 842.8,406.3 845.0,406.8 847.2,404.2 849.4,402.6 851.6,401.0 853.8,400.0 856.0,398.9 858.2,397.9 860.4,396.8 862.5,395.8 864.7,396.3 866.9,395.8 869.1,395.8 871.3,396.3 873.5,397.4 875.7,397.9 877.9,398.9 880.1,400.5 882.2,402.1 884.4,404.2 886.6,405.2 888.8,407.3 891.0,408.9 893.2,410.0 895.4,411.5 897.6,413.6 899.8,415.2 902.0,417.3 904.1,418.9 906.3,420.5 908.5,422.6 910.7,424.7 912.9,426.8 915.1,428.9 917.3,429.4 919.5,431.5 921.7,433.6 923.8,434.6 926.0,436.2 928.2,437.3 930.4,439.4 932.6,440.4 934.8,440.9 937.0,442.0 939.2,443.0 941.4,444.1 943.6,445.1 945.7,445.7 947.9,446.7 950.1,446.7 952.3,447.8 954.5,447.2 956.7,448.3 958.9,448.3 961.1,449.3 963.3,448.8 965.4,448.8 967.6,448.8 969.8,448.8 972.0,449.9 974.2,451.4 976.4,452.5 978.6,454.1 980.8,455.1 983.0,456.7 985.1,457.7 987.3,459.3 989.5,459.3 991.7,460.9 993.9,460.9 996.1,461.4 998.3,463.0 1000.5,463.0 1002.7,463.5 1004.9,463.5 1007.0,463.0 1009.2,463.0 1011.4,462.5 1013.6,462.5 1015.8,461.9 1018.0,460.9 1020.2,459.8 1022.4,460.4 1024.6,460.4 1026.7,460.4 1028.9,461.9 1031.1,461.9 1033.3,463.5 1035.5,464.6 1037.7,465.6 1039.9,465.6 1042.1,467.2 1044.3,466.7 1046.4,466.1 1048.6,464.6 1050.8,463.5 1053.0,461.4 1055.2,459.3 1057.4,457.2 1059.6,454.6 1061.8,452.5 1064.0,448.8 1066.2,444.6 1068.3,440.9 1070.5,437.3 1072.7,434.1 1074.9,432.0 1077.1,429.4 1079.3,427.3 1081.5,425.7 1083.7,423.1 1085.9,421.0 1088.0,419.4 1090.2,418.9 1092.4,417.8 1094.6,417.8 1096.8,416.3 1099.0,415.7 1101.2,414.2 1103.4,412.6 1105.6,412.6 1107.8,412.1 1109.9,412.1 1112.1,412.1 1114.3,412.1 1116.5,413.1 1118.7,413.1 1120.9,415.7 1123.1,415.2 1125.3,415.2 1127.5,415.2 1129.6,414.2 1131.8,413.6 1134.0,412.1 1136.2,411.0 1138.4,409.4 1140.6,408.9 1142.8,409.4 1145.0,410.5 1147.2,411.0 1149.3,412.1 1151.5,414.7 1153.7,415.7 1155.9,417.3 1158.1,417.3 1160.3,416.8 1162.5,416.3 1164.7,417.3 1166.9,417.8 1169.1,418.4 1171.2,420.5 1173.4,421.5 1175.6,423.1 1177.8,425.2 1180.0,427.3" fill="none" stroke="#ffd8b1" stroke-width="2" stroke-linejoin="round"/>
<polyline points="1120.9,412.6 1123.1,410.0 1125.3,406.8 1127.5,405.8 1129.6,403.7 1131.8,402.6 1134.0,402.1 1136.2,402.6 1138.4,403.7 1140.6,404.7 1142.8,406.3 1145.0,407.9 1147.2,406.8 1149.3,406.3 1151.5,406.8 1153.7,407.3 1155.9,408.9 1158.1,410.5 1160.3,412.6 1162.5,414.7 1164.7,416.8 1166.9,419.9 1169.1,421.5 1171.2,422.0 1173.4,423.6 1175.6,424.7 1177.8,426.8 1180.0,428.3" fill="none" stroke="#000075" stroke-width="2" stroke-linejoin="round"/>
<polyline points="107.2,613.1 109.4,612.1 111.6,610.0 113.8,607.9 116.0,605.8 118.2,604.7 120.4,602.6 122.5,601.6 124.7,599.5 126.9,597.9 129.1,594.2 131.3,589.5 133.5,582.2 135.7,576.4 137.9,570.1 140.1,562.7 142.2,555.4 144.4,549.1 146.6,541.2 148.8,534.4 151.0,527.6 153.2,519.7 155.4,512.9 157.6,505.0 159.8,497.1 162.0,489.8 164.1,481.9 166.3,474.0 168.5,466.1 170.7,458.3 172.9,450.4 175.1,441.5 177.3,433.6 179.5,425.2 181.7,417.3 183.8,408.9 186.0,401.6 188.2,395.8 190.4,390.0 192.6,384.8 194.8,379.5 197.0,375.3 199.2,372.2 201.4,369.0 203.6,365.3 205.7,362.2 207.9,359.0 210.1,356.9 212.3,353.3 214.5,349.1 216.7,345.9 218.9,342.8 221.1,339.6 223.3,334.9 225.4,331.8 227.6,329.1 229.8,326.5 232.0,323.4 234.2,320.2 236.4,316.0 238.6,313.9 240.8,308.7 243.0,303.4 245.1,299.2 247.3,294.5 249.5,290.3 251.7,286.1 253.9,281.4 256.1,276.6 258.3,272.4 260.5,268.8 262.7,266.1 264.9,264.0 267.0,260.9 269.2,259.8 271.4,257.2 273.6,256.2 275.8,254.6 278.0,253.0 280.2,252.5 282.4,252.5 284.6,247.8 286.7,244.1 288.9,240.9 291.1,238.8 293.3,235.7 295.5,232.5 297.7,230.4 299.9,228.3 302.1,227.3 304.3,226.2 306.4,226.2 308.6,226.2 310.8,226.8 313.0,227.3 315.2,229.4 317.4,232.0 319.6,232.0 321.8,233.1 324.0,234.1 326.2,234.6 328.3,235.2 330.5,234.6 332.7,235.7 334.9,237.3 337.1,238.3 339.3,240.9 341.5,243.6 343.7,246.2 345.9,247.8 348.0,251.4 350.2,253.0 352.4,254.6 354.6,255.6 356.8,257.2 359.0,259.8 361.2,261.9 363.4,265.1 365.6,268.8 367.8,271.9 369.9,276.1 372.1,280.3 374.3,284.5 376.5,289.8 378.7,292.9 380.9,297.1 383.1,299.2 385.3,301.8 387.5,304.5 389.6,306.0 391.8,307.1 394.0,307.6 396.2,307.6 398.4,308.1 400.6,307.6 402.8,307.6 405.0,308.1 407.2,309.7 409.3,310.8 411.5,313.4 413.7,316.0 415.9,318.6 418.1,320.7 420.3,322.8 422.5,324.4 424.7,326.5 426.9,328.6 429.1,329.7 431.2,330.2 433.4,329.7 435.6,330.2 437.8,329.7 440.0,329.1 442.2,328.6 444.4,329.1 446.6,328.6 448.8,328.1 450.9,324.4 453.1,322.8 455.3,320.7 457.5,315.5 459.7,311.8 461.9,308.1 464.1,304.5 466.3,299.7 468.5,296.1 470.7,292.4 472.8,286.1 475.0,280.8 477.2,274.5 479.4,268.8 481.6,265.1 483.8,259.8 486.0,255.6 488.2,253.0 490.4,250.4 492.5,246.2 494.7,243.0 496.9,239.4 499.1,236.2 501.3,232.0 503.5,227.8 505.7,225.2 507.9,222.0 510.1,218.9 512.2,215.7 514.4,214.2 516.6,213.1 518.8,210.5 521.0,209.4 523.2,208.4 525.4,206.8 527.6,205.8 529.8,205.2 532.0,205.2 534.1,204.7 536.3,204.2 538.5,203.7 540.7,202.1 542.9,200.5 545.1,198.9 547.3,198.4 549.5,196.8 551.7,196.3 553.8,195.8 556.0,196.3 558.2,196.8 560.4,196.8 562.6,197.4 564.8,198.4 567.0,198.9 569.2,199.5 571.4,200.5 573.6,202.1 575.7,203.1 577.9,205.2 580.1,207.9 582.3,210.0 584.5,212.6 586.7,214.7 588.9,217.8 591.1,219.4 593.3,222.0 595.4,223.6 597.6,226.8 599.8,229.4 602.0,233.1 604.2,235.7 606.4,240.9 608.6,244.1 610.8,248.8 613.0,250.9 615.1,253.0 617.3,256.7 619.5,259.3 621.7,261.9 623.9,264.6 626.1,267.2 628.3,269.8 630.5,273.0 632.7,276.1 634.9,280.3 637.0,283.5 639.2,286.1 641.4,290.8 643.6,295.0 645.8,299.2 648.0,303.9 650.2,308.7 652.4,313.4 654.6,318.6 656.7,324.4 658.9,330.2 661.1,338.1 663.3,344.9 665.5,350.6 667.7,356.4 669.9,363.2 672.1,368.5 674.3,374.3 676.4,379.5 678.6,384.2 680.8,388.4 683.0,392.6 685.2,397.9 687.4,401.0 689.6,404.7 691.8,408.4 694.0,412.1 696.2,415.2 698.3,417.3 700.5,417.8 702.7,417.8 704.9,417.8 707.1,416.8 709.3,417.3 711.5,417.3 713.7,417.3 715.9,417.3 718.0,418.4 720.2,419.9 722.4,419.9 724.6,419.9 726.8,421.0 729.0,421.0 731.2,423.1 733.4,424.7 735.6,426.8 737.8,429.9 739.9,432.5 742.1,436.7 744.3,440.4 746.5,444.6 748.7,450.4 750.9,454.6 753.1,459.3 755.3,461.4 757.5,463.5 759.6,466.1 761.8,468.2 764.0,466.7 766.2,467.2 768.4,466.7 770.6,466.7 772.8,467.2 775.0,466.1 777.2,465.6 779.3,464.0 781.5,463.0 783.7,461.9 785.9,460.4 788.1,459.8 790.3,459.3 792.5,459.8 794.7,460.9 796.9,463.0 799.1,464.6 801.2,467.7 803.4,471.4 805.6,475.1 807.8,477.7 810.0,479.3 812.2,481.9 814.4,484.0 816.6,485.0 818.8,486.1 820.9,487.7 823.1,488.2 825.3,489.8 827.5,492.4 829.7,493.4 831.9,495.0 834.1,496.6 836.3,496.1 838.5,496.1 840.7,496.6 842.8,496.6 845.0,496.1 847.2,496.1 849.4,495.5 851.6,494.5 853.8,494.0 856.0,492.9 858.2,491.9 860.4,491.3 862.5,489.2 864.7,488.7 866.9,487.7 869.1,486.1 871.3,484.0 873.5,483.5 875.7,481.4 877.9,479.3 880.1,477.7 882.2,475.6 884.4,474.0 886.6,471.9 888.8,470.3 891.0,468.2 893.2,465.1 895.4,463.5 897.6,460.4 899.8,458.8 902.0,455.6 904.1,453.0 906.3,450.9 908.5,448.3 910.7,445.1 912.9,442.0 915.1,438.3 917.3,435.2 919.5,432.5 921.7,428.3 923.8,424.7 926.0,422.0 928.2,418.9 930.4,414.2 932.6,410.0 934.8,405.2 937.0,401.6 939.2,398.9 941.4,395.8 943.6,393.7 945.7,392.1 947.9,390.5 950.1,389.5 952.3,389.5 954.5,389.0 956.7,387.9 958.9,386.9 961.1,386.3 963.3,385.8 965.4,385.3 967.6,385.3 969.8,384.8 972.0,384.8 974.2,384.8 976.4,380.6 978.6,376.4 980.8,372.2 983.0,369.0 985.1,365.3 987.3,362.2 989.5,359.0 991.7,356.9 993.9,353.8 996.1,352.7 998.3,351.2 1000.5,350.1 1002.7,349.6 1004.9,349.1 1007.0,348.5 1009.2,347.0 1011.4,347.0 1013.6,342.3 1015.8,337.5 1018.0,333.9 1020.2,329.7 1022.4,327.0 1024.6,323.4 1026.7,321.8 1028.9,321.3 1031.1,320.2 1033.3,319.7 1035.5,321.3 1037.7,321.8 1039.9,323.4 1042.1,325.5 1044.3,327.6 1046.4,331.2 1048.6,333.9 1050.8,334.9 1053.0,337.0 1055.2,338.6 1057.4,340.2 1059.6,341.2 1061.8,342.8 1064.0,344.9 1066.2,348.0 1068.3,349.6 1070.5,353.3 1072.7,357.5 1074.9,360.6 1077.1,365.9 1079.3,370.1 1081.5,371.1 1083.7,372.7 1085.9,373.7 1088.0,374.3 1090.2,374.8 1092.4,374.8 1094.6,375.8 1096.8,376.4 1099.0,377.4 1101.2,378.5 1103.4,380.0 1105.6,382.1 1107.8,385.3 1109.9,386.9 1112.1,386.9 1114.3,386.9 1116.5,388.4 1118.7,390.0 1120.9,391.1 1123.1,391.1 1125.3,392.6 1127.5,392.6 1129.6,392.6 1131.8,392.1 1134.0,392.1 1136.2,390.5 1138.4,389.5 1140.6,389.5 1142.8,389.5 1145.0,390.5 1147.2,391.6 1149.3,392.6 1151.5,393.7 1153.7,395.3 1155.9,397.4 1158.1,398.9 1160.3,401.6 1162.5,403.7 1164.7,405.8 1166.9,408.9 1169.1,411.5 1171.2,414.7 1173.4,418.4 1175.6,421.5 1177.8,424.7" fill="none" stroke="#a9a9a9" stroke-width="2" stroke-linejoin="round"/>
<polyline points="350.2,480.8 352.4,479.3 354.6,477.2 356.8,476.6 359.0,474.5 361.2,471.9 363.4,468.2 365.6,462.5 367.8,457.7 369.9,452.0 372.1,446.7 374.3,441.5 376.5,435.7 378.7,430.4 380.9,424.7 383.1,419.4 385.3,411.0 387.5,402.6 389.6,395.3 391.8,388.4 394.0,381.6 396.2,374.3 398.4,368.0 400.6,361.1 402.8,354.8 405.0,350.6 407.2,345.9 409.3,341.7 411.5,337.0 413.7,333.9 415.9,329.1 418.1,321.8 420.3,316.0 422.5,310.8 424.7,305.5 426.9,300.3 429.1,295.5 431.2,291.9 433.4,289.2 435.6,285.0 437.8,282.4 440.0,278.2 442.2,274.5 444.4,270.9 446.6,267.7 448.8,263.0 450.9,260.9 453.1,258.3 455.3,256.2 457.5,253.5 459.7,251.4 461.9,249.3 464.1,247.8 466.3,245.7 468.5,244.1 470.7,242.5 472.8,240.4 475.0,238.8 477.2,237.8 479.4,230.4 481.6,223.6 483.8,216.8 486.0,210.0 488.2,204.2 490.4,198.4 492.5,193.2 494.7,189.5 496.9,185.8 499.1,182.7 501.3,179.0 503.5,176.9 505.7,175.8 507.9,173.7 510.1,173.2 512.2,173.2 514.4,172.7 516.6,171.6 518.8,172.2 521.0,173.2 523.2,174.3 525.4,176.4 527.6,177.9 529.8,181.6 532.0,184.2 534.1,187.9 536.3,191.6 538.5,193.7 540.7,195.8 542.9,197.4 545.1,199.5 547.3,202.1 549.5,205.8 551.7,206.8 553.8,210.0 556.0,212.6 558.2,215.2 560.4,217.3 562.6,213.1 564.8,208.4 567.0,203.1 569.2,200.0 571.4,196.3 573.6,194.2 575.7,191.6 577.9,187.4 580.1,184.8 582.3,181.6 584.5,179.0 586.7,175.8 588.9,173.7 591.1,171.1 593.3,169.0 595.4,168.0 597.6,166.9 599.8,165.3 602.0,164.8 604.2,165.3 606.4,164.8 608.6,166.9 610.8,169.0 613.0,171.1 615.1,174.8 617.3,177.9 619.5,182.1 621.7,186.3 623.9,190.5 626.1,194.2 628.3,197.9 630.5,201.0 632.7,203.1 634.9,206.8 637.0,208.9 639.2,211.5 641.4,213.6 643.6,214.7 645.8,216.3 648.0,216.3 650.2,217.3 652.4,218.9 654.6,218.9 656.7,217.8 658.9,217.8 661.1,215.7 663.3,215.2 665.5,214.2 667.7,213.6 669.9,214.2 672.1,213.6 674.3,214.2 676.4,214.2 678.6,214.2 680.8,214.2 683.0,215.2 685.2,212.6 687.4,209.4 689.6,208.4 691.8,206.8 694.0,205.2 696.2,204.7 698.3,203.1 700.5,202.1 702.7,201.0 704.9,200.5 707.1,199.5 709.3,199.5 711.5,199.5 713.7,198.4 715.9,197.9 718.0,198.4 720.2,198.4 722.4,199.5 724.6,197.9 726.8,196.8 729.0,195.3 731.2,193.2 733.4,191.6 735.6,189.5 737.8,187.4 739.9,185.8 742.1,184.8 744.3,182.1 746.5,179.5 748.7,177.9 750.9,175.8 753.1,174.8 755.3,174.3 757.5,173.7 759.6,174.3 761.8,175.8 764.0,176.4 766.2,177.4 768.4,177.4 770.6,177.9 772.8,177.9 775.0,177.9 777.2,179.0 779.3,179.5 781.5,180.0 783.7,180.6 785.9,181.1 788.1,182.1 790.3,183.2 792.5,185.3 794.7,186.3 796.9,189.5 799.1,190.5 801.2,190.5 803.4,190.0 805.6,190.5 807.8,191.6 810.0,193.2 812.2,193.7 814.4,194.7 816.6,196.3 818.8,196.8 820.9,200.0 823.1,202.6 825.3,204.7 827.5,208.4 829.7,211.0 831.9,214.2 834.1,217.3 836.3,220.5 838.5,224.7 840.7,229.4 842.8,233.6 845.0,238.8 847.2,244.6 849.4,251.4 851.6,258.8 853.8,265.6 856.0,274.5 858.2,283.5 860.4,288.2 862.5,292.9 864.7,298.7 866.9,305.0 869.1,308.7 871.3,313.4 873.5,317.6 875.7,323.4 877.9,329.1 880.1,334.4 882.2,339.6 884.4,345.4 886.6,350.6 888.8,355.4 891.0,360.1 893.2,365.9 895.4,370.6 897.6,376.9 899.8,383.2 902.0,389.0 904.1,393.7 906.3,397.4 908.5,400.5 910.7,404.2 912.9,407.3 915.1,411.0 917.3,414.7 919.5,418.4 921.7,421.0 923.8,424.1 926.0,425.7 928.2,425.7 930.4,426.8 932.6,428.9 934.8,430.4 937.0,432.5 939.2,435.2 941.4,436.2 943.6,436.2 945.7,436.2 947.9,437.3 950.1,438.3 952.3,437.8 954.5,438.8 956.7,437.8 958.9,436.2 961.1,436.2 963.3,435.2 965.4,435.7 967.6,435.2 969.8,436.2 972.0,436.2 974.2,436.2 976.4,436.2 978.6,435.7 980.8,433.6 983.0,432.5 985.1,431.5 987.3,430.4 989.5,429.9 991.7,429.9 993.9,428.3 996.1,426.8 998.3,426.2 1000.5,425.7 1002.7,425.2 1004.9,424.1 1007.0,424.1 1009.2,425.7 1011.4,426.8 1013.6,428.3 1015.8,429.9" fill="none" stroke="#ff1493" stroke-width="2" stroke-linejoin="round"/>
<polyline points="534.1,446.7 536.3,444.1 538.5,442.5 540.7,440.4 542.9,439.4 545.1,437.8 547.3,437.3 549.5,437.8 551.7,437.3 553.8,436.2 556.0,436.2 558.2,436.2 560.4,436.2 562.6,436.7 564.8,436.2 567.0,436.2 569.2,437.3 571.4,436.7 573.6,437.8 575.7,437.3 577.9,438.3 580.1,438.8 582.3,439.9 584.5,440.4 586.7,441.5 588.9,441.5 591.1,440.9 593.3,441.5 595.4,441.5 597.6,442.0 599.8,441.5 602.0,442.0 604.2,442.5 606.4,442.5 608.6,441.5 610.8,441.5 613.0,441.5 615.1,440.4 617.3,439.4 619.5,437.8 621.7,436.7 623.9,435.7 626.1,434.6 628.3,432.5 630.5,432.0 632.7,429.9 634.9,428.9 637.0,427.3 639.2,426.2 641.4,425.7 643.6,424.1 645.8,424.1 648.0,423.6 650.2,424.1 652.4,425.2 654.6,426.8 656.7,427.8 658.9,430.4" fill="none" stroke="#e6beff" stroke-width="2" stroke-linejoin="round"/>
<line x1="70" y1="50" x2="70" y2="645" stroke="#555555"/>
<line x1="70" y1="645" x2="1180" y2="645" stroke="#555555"/>
<rect x="1200" y="57" width="16" height="3" fill="#e6194b"/>
<text x="1222" y="62" fill="#cccccc" font-size="12">Nico Rosberg</text>
<rect x="1200" y="79" width="16" height="3" fill="#3cb44b"/>
<text x="1222" y="84" fill="#cccccc" font-size="12">Max Verstappen</text>
<rect x="1200" y="101" width="16" height="3" fill="#4363d8"/>
<text x="1222" y="106" fill="#cccccc" font-size="12">George Russell</text>
<rect x="1200" y="123" width="16" height="3" fill="#f58231"/>
<text x="1222" y="128" fill="#cccccc" font-size="12">Lando Norris</text>
<rect x="1200" y="145" width="16" height="3" fill="#911eb4"/>
<text x="1222" y="150" fill="#cccccc" font-size="12">Oscar Piastri</text>
<rect x="1200" y="167" width="16" height="3" fill="#42d4f4"/>
<text x="1222" y="172" fill="#cccccc" font-size="12">Charles Leclerc</text>
<rect x="1200" y="189" width="16" height="3" fill="#f032e6"/>
<text x="1222" y="194" fill="#cccccc" font-size="12">Mark Webber</text>
<rect x="1200" y="211" width="16" height="3" fill="#bfef45"/>
<text x="1222" y="216" fill="#cccccc" font-size="12">Lewis Hamilton</text>
<rect x="1200" y="233" width="16" height="3" fill="#ff6b6b"/>
<text x="1222" y="238" fill="#cccccc" font-size="12">Andrea Kimi Antonelli</text>
<rect x="1200" y="255" width="16" height="3" fill="#469990"/>
<text x="1222" y="260" fill="#cccccc" font-size="12">Mika Häkkinen</text>
<rect x="1200" y="277" width="16" height="3" fill="#9a6324"/>
<text x="1222" y="282" fill="#cccccc" font-size="12">Juan Pablo Montoya</text>
<rect x="1200" y="299" width="16" height="3" fill="#ffd700"/>
<text x="1222" y="304" fill="#cccccc" font-size="12">Oliver Bearman</text>
<rect x="1200" y="321" width="16" height="3" fill="#800000"/>
<text x="1222" y="326" fill="#cccccc" font-size="12">Nick Heidfeld</text>
<rect x="1200" y="343" width="16" height="3" fill="#aaffc3"/>
<text x="1222" y="348" fill="#cccccc" font-size="12">Carlos Sainz</text>
<rect x="1200" y="365" width="16" height="3" fill="#808000"/>
<text x="1222" y="370" fill="#cccccc" font-size="12">Liam Lawson</text>
<rect x="1200" y="387" width="16" height="3" fill="#ffd8b1"/>
<text x="1222" y="392" fill="#cccccc" font-size="12">Nico Hülkenberg</text>
<rect x="1200" y="409" width="16" height="3" fill="#000075"/>
<text x="1222" y="414" fill="#cccccc" font-size="12">Isack Hadjar</text>
<rect x="1200" y="431" width="16" height="3" fill="#a9a9a9"/>
<text x="1222" y="436" fill="#cccccc" font-size="12">Fernando Alonso</text>
<rect x="1200" y="453" width="16" height="3" fill="#ff1493"/>
<text x="1222" y="458" fill="#cccccc" font-size="12">Sebastian Vettel</text>
<rect x="1200" y="475" width="16" height="3" fill="#e6beff"/>
<text x="1222" y="480" fill="#cccccc" font-size="12">Jean-Éric Vergne</text>
</svg>