<svg xmlns="http://www.w3.org/2000/svg" viewBox="0 0 1400 700" font-family="sans-serif">
<rect width="1400" height="700" fill="#1a1a2e"/>
<text x="625" y="28" fill="#ffffff" font-size="15" text-anchor="middle">2000–2026 F1 Driver Ratings — Rating − 2×RD smoothed</text>
<line x1="70" y1="616.9" x2="1180" y2="616.9" stroke="#ffffff" stroke-opacity="0.08"/>
<text x="64" y="620.9" fill="#777777" font-size="11" text-anchor="end">1200</text>
<line x1="70" y1="563.3" x2="1180" y2="563.3" stroke="#ffffff" stroke-opacity="0.08"/>
<text x="64" y="567.3" fill="#777777" font-size="11" text-anchor="end">1300</text>
<line x1="70" y1="509.7" x2="1180" y2="509.7" stroke="#ffffff" stroke-opacity="0.08"/>
<text x="64" y="513.7" fill="#777777" font-size="11" text-anchor="end">1400</text>
<line x1="70" y1="456.1" x2="1180" y2="456.1" stroke="#ffffff" stroke-opacity="0.08"/>
<text x="64" y="460.1" fill="#777777" font-size="11" text-anchor="end">1500</text>
<line x1="70" y1="402.4" x2="1180" y2="402.4" stroke="#ffffff" stroke-opacity="0.08"/>
<text x="64" y="406.4" fill="#777777" font-size="11" text-anchor="end">1600</text>
<line x1="70" y1="348.8" x2="1180" y2="348.8" stroke="#ffffff" stroke-opacity="0.08"/>
<text x="64" y="352.8" fill="#777777" font-size="11" text-anchor="end">1700</text>
<line x1="70" y1="295.2" x2="1180" y2="295.2" stroke="#ffffff" stroke-opacity="0.08"/>
<text x="64" y="299.2" fill="#777777" font-size="11" text-anchor="end">1800</text>
<line x1="70" y1="241.6" x2="1180" y2="241.6" stroke="#ffffff" stroke-opacity="0.08"/>
<text x="64" y="245.6" fill="#777777" font-size="11" text-anchor="end">1900</text>
<line x1="70" y1="188.0" x2="1180" y2="188.0" stroke="#ffffff" stroke-opacity="0.08"/>
<text x="64" y="192.0" fill="#777777" font-size="11" text-anchor="end">2000</text>
<line x1="70" y1="134.4" x2="1180" y2="134.4" stroke="#ffffff" stroke-opacity="0.08"/>
<text x="64" y="138.4" fill="#777777" font-size="11" text-anchor="end">2100</text>
<line x1="70" y1="80.8" x2="1180" y2="80.8" stroke="#ffffff" stroke-opacity="0.08"/>
<text x="64" y="84.8" fill="#777777" font-size="11" text-anchor="end">2200</text>
<line x1="70" y1="456.1" x2="1180" y2="456.1" stroke="#ffffff" stroke-opacity="0.25" stroke-dasharray="4,4"/>
<line x1="70.0" y1="50" x2="70.0" y2="645" stroke="#ffffff" stroke-opacity="0.2"/>
<text x="70.0" y="665" fill="#aaaaaa" font-size="12" text-anchor="middle">2000</text>
<line x1="107.2" y1="50" x2="107.2" y2="645" stroke="#ffffff" stroke-opacity="0.2"/>
<text x="107.2" y="665" fill="#aaaaaa" font-size="12" text-anchor="middle">2001</text>
<line x1="144.4" y1="50" x2="144.4" y2="645" stroke="#ffffff" stroke-opacity="0.2"/>
<text x="144.4" y="665" fill="#aaaaaa" font-size="12" text-anchor="middle">2002</text>
<line x1="181.7" y1="50" x2="181.7" y2="645" stroke="#ffffff" stroke-opacity="0.2"/>
<text x="181.7" y="665" fill="#aaaaaa" font-size="12" text-anchor="middle">2003</text>
<line x1="216.7" y1="50" x2="216.7" y2="645" stroke="#ffffff" stroke-opacity="0.2"/>
<text x="216.7" y="665" fill="#aaaaaa" font-size="12" text-anchor="middle">2004</text>
<line x1="256.1" y1="50" x2="256.1" y2="645" stroke="#ffffff" stroke-opacity="0.2"/>
<text x="256.1" y="665" fill="#aaaaaa" font-size="12" text-anchor="middle">2005</text>
<line x1="297.7" y1="50" x2="297.7" y2="645" stroke="#ffffff" stroke-opacity="0.2"/>
<text x="297.7" y="665" fill="#aaaaaa" font-size="12" text-anchor="middle">2006</text>
<line x1="337.1" y1="50" x2="337.1" y2="645" stroke="#ffffff" stroke-opacity="0.2"/>
<text x="337.1" y="665" fill="#aaaaaa" font-size="12" text-anchor="middle">2007</text>
<line x1="374.3" y1="50" x2="374.3" y2="645" stroke="#ffffff" stroke-opacity="0.2"/>
<text x="374.3" y="665" fill="#aaaaaa" font-size="12" text-anchor="middle">2008</text>
<line x1="413.7" y1="50" x2="413.7" y2="645" stroke="#ffffff" stroke-opacity="0.2"/>
<text x="413.7" y="665" fill="#aaaaaa" font-size="12" text-anchor="middle">2009</text>
<line x1="450.9" y1="50" x2="450.9" y2="645" stroke="#ffffff" stroke-opacity="0.2"/>
<text x="450.9" y="665" fill="#aaaaaa" font-size="12" text-anchor="middle">2010</text>
<line x1="492.5" y1="50" x2="492.5" y2="645" stroke="#ffffff" stroke-opacity="0.2"/>
<text x="492.5" y="665" fill="#aaaaaa" font-size="12" text-anchor="middle">2011</text>
<line x1="534.1" y1="50" x2="534.1" y2="645" stroke="#ffffff" stroke-opacity="0.2"/>
<text x="534.1" y="665" fill="#aaaaaa" font-size="12" text-anchor="middle">2012</text>
<line x1="577.9" y1="50" x2="577.9" y2="645" stroke="#ffffff" stroke-opacity="0.2"/>
<text x="577.9" y="665" fill="#aaaaaa" font-size="12" text-anchor="middle">2013</text>
<line x1="619.5" y1="50" x2="619.5" y2="645" stroke="#ffffff" stroke-opacity="0.2"/>
<text x="619.5" y="665" fill="#aaaaaa" font-size="12" text-anchor="middle">2014</text>
<line x1="661.1" y1="50" x2="661.1" y2="645" stroke="#ffffff" stroke-opacity="0.2"/>
<text x="661.1" y="665" fill="#aaaaaa" font-size="12" text-anchor="middle">2015</text>
<line x1="702.7" y1="50" x2="702.7" y2="645" stroke="#ffffff" stroke-opacity="0.2"/>
<text x="702.7" y="665" fill="#aaaaaa" font-size="12" text-anchor="middle">2016</text>
<line x1="748.7" y1="50" x2="748.7" y2="645" stroke="#ffffff" stroke-opacity="0.2"/>
<text x="748.7" y="665" fill="#aaaaaa" font-size="12" text-anchor="middle">2017</text>
<line x1="792.5" y1="50" x2="792.5" y2="645" stroke="#ffffff" stroke-opacity="0.2"/>
<text x="792.5" y="665" fill="#aaaaaa" font-size="12" text-anchor="middle">2018</text>
<line x1="838.5" y1="50" x2="838.5" y2="645" stroke="#ffffff" stroke-opacity="0.2"/>
<text x="838.5" y="665" fill="#aaaaaa" font-size="12" text-anchor="middle">2019</text>
<line x1="884.4" y1="50" x2="884.4" y2="645" stroke="#ffffff" stroke-opacity="0.2"/>
<text x="884.4" y="665" fill="#aaaaaa" font-size="12" text-anchor="middle">2020</text>
<line x1="921.7" y1="50" x2="921.7" y2="645" stroke="#ffffff" stroke-opacity="0.2"/>
<text x="921.7" y="665" fill="#aaaaaa" font-size="12" text-anchor="middle">2021</text>
<line x1="969.8" y1="50" x2="969.8" y2="645" stroke="#ffffff" stroke-opacity="0.2"/>
<text x="969.8" y="665" fill="#aaaaaa" font-size="12" text-anchor="middle">2022</text>
<line x1="1018.0" y1="50" x2="1018.0" y2="645" stroke="#ffffff" stroke-opacity="0.2"/>
<text x="1018.0" y="665" fill="#aaaaaa" font-size="12" text-anchor="middle">2023</text>
<line x1="1066.2" y1="50" x2="1066.2" y2="645" stroke="#ffffff" stroke-opacity="0.2"/>
<text x="1066.2" y="665" fill="#aaaaaa" font-size="12" text-anchor="middle">2024</text>
<line x1="1118.7" y1="50" x2="1118.7" y2="645" stroke="#ffffff" stroke-opacity="0.2"/>
<text x="1118.7" y="665" fill="#aaaaaa" font-size="12" text-anchor="middle">2025</text>
<line x1="1171.2" y1="50" x2="1171.2" y2="645" stroke="#ffffff" stroke-opacity="0.2"/>
<text x="1171.2" y="665" fill="#aaaaaa" font-size="12" text-anchor="middle">2026</text>
<polyline points="297.7,489.8 299.9,488.2 302.1,486.6 304.3,485.0 306.4,484.5 308.6,483.4 310.8,484.5 313.0,484.5 315.2,485.0 317.4,485.5 319.6,486.1 321.8,484.5 324.0,483.4 326.2,480.7 328.3,479.1 330.5,477.0 332.7,474.8 334.9,473.2 337.1,470.0 339.3,468.9 341.5,466.8 343.7,466.2 345.9,464.6 348.0,464.6 350.2,463.0 352.4,460.3 354.6,458.7 356.8,456.1 359.0,452.8 361.2,450.7 363.4,449.1 365.6,448.6 367.8,448.0 369.9,446.9 372.1,443.7 374.3,442.1 376.5,440.5 378.7,438.4 380.9,436.8 383.1,435.1 385.3,432.5 387.5,431.4 389.6,428.7 391.8,426.6 394.0,423.9 396.2,422.3 398.4,419.6 400.6,416.9 402.8,414.8 405.0,412.1 407.2,410.5 409.3,408.9 411.5,405.7 413.7,403.5 415.9,400.3 418.1,398.2 420.3,394.4 422.5,392.3 424.7,389.0 426.9,386.4 429.1,384.8 431.2,383.1 433.4,382.6 435.6,381.5 437.8,382.1 440.0,382.6 442.2,379.4 444.4,376.7 446.6,373.0 448.8,369.7 450.9,366.5 453.1,363.9 455.3,361.2 457.5,359.6 459.7,358.5 461.9,356.3 464.1,354.2 466.3,352.6 468.5,351.5 470.7,351.0 472.8,349.9 475.0,349.4 477.2,348.3 479.4,347.8 481.6,347.8 483.8,347.8 486.0,348.3 488.2,348.8 490.4,348.3 492.5,349.9 494.7,349.9 496.9,349.4 499.1,349.9 501.3,350.4 503.5,352.1 505.7,352.1 507.9,351.0 510.1,349.9 512.2,349.4 514.4,349.9 516.6,349.4 518.8,348.8 521.0,348.3 523.2,348.3 525.4,347.8 527.6,347.2 529.8,346.7 532.0,347.2 534.1,347.2 536.3,345.1 538.5,343.5 540.7,343.5 542.9,342.9 545.1,341.9 547.3,342.9 549.5,344.6 551.7,345.6 553.8,345.1 556.0,345.1 558.2,345.6 560.4,344.0 562.6,344.0 564.8,344.0 567.0,343.5 569.2,342.9 571.4,341.9 573.6,341.3 575.7,339.2 577.9,334.9 580.1,330.1 582.3,326.9 584.5,322.6 586.7,318.3 588.9,314.5 591.1,311.9 593.3,309.2 595.4,306.5 597.6,304.9 599.8,297.4 602.0,290.9 604.2,283.4 606.4,276.5 608.6,270.6 610.8,263.1 613.0,257.7 615.1,251.8 617.3,244.8 619.5,238.9 621.7,232.5 623.9,228.2 626.1,223.4 628.3,219.1 630.5,215.9 632.7,212.7 634.9,210.5 637.0,208.9 639.2,207.3 641.4,205.2 643.6,204.6 645.8,204.1 648.0,203.0 650.2,203.0 652.4,203.0 654.6,204.1 656.7,204.6 658.9,206.2 661.1,204.6 663.3,202.5 665.5,200.3 667.7,199.3 669.9,198.2 672.1,197.7 674.3,197.1 676.4,198.2 678.6,198.7 680.8,201.4 683.0,202.5 685.2,203.0 687.4,197.7 689.6,193.4 691.8,188.6 694.0,182.1 696.2,177.8 698.3,173.5 700.5,169.8 702.7,166.0 704.9,164.4 707.1,162.8 709.3,161.2 711.5,159.6 713.7,159.1 715.9,157.5 718.0,153.7 720.2,152.1 722.4,149.4 724.6,146.2 726.8,144.1 729.0,142.5 731.2,140.8 733.4,139.8 735.6,139.8 737.8,139.8 739.9,139.8 742.1,140.8 744.3,141.4 746.5,143.0" fill="none" stroke="#e6194b" stroke-width="2" stroke-linejoin="round"/>
<polyline points="663.3,398.2 665.5,397.1 667.7,391.7 669.9,387.4 672.1,383.7 674.3,378.9 676.4,373.5 678.6,368.7 680.8,363.9 683.0,359.6 685.2,355.8 687.4,352.1 689.6,348.3 691.8,344.0 694.0,339.7 696.2,336.5 698.3,332.2 700.5,328.5 702.7,323.6 704.9,316.7 707.1,311.3 709.3,305.4 711.5,299.0 713.7,295.2 715.9,288.8 718.0,284.5 720.2,279.7 722.4,275.4 724.6,272.2 726.8,269.5 729.0,266.3 731.2,262.5 733.4,259.9 735.6,255.6 737.8,252.3 739.9,250.2 742.1,247.5 744.3,245.4 746.5,243.8 748.7,242.7 750.9,241.6 753.1,240.6 755.3,240.0 757.5,238.9 759.6,237.9 761.8,237.3 764.0,236.8 766.2,236.3 768.4,234.7 770.6,234.1 772.8,232.5 775.0,232.0 777.2,228.8 779.3,226.1 781.5,223.4 783.7,221.8 785.9,219.1 788.1,218.6 790.3,217.5 792.5,216.4 794.7,214.3 796.9,212.7 799.1,211.1 801.2,208.9 803.4,207.3 805.6,203.6 807.8,201.4 810.0,198.7 812.2,196.6 814.4,194.5 816.6,191.8 818.8,188.0 820.9,185.9 823.1,182.7 825.3,180.5 827.5,177.8 829.7,175.2 831.9,173.5 834.1,172.5 836.3,171.4 838.5,171.4 840.7,170.3 842.8,170.3 845.0,170.3 847.2,169.8 849.4,169.8 851.6,169.8 853.8,168.7 856.0,168.2 858.2,168.2 860.4,167.6 862.5,167.6 864.7,169.3 866.9,168.7 869.1,167.6 871.3,166.6 873.5,164.4 875.7,162.3 877.9,160.7 880.1,157.5 882.2,155.9 884.4,154.2 886.6,152.1 888.8,151.0 891.0,149.4 893.2,147.8 895.4,147.3 897.6,147.3 899.8,146.7 902.0,146.2 904.1,145.7 906.3,145.7 908.5,145.7 910.7,145.7 912.9,145.7 915.1,144.6 917.3,144.1 919.5,143.0 921.7,143.0 923.8,142.5 926.0,143.0 928.2,144.1 930.4,145.1 932.6,146.7 934.8,148.9 937.0,151.0 939.2,153.2 941.4,156.9 943.6,159.6 945.7,158.5 947.9,158.0 950.1,158.0 952.3,158.5 954.5,159.1 956.7,160.1 958.9,160.1 961.1,162.3 963.3,163.9 965.4,166.6 967.6,168.7 969.8,172.5 972.0,168.7 974.2,163.9 976.4,160.7 978.6,156.4 980.8,153.2 983.0,150.5 985.1,147.8 987.3,145.7 989.5,144.1 991.7,139.2 993.9,135.5 996.1,131.7 998.3,128.5 1000.5,125.3 1002.7,123.2 1004.9,120.5 1007.0,117.3 1009.2,113.5 1011.4,110.3 1013.6,107.6 1015.8,104.4 1018.0,100.1 1020.2,96.9 1022.4,94.2 1024.6,91.5 1026.7,88.3 1028.9,86.2 1031.1,85.1 1033.3,83.5 1035.5,82.4 1037.7,81.9 1039.9,81.9 1042.1,82.4 1044.3,81.9 1046.4,83.5 1048.6,85.1 1050.8,85.1 1053.0,85.6 1055.2,86.2 1057.4,87.8 1059.6,89.4 1061.8,91.5 1064.0,94.2 1066.2,96.9 1068.3,100.6 1070.5,103.3 1072.7,107.6 1074.9,110.8 1077.1,114.6 1079.3,119.9 1081.5,124.8 1083.7,127.4 1085.9,131.7 1088.0,135.5 1090.2,138.2 1092.4,142.5 1094.6,144.6 1096.8,147.8 1099.0,151.6 1101.2,153.7 1103.4,155.3 1105.6,157.5 1107.8,159.6 1109.9,161.2 1112.1,162.8 1114.3,164.4 1116.5,166.6 1118.7,167.6 1120.9,168.7 1123.1,170.9 1125.3,171.9 1127.5,173.5 1129.6,174.6 1131.8,176.2 1134.0,178.4 1136.2,180.5 1138.4,180.5 1140.6,180.0 1142.8,179.4 1145.0,180.0 1147.2,178.9 1149.3,177.3 1151.5,175.7 1153.7,175.2 1155.9,175.2 1158.1,174.6 1160.3,175.7 1162.5,176.2 1164.7,177.8 1166.9,180.5 1169.1,183.7 1171.2,186.4 1173.4,189.1 1175.6,191.8 1177.8,193.9 1180.0,197.1" fill="none" stroke="#3cb44b" stroke-width="2" stroke-linejoin="round"/>
<polyline points="838.5,572.4 840.7,569.7 842.8,567.6 845.0,563.8 847.2,560.6 849.4,558.4 851.6,555.8 853.8,552.5 856.0,550.4 858.2,547.2 860.4,545.0 862.5,544.0 864.7,542.4 866.9,541.8 869.1,541.8 871.3,540.8 873.5,541.3 875.7,539.1 877.9,538.1 880.1,535.9 882.2,535.4 884.4,533.8 886.6,531.6 888.8,530.0 891.0,528.4 893.2,526.3 895.4,523.6 897.6,520.4 899.8,518.2 902.0,515.0 904.1,511.8 906.3,508.6 908.5,503.8 910.7,499.5 912.9,495.2 915.1,490.9 917.3,486.6 919.5,483.4 921.7,480.2 923.8,477.0 926.0,474.3 928.2,470.5 930.4,466.2 932.6,462.5 934.8,458.2 937.0,454.4 939.2,450.7 941.4,447.5 943.6,444.3 945.7,440.5 947.9,438.9 950.1,434.6 952.3,430.9 954.5,427.6 956.7,423.9 958.9,418.5 961.1,413.7 963.3,406.7 965.4,398.7 967.6,390.1 969.8,381.5 972.0,374.0 974.2,366.0 976.4,359.0 978.6,354.2 980.8,348.3 983.0,343.5 985.1,339.2 987.3,336.0 989.5,331.7 991.7,329.0 993.9,326.9 996.1,324.2 998.3,323.1 1000.5,322.0 1002.7,321.5 1004.9,321.5 1007.0,319.4 1009.2,317.2 1011.4,315.1 1013.6,314.0 1015.8,313.5 1018.0,312.4 1020.2,312.4 1022.4,312.9 1024.6,312.4 1026.7,312.9 1028.9,314.0 1031.1,315.6 1033.3,316.7 1035.5,317.7 1037.7,320.4 1039.9,322.6 1042.1,326.3 1044.3,329.5 1046.4,329.0 1048.6,329.0 1050.8,327.4 1053.0,325.3 1055.2,323.6 1057.4,321.5 1059.6,320.4 1061.8,318.8 1064.0,317.7 1066.2,317.2 1068.3,317.2 1070.5,317.2 1072.7,312.9 1074.9,309.7 1077.1,306.0 1079.3,302.2 1081.5,299.5 1083.7,296.3 1085.9,294.2 1088.0,292.6 1090.2,292.0 1092.4,290.9 1094.6,289.3 1096.8,283.4 1099.0,277.0 1101.2,271.6 1103.4,266.3 1105.6,261.5 1107.8,256.6 1109.9,252.3 1112.1,248.6 1114.3,245.4 1116.5,242.7 1118.7,240.6 1120.9,238.4 1123.1,236.3 1125.3,235.2 1127.5,233.6 1129.6,233.6 1131.8,232.5 1134.0,232.5 1136.2,230.4 1138.4,229.3 1140.6,228.2 1142.8,226.6 1145.0,223.9 1147.2,222.3 1149.3,220.7 1151.5,218.6 1153.7,217.5 1155.9,217.0 1158.1,215.9 1160.3,215.9 1162.5,214.8 1164.7,214.3 1166.9,214.3 1169.1,214.8 1171.2,214.3 1173.4,215.4 1175.6,217.0 1177.8,218.6" fill="none" stroke="#4363d8" stroke-width="2" stroke-linejoin="round"/>
<polyline points="1020.2,391.7 1022.4,388.5 1024.6,386.4 1026.7,383.1 1028.9,378.3 1031.1,374.0 1033.3,370.8 1035.5,366.0 1037.7,360.6 1039.9,356.3 1042.1,352.6 1044.3,347.8 1046.4,344.0 1048.6,339.7 1050.8,335.4 1053.0,331.7 1055.2,329.0 1057.4,325.8 1059.6,323.6 1061.8,317.2 1064.0,310.8 1066.2,304.9 1068.3,299.5 1070.5,294.2 1072.7,288.3 1074.9,283.4 1077.1,278.6 1079.3,272.7 1081.5,265.7 1083.7,260.4 1085.9,254.5 1088.0,249.7 1090.2,244.8 1092.4,240.6 1094.6,235.7 1096.8,233.0 1099.0,230.4 1101.2,227.7 1103.4,226.6 1105.6,225.0 1107.8,223.4 1109.9,222.3 1112.1,220.2 1114.3,217.0 1116.5,214.8 1118.7,211.6 1120.9,205.2 1123.1,200.9 1125.3,197.1 1127.5,193.4 1129.6,191.2 1131.8,188.6 1134.0,186.4 1136.2,184.8 1138.4,183.7 1140.6,183.2 1142.8,182.7 1145.0,182.7 1147.2,184.3 1149.3,185.3 1151.5,187.5 1153.7,189.6 1155.9,191.8 1158.1,194.5 1160.3,196.1 1162.5,198.7 1164.7,201.4 1166.9,203.6 1169.1,206.2 1171.2,210.0 1173.4,213.2 1175.6,217.0 1177.8,221.3 1180.0,225.5" fill="none" stroke="#f58231" stroke-width="2" stroke-linejoin="round"/>
<polyline points="838.5,421.2 840.7,418.0 842.8,416.9 845.0,411.6 847.2,406.7 849.4,401.9 851.6,397.1 853.8,392.8 856.0,388.5 858.2,385.3 860.4,382.1 862.5,379.4 864.7,375.6 866.9,373.5 869.1,370.3 871.3,367.6 873.5,365.5 875.7,362.8 877.9,360.6 880.1,357.4 882.2,355.8 884.4,353.1 886.6,352.6 888.8,351.5 891.0,350.4 893.2,349.4 895.4,348.8 897.6,348.3 899.8,347.8 902.0,347.2 904.1,347.8 906.3,345.6 908.5,343.5 910.7,340.8 912.9,337.6 915.1,333.8 917.3,332.8 919.5,329.0 921.7,326.3 923.8,324.2 926.0,323.1 928.2,322.0 930.4,321.0 932.6,321.0 934.8,321.0 937.0,321.0 939.2,322.0 941.4,323.1 943.6,325.3 945.7,326.9 947.9,327.9 950.1,329.0 952.3,329.0 954.5,331.1 956.7,331.7 958.9,333.8 961.1,335.4 963.3,336.5 965.4,337.0 967.6,338.7 969.8,338.7 972.0,338.7 974.2,340.3 976.4,340.8 978.6,342.4 980.8,342.9 983.0,344.6 985.1,347.2 987.3,348.3 989.5,348.8 991.7,348.8 993.9,349.4 996.1,349.9 998.3,351.5 1000.5,351.5 1002.7,351.5 1004.9,352.6 1007.0,354.2 1009.2,355.3 1011.4,356.9 1013.6,359.0 1015.8,360.6 1018.0,362.2 1020.2,360.6 1022.4,357.4 1024.6,353.7 1026.7,350.4 1028.9,345.6 1031.1,340.3 1033.3,333.3 1035.5,326.9 1037.7,318.3 1039.9,311.9 1042.1,306.5 1044.3,300.1 1046.4,294.7 1048.6,288.8 1050.8,284.0 1053.0,279.7 1055.2,275.4 1057.4,272.2 1059.6,269.0 1061.8,266.3 1064.0,263.1 1066.2,260.9 1068.3,258.8 1070.5,255.6 1072.7,253.4 1074.9,250.7 1077.1,249.1 1079.3,248.6 1081.5,247.5 1083.7,248.1 1085.9,249.1 1088.0,250.2 1090.2,245.4 1092.4,242.2 1094.6,238.4 1096.8,235.2 1099.0,233.0 1101.2,231.4 1103.4,229.8 1105.6,229.8 1107.8,228.2 1109.9,228.8 1112.1,229.3 1114.3,228.8 1116.5,227.7 1118.7,226.6 1120.9,226.1 1123.1,227.7 1125.3,228.8 1127.5,230.4 1129.6,232.0 1131.8,233.6 1134.0,236.8 1136.2,241.1 1138.4,245.9 1140.6,244.3 1142.8,244.8 1145.0,245.9 1147.2,246.4 1149.3,248.1 1151.5,245.4 1153.7,242.2 1155.9,238.4 1158.1,236.8 1160.3,234.7 1162.5,234.1 1164.7,233.6 1166.9,233.0 1169.1,233.6 1171.2,234.1 1173.4,235.2 1175.6,236.3 1177.8,237.9" fill="none" stroke="#911eb4" stroke-width="2" stroke-linejoin="round"/>
<polyline points="792.5,438.4 794.7,435.1 796.9,431.9 799.1,427.6 801.2,422.3 803.4,417.5 805.6,413.2 807.8,407.8 810.0,403.5 812.2,399.2 814.4,393.9 816.6,386.9 818.8,379.9 820.9,373.5 823.1,366.5 825.3,359.6 827.5,352.6 829.7,345.6 831.9,338.7 834.1,332.2 836.3,325.8 838.5,319.4 840.7,314.0 842.8,308.6 845.0,304.3 847.2,299.5 849.4,296.3 851.6,292.6 853.8,290.4 856.0,287.2 858.2,285.0 860.4,285.0 862.5,283.4 864.7,282.9 866.9,282.9 869.1,283.4 871.3,285.6 873.5,287.7 875.7,289.9 877.9,293.1 880.1,296.8 882.2,299.0 884.4,300.6 886.6,303.8 888.8,305.4 891.0,307.0 893.2,309.2 895.4,312.4 897.6,314.0 899.8,315.6 902.0,315.1 904.1,315.6 906.3,315.1 908.5,314.5 910.7,314.5 912.9,314.5 915.1,315.6 917.3,315.6 919.5,316.1 921.7,314.5 923.8,313.5 926.0,312.4 928.2,312.9 930.4,312.4 932.6,312.4 934.8,312.9 937.0,310.2 939.2,307.6 941.4,306.0 943.6,303.8 945.7,301.7 947.9,299.5 950.1,297.9 952.3,296.3 954.5,292.0 956.7,287.7 958.9,285.6 961.1,282.4 963.3,279.7 965.4,276.5 967.6,272.7 969.8,268.4 972.0,265.7 974.2,262.0 976.4,259.3 978.6,257.7 980.8,255.6 983.0,253.4 985.1,251.8 987.3,249.1 989.5,247.0 991.7,245.4 993.9,244.8 996.1,243.8 998.3,241.6 1000.5,240.0 1002.7,238.9 1004.9,238.9 1007.0,238.9 1009.2,238.4 1011.4,239.5 1013.6,240.6 1015.8,241.6 1018.0,243.2 1020.2,244.3 1022.4,245.4 1024.6,245.9 1026.7,248.1 1028.9,248.1 1031.1,249.7 1033.3,249.1 1035.5,248.6 1037.7,249.1 1039.9,250.2 1042.1,249.1 1044.3,249.1 1046.4,249.1 1048.6,249.1 1050.8,249.7 1053.0,250.7 1055.2,251.8 1057.4,248.6 1059.6,245.9 1061.8,241.6 1064.0,238.4 1066.2,236.8 1068.3,234.7 1070.5,233.0 1072.7,231.4 1074.9,230.4 1077.1,228.8 1079.3,228.8 1081.5,228.8 1083.7,230.4 1085.9,230.4 1088.0,230.4 1090.2,230.4 1092.4,227.2 1094.6,223.9 1096.8,221.8 1099.0,219.6 1101.2,218.0 1103.4,217.5 1105.6,216.4 1107.8,216.4 1109.9,217.0 1112.1,215.9 1114.3,217.0 1116.5,218.6 1118.7,220.2 1120.9,220.7 1123.1,221.3 1125.3,222.3 1127.5,222.3 1129.6,224.5 1131.8,225.5 1134.0,226.6 1136.2,228.2 1138.4,230.9 1140.6,233.0 1142.8,236.3 1145.0,235.7 1147.2,236.3 1149.3,236.3 1151.5,235.7 1153.7,236.8 1155.9,235.7 1158.1,235.7 1160.3,236.3 1162.5,237.3 1164.7,237.3 1166.9,238.9 1169.1,238.9 1171.2,240.0 1173.4,242.2 1175.6,243.2 1177.8,245.9 1180.0,248.1" fill="none" stroke="#42d4f4" stroke-width="2" stroke-linejoin="round"/>
<polyline points="144.4,573.5 146.6,571.8 148.8,571.3 151.0,570.2 153.2,568.6 155.4,567.6 157.6,565.4 159.8,563.3 162.0,560.6 164.1,559.5 166.3,555.8 168.5,553.6 170.7,551.5 172.9,548.8 175.1,545.0 177.3,541.3 179.5,536.5 181.7,532.7 183.8,529.0 186.0,524.7 188.2,520.9 190.4,515.6 192.6,511.8 194.8,508.6 197.0,504.3 199.2,501.1 201.4,497.9 203.6,496.8 205.7,493.0 207.9,489.8 210.1,487.7 212.3,486.6 214.5,483.4 216.7,480.7 218.9,478.6 221.1,476.4 223.3,474.8 225.4,472.1 227.6,468.9 229.8,466.2 232.0,463.6 234.2,460.9 236.4,458.2 238.6,456.1 240.8,453.9 243.0,452.3 245.1,450.2 247.3,447.5 249.5,445.3 251.7,443.2 253.9,441.0 256.1,438.9 258.3,437.8 260.5,436.2 262.7,435.1 264.9,433.0 267.0,431.9 269.2,431.9 271.4,431.9 273.6,432.5 275.8,431.4 278.0,430.3 280.2,430.3 282.4,429.3 284.6,428.2 286.7,427.6 288.9,426.0 291.1,426.0 293.3,425.0 295.5,424.4 297.7,424.4 299.9,425.0 302.1,425.5 304.3,425.5 306.4,426.6 308.6,427.6 310.8,428.7 313.0,429.3 315.2,430.3 317.4,429.8 319.6,429.3 321.8,428.7 324.0,428.2 326.2,427.1 328.3,426.0 330.5,425.5 332.7,424.4 334.9,422.8 337.1,421.7 339.3,420.1 341.5,418.0 343.7,416.9 345.9,415.3 348.0,412.1 350.2,410.0 352.4,407.8 354.6,405.7 356.8,403.0 359.0,401.4 361.2,400.3 363.4,398.7 365.6,397.1 367.8,396.0 369.9,393.3 372.1,391.7 374.3,390.1 376.5,388.5 378.7,386.4 380.9,385.3 383.1,384.2 385.3,383.7 387.5,383.1 389.6,381.5 391.8,380.5 394.0,379.4 396.2,377.8 398.4,376.2 400.6,374.0 402.8,371.9 405.0,370.3 407.2,368.1 409.3,366.5 411.5,362.8 413.7,359.0 415.9,355.3 418.1,351.5 420.3,348.3 422.5,345.6 424.7,342.4 426.9,340.3 429.1,338.1 431.2,337.0 433.4,337.0 435.6,336.0 437.8,336.0 440.0,334.4 442.2,332.8 444.4,331.1 446.6,325.3 448.8,319.4 450.9,314.0 453.1,309.7 455.3,303.3 457.5,297.4 459.7,292.6 461.9,287.2 464.1,282.4 466.3,278.6 468.5,275.4 470.7,271.6 472.8,267.4 475.0,264.1 477.2,261.5 479.4,259.3 481.6,255.6 483.8,253.4 486.0,251.8 488.2,250.2 490.4,248.1 492.5,245.9 494.7,243.8 496.9,241.1 499.1,238.9 501.3,237.9 503.5,236.3 505.7,235.2 507.9,233.6 510.1,233.0 512.2,232.5 514.4,231.4 516.6,231.4 518.8,231.4 521.0,232.0 523.2,232.5 525.4,232.5 527.6,234.1 529.8,235.7 532.0,236.8 534.1,239.5 536.3,241.1 538.5,244.8 540.7,247.5 542.9,251.8 545.1,255.0 547.3,257.7 549.5,260.9 551.7,265.2 553.8,269.0 556.0,273.3 558.2,277.0 560.4,280.2 562.6,280.8 564.8,281.3 567.0,279.2 569.2,278.1 571.4,277.0 573.6,276.5 575.7,274.9 577.9,274.9 580.1,273.3 582.3,273.8 584.5,272.7 586.7,272.2 588.9,272.7 591.1,272.7 593.3,274.3 595.4,275.4 597.6,277.5 599.8,278.6 602.0,281.3 604.2,285.0 606.4,284.5 608.6,284.0 610.8,284.5 613.0,284.5 615.1,285.6 617.3,287.7" fill="none" stroke="#f032e6" stroke-width="2" stroke-linejoin="round"/>
<polyline points="337.1,272.2 339.3,269.0 341.5,266.8 343.7,265.2 345.9,264.1 348.0,264.1 350.2,264.7 352.4,265.2 354.6,267.9 356.8,270.6 359.0,271.1 361.2,272.2 363.4,273.8 365.6,276.5 367.8,278.1 369.9,281.8 372.1,284.5 374.3,286.7 376.5,288.3 378.7,291.5 380.9,292.0 383.1,292.6 385.3,293.6 387.5,295.8 389.6,297.9 391.8,299.0 394.0,300.6 396.2,302.7 398.4,304.3 400.6,308.1 402.8,310.8 405.0,315.1 407.2,319.4 409.3,321.5 411.5,324.2 413.7,327.4 415.9,329.5 418.1,332.8 420.3,335.4 422.5,339.7 424.7,342.4 426.9,344.6 429.1,346.2 431.2,345.1 433.4,341.3 435.6,337.6 437.8,334.4 440.0,330.1 442.2,325.3 444.4,321.5 446.6,317.2 448.8,314.0 450.9,310.2 453.1,307.0 455.3,303.3 457.5,299.5 459.7,296.8 461.9,292.0 464.1,287.2 466.3,282.4 468.5,279.2 470.7,275.9 472.8,273.3 475.0,270.6 477.2,267.9 479.4,266.3 481.6,264.7 483.8,263.1 486.0,259.9 488.2,258.2 490.4,256.6 492.5,255.0 494.7,254.5 496.9,253.4 499.1,252.9 501.3,252.3 503.5,251.3 505.7,251.3 507.9,250.7 510.1,250.2 512.2,250.2 514.4,250.7 516.6,251.8 518.8,251.8 521.0,252.9 523.2,254.0 525.4,255.0 527.6,256.6 529.8,257.7 532.0,259.3 534.1,260.9 536.3,262.0 538.5,265.2 540.7,267.9 542.9,271.1 545.1,274.9 547.3,278.6 549.5,283.4 551.7,280.2 553.8,277.5 556.0,275.4 558.2,273.8 560.4,271.1 562.6,269.5 564.8,267.4 567.0,265.7 569.2,262.5 571.4,259.3 573.6,256.1 575.7,254.0 577.9,251.8 580.1,249.7 582.3,247.0 584.5,245.4 586.7,243.2 588.9,240.6 591.1,236.8 593.3,234.1 595.4,230.9 597.6,228.2 599.8,226.1 602.0,223.4 604.2,220.7 606.4,217.0 608.6,213.2 610.8,209.5 613.0,206.2 615.1,200.9 617.3,196.6 619.5,189.1 621.7,181.0 623.9,174.6 626.1,169.3 628.3,163.4 630.5,158.0 632.7,153.7 634.9,148.9 637.0,143.5 639.2,139.2 641.4,134.9 643.6,130.7 645.8,125.8 648.0,122.1 650.2,118.9 652.4,115.6 654.6,113.5 656.7,111.9 658.9,110.3 661.1,108.7 663.3,108.1 665.5,107.6 667.7,107.6 669.9,107.1 672.1,107.6 674.3,107.6 676.4,108.7 678.6,108.1 680.8,109.2 683.0,108.7 685.2,109.2 687.4,109.8 689.6,109.8 691.8,109.2 694.0,110.8 696.2,112.4 698.3,112.4 700.5,114.0 702.7,115.6 704.9,116.2 707.1,117.8 709.3,117.3 711.5,116.2 713.7,115.1 715.9,114.0 718.0,114.0 720.2,112.4 722.4,112.4 724.6,112.4 726.8,112.4 729.0,111.9 731.2,112.4 733.4,113.5 735.6,114.6 737.8,115.1 739.9,115.6 742.1,116.2 744.3,116.7 746.5,118.9 748.7,122.1 750.9,123.7 753.1,127.4 755.3,129.6 757.5,132.3 759.6,135.5 761.8,136.0 764.0,137.6 766.2,137.1 768.4,136.6 770.6,136.0 772.8,136.0 775.0,135.5 777.2,135.5 779.3,136.0 781.5,136.6 783.7,137.1 785.9,139.2 788.1,136.6 790.3,133.9 792.5,132.8 794.7,130.7 796.9,127.4 799.1,125.3 801.2,122.6 803.4,120.5 805.6,118.3 807.8,116.2 810.0,113.5 812.2,110.3 814.4,109.2 816.6,107.1 818.8,105.5 820.9,103.9 823.1,103.3 825.3,102.8 827.5,102.2 829.7,102.8 831.9,103.9 834.1,103.3 836.3,103.9 838.5,104.9 840.7,106.0 842.8,107.6 845.0,110.3 847.2,113.0 849.4,115.1 851.6,118.9 853.8,123.7 856.0,127.4 858.2,132.3 860.4,136.0 862.5,135.5 864.7,136.0 866.9,136.6 869.1,137.6 871.3,137.6 873.5,138.7 875.7,139.2 877.9,140.3 880.1,141.9 882.2,141.4 884.4,142.5 886.6,141.9 888.8,141.4 891.0,141.9 893.2,143.0 895.4,144.6 897.6,146.7 899.8,149.4 902.0,150.0 904.1,152.1 906.3,153.2 908.5,154.8 910.7,156.9 912.9,160.1 915.1,163.9 917.3,168.2 919.5,171.4 921.7,175.7 923.8,179.4 926.0,185.3 928.2,190.2 930.4,197.7 932.6,201.4 934.8,201.4 937.0,200.3 939.2,199.8 941.4,200.9 943.6,200.9 945.7,201.4 947.9,202.5 950.1,203.6 952.3,205.2 954.5,207.3 956.7,208.9 958.9,210.5 961.1,213.2 963.3,217.0 965.4,220.2 967.6,224.5 969.8,229.8 972.0,235.2 974.2,238.9 976.4,242.2 978.6,244.3 980.8,244.8 983.0,246.4 985.1,245.9 987.3,247.0 989.5,247.0 991.7,248.6 993.9,249.7 996.1,251.3 998.3,254.0 1000.5,256.1 1002.7,258.2 1004.9,260.9 1007.0,263.1 1009.2,264.7 1011.4,267.4 1013.6,271.1 1015.8,273.8 1018.0,272.7 1020.2,270.6 1022.4,270.0 1024.6,269.5 1026.7,268.4 1028.9,267.4 1031.1,267.4 1033.3,267.4 1035.5,268.4 1037.7,269.0 1039.9,270.6 1042.1,272.2 1044.3,273.3 1046.4,275.4 1048.6,277.5 1050.8,279.7 1053.0,282.9 1055.2,285.0 1057.4,285.6 1059.6,286.1 1061.8,286.1 1064.0,285.6 1066.2,285.0 1068.3,284.0 1070.5,283.4 1072.7,281.8 1074.9,279.7 1077.1,277.5 1079.3,274.3 1081.5,272.7 1083.7,270.0 1085.9,269.0 1088.0,267.4 1090.2,266.3 1092.4,265.7 1094.6,265.2 1096.8,266.8 1099.0,267.9 1101.2,267.9 1103.4,269.0 1105.6,270.6 1107.8,271.6 1109.9,272.7 1112.1,273.3 1114.3,274.9 1116.5,274.3 1118.7,274.3 1120.9,274.3 1123.1,273.3 1125.3,272.2 1127.5,271.6 1129.6,270.6 1131.8,270.0 1134.0,269.5 1136.2,269.5 1138.4,270.0 1140.6,270.6 1142.8,271.1 1145.0,272.7 1147.2,274.3 1149.3,275.4 1151.5,275.9 1153.7,276.5 1155.9,277.5 1158.1,278.6 1160.3,279.7 1162.5,281.3 1164.7,282.4 1166.9,282.9 1169.1,281.8 1171.2,281.8 1173.4,281.8 1175.6,282.9 1177.8,285.0 1180.0,286.7" fill="none" stroke="#bfef45" stroke-width="2" stroke-linejoin="round"/>
<polyline points="1118.7,351.0 1120.9,348.8 1123.1,346.7 1125.3,346.7 1127.5,346.2 1129.6,345.6 1131.8,346.2 1134.0,346.7 1136.2,344.0 1138.4,341.9 1140.6,340.3 1142.8,337.6 1145.0,336.0 1147.2,332.8 1149.3,330.1 1151.5,326.3 1153.7,322.0 1155.9,318.8 1158.1,316.7 1160.3,313.5 1162.5,310.2 1164.7,309.2 1166.9,307.6 1169.1,307.0 1171.2,304.9 1173.4,304.3 1175.6,303.8 1177.8,304.3 1180.0,306.0" fill="none" stroke="#ff6b6b" stroke-width="2" stroke-linejoin="round"/>
<polyline points="74.4,318.8 76.6,316.1 78.8,314.0 80.9,312.9 83.1,313.5 85.3,311.3 87.5,309.2 89.7,309.2 91.9,308.1 94.1,308.6 96.3,308.6 98.5,310.8 100.7,312.4 102.8,314.5 105.0,317.7 107.2,319.4 109.4,322.0 111.6,323.1 113.8,324.7 116.0,326.9 118.2,326.9 120.4,326.3 122.5,326.3 124.7,326.3 126.9,325.3 129.1,324.7 131.3,325.8 133.5,326.3 135.7,326.3 137.9,327.4 140.1,328.5 142.2,330.6" fill="none" stroke="#469990" stroke-width="2" stroke-linejoin="round"/>
<polyline points="116.0,349.4 118.2,347.2 120.4,345.6 122.5,343.5 124.7,341.3 126.9,340.8 129.1,339.2 131.3,337.6 133.5,337.0 135.7,334.9 137.9,332.8 140.1,331.1 142.2,330.1 144.4,329.0 146.6,329.0 148.8,329.0 151.0,329.0 153.2,330.1 155.4,330.6 157.6,332.8 159.8,333.8 162.0,334.9 164.1,337.0 166.3,338.7 168.5,340.3 170.7,342.4 172.9,342.9 175.1,344.0 177.3,345.1 179.5,346.7 181.7,348.3 183.8,350.4 186.0,348.8 188.2,347.8 190.4,347.2 192.6,345.1 194.8,343.5 197.0,342.4 199.2,341.9 201.4,341.9 203.6,342.9 205.7,344.6 207.9,346.2 210.1,348.8 212.3,351.5 214.5,353.7 216.7,355.8 218.9,356.9 221.1,359.6 223.3,359.0 225.4,360.6 227.6,360.6 229.8,360.6 232.0,359.6 234.2,358.5 236.4,358.0 238.6,357.4 240.8,355.8 243.0,354.7 245.1,354.7 247.3,353.7 249.5,353.1 251.7,352.6 253.9,351.5 256.1,352.6 258.3,352.1 260.5,353.1 262.7,353.1 264.9,353.1 267.0,353.7 269.2,354.2 271.4,354.7 273.6,354.7 275.8,355.3 278.0,355.8 280.2,356.3 282.4,357.4 284.6,360.1 286.7,361.7 288.9,364.4 291.1,363.3 293.3,362.8 295.5,361.7 297.7,362.2 299.9,361.7 302.1,362.2 304.3,362.2 306.4,363.9 308.6,364.4 310.8,366.0 313.0,367.1" fill="none" stroke="#9a6324" stroke-width="2" stroke-linejoin="round"/>
<polyline points="1068.3,443.2 1070.5,442.1 1072.7,441.0 1074.9,440.0 1077.1,438.9 1079.3,438.4 1081.5,436.2 1083.7,435.1 1085.9,434.1 1088.0,432.5 1090.2,431.4 1092.4,429.3 1094.6,428.2 1096.8,426.6 1099.0,424.4 1101.2,423.4 1103.4,422.3 1105.6,421.7 1107.8,420.1 1109.9,419.1 1112.1,418.5 1114.3,418.0 1116.5,417.5 1118.7,416.4 1120.9,414.2 1123.1,412.6 1125.3,411.0 1127.5,410.5 1129.6,409.4 1131.8,408.9 1134.0,406.7 1136.2,404.6 1138.4,400.3 1140.6,396.6 1142.8,393.9 1145.0,390.7 1147.2,387.4 1149.3,385.3 1151.5,382.6 1153.7,379.9 1155.9,378.3 1158.1,375.6 1160.3,375.1 1162.5,375.1 1164.7,374.6 1166.9,374.6 1169.1,374.6 1171.2,376.2 1173.4,376.7 1175.6,378.9 1177.8,379.9 1180.0,381.5" fill="none" stroke="#ffd700" stroke-width="2" stroke-linejoin="round"/>
<polyline points="661.1,421.7 663.3,419.1 665.5,416.9 667.7,415.3 669.9,413.7 672.1,412.6 674.3,411.6 676.4,411.6 678.6,410.5 680.8,408.9 683.0,407.8 685.2,406.7 687.4,405.7 689.6,405.7 691.8,404.6 694.0,404.1 696.2,404.1 698.3,403.5 700.5,402.4 702.7,400.3 704.9,399.8 707.1,399.2 709.3,399.2 711.5,397.6 713.7,398.2 715.9,398.7 718.0,399.8 720.2,399.8 722.4,400.8 724.6,401.9 726.8,404.1 729.0,406.2 731.2,408.3 733.4,408.3 735.6,408.9 737.8,408.3 739.9,407.8 742.1,406.7 744.3,406.2 746.5,406.2 748.7,405.1 750.9,404.1 753.1,404.6 755.3,404.1 757.5,403.0 759.6,402.4 761.8,404.1 764.0,404.1 766.2,404.6 768.4,405.1 770.6,404.6 772.8,405.7 775.0,406.7 777.2,406.7 779.3,407.3 781.5,407.8 783.7,408.9 785.9,408.9 788.1,410.0 790.3,410.5 792.5,410.0 794.7,410.5 796.9,410.5 799.1,410.5 801.2,411.6 803.4,413.2 805.6,413.7 807.8,415.8 810.0,418.5 812.2,419.6 814.4,420.1 816.6,420.1 818.8,420.7 820.9,419.1 823.1,418.5 825.3,419.1 827.5,415.3 829.7,412.6 831.9,410.5 834.1,406.7 836.3,404.1 838.5,400.3 840.7,397.1 842.8,393.3 845.0,389.0 847.2,384.2 849.4,380.5 851.6,376.7 853.8,373.5 856.0,370.3 858.2,367.6 860.4,365.5 862.5,363.9 864.7,362.2 866.9,361.2 869.1,359.6 871.3,357.4 873.5,355.3 875.7,354.2 877.9,352.1 880.1,349.4 882.2,347.8 884.4,345.6 886.6,342.9 888.8,341.3 891.0,340.3 893.2,337.0 895.4,334.4 897.6,330.6 899.8,326.9 902.0,325.3 904.1,322.6 906.3,318.8 908.5,316.1 910.7,314.0 912.9,310.2 915.1,308.6 917.3,307.6 919.5,305.4 921.7,304.9 923.8,302.7 926.0,302.2 928.2,300.6 930.4,298.4 932.6,297.4 934.8,296.3 937.0,294.2 939.2,292.0 941.4,289.9 943.6,288.3 945.7,286.7 947.9,285.0 950.1,282.9 952.3,280.2 954.5,278.6 956.7,277.0 958.9,274.9 961.1,272.2 963.3,270.6 965.4,267.4 967.6,264.7 969.8,262.5 972.0,259.9 974.2,258.8 976.4,256.6 978.6,254.5 980.8,252.9 983.0,251.8 985.1,250.7 987.3,250.2 989.5,250.2 991.7,249.7 993.9,250.7 996.1,250.2 998.3,251.3 1000.5,251.3 1002.7,251.8 1004.9,252.3 1007.0,254.0 1009.2,255.0 1011.4,255.6 1013.6,257.2 1015.8,258.2 1018.0,259.9 1020.2,262.5 1022.4,264.1 1024.6,264.7 1026.7,265.2 1028.9,265.7 1031.1,267.4 1033.3,267.9 1035.5,268.4 1037.7,269.5 1039.9,269.5 1042.1,270.6 1044.3,270.0 1046.4,271.1 1048.6,271.6 1050.8,273.3 1053.0,274.3 1055.2,275.9 1057.4,276.5 1059.6,279.2 1061.8,281.3 1064.0,283.4 1066.2,280.8 1068.3,279.7 1070.5,278.6 1072.7,277.5 1074.9,277.0 1077.1,276.5 1079.3,277.0 1081.5,277.5 1083.7,278.6 1085.9,279.7 1088.0,280.2 1090.2,282.9 1092.4,285.6 1094.6,287.7 1096.8,290.9 1099.0,295.2 1101.2,299.0 1103.4,301.1 1105.6,302.7 1107.8,305.4 1109.9,308.6 1112.1,311.9 1114.3,316.1 1116.5,319.4 1118.7,324.7 1120.9,329.0 1123.1,332.8 1125.3,337.0 1127.5,339.7 1129.6,342.9 1131.8,347.2 1134.0,351.5 1136.2,354.7 1138.4,359.6 1140.6,363.3 1142.8,366.0 1145.0,369.7 1147.2,373.0 1149.3,375.1 1151.5,377.8 1153.7,381.0 1155.9,383.7 1158.1,388.0 1160.3,390.7 1162.5,392.3 1164.7,392.8 1166.9,394.4 1169.1,396.6 1171.2,398.7 1173.4,400.3 1175.6,402.4 1177.8,403.5 1180.0,406.2" fill="none" stroke="#800000" stroke-width="2" stroke-linejoin="round"/>
<polyline points="70.0,593.8 72.2,590.6 74.4,588.5 76.6,586.3 78.8,583.1 80.9,579.9 83.1,576.7 85.3,574.5 87.5,571.8 89.7,568.6 91.9,565.4 94.1,561.7 96.3,557.9 98.5,553.6 100.7,549.9 102.8,545.0 105.0,541.3 107.2,536.5 109.4,532.7 111.6,529.5 113.8,526.3 116.0,523.6 118.2,521.5 120.4,519.8 122.5,517.7 124.7,515.0 126.9,512.3 129.1,511.3 131.3,509.7 133.5,508.1 135.7,508.1 137.9,507.5 140.1,504.8 142.2,504.3 144.4,502.7 146.6,502.7 148.8,501.6 151.0,502.2 153.2,500.5 155.4,501.1 157.6,500.0 159.8,499.5 162.0,499.5 164.1,499.5 166.3,499.5 168.5,500.0 170.7,501.6 172.9,502.2 175.1,503.8 177.3,504.8 179.5,507.0 181.7,508.6 183.8,510.7 186.0,512.9 188.2,514.0 190.4,516.6 192.6,518.8 194.8,520.4 197.0,522.5 199.2,524.1 201.4,526.3 203.6,528.4 205.7,527.4 207.9,526.8 210.1,527.9 212.3,527.4 214.5,529.0 216.7,530.0 218.9,531.6 221.1,532.7 223.3,532.7 225.4,533.2 227.6,533.8 229.8,534.9 232.0,534.9 234.2,535.4 236.4,536.5 238.6,535.9 240.8,535.4 243.0,533.8 245.1,531.6 247.3,529.0 249.5,525.7 251.7,520.9 253.9,517.2 256.1,513.4 258.3,509.7 260.5,505.9 262.7,501.6 264.9,499.5 267.0,496.3 269.2,493.6 271.4,492.0 273.6,490.4 275.8,489.3 278.0,486.1 280.2,482.9 282.4,481.3 284.6,478.6 286.7,476.4 288.9,474.3 291.1,472.1 293.3,470.0 295.5,466.8 297.7,464.6 299.9,461.4 302.1,458.2 304.3,456.6 306.4,453.4 308.6,450.7 310.8,448.0 313.0,445.9 315.2,444.3 317.4,443.2 319.6,441.0 321.8,440.0 324.0,438.9 326.2,437.8 328.3,435.7 330.5,433.5 332.7,431.9 334.9,430.9 337.1,425.5 339.3,420.7 341.5,415.3 343.7,411.6 345.9,408.3 348.0,404.6 350.2,401.9 352.4,398.2 354.6,396.0 356.8,393.3 359.0,392.3 361.2,391.7 363.4,391.2 365.6,391.2 367.8,391.7 369.9,390.1 372.1,388.5 374.3,386.9 376.5,386.9 378.7,386.9 380.9,386.9 383.1,386.9 385.3,387.4 387.5,385.8 389.6,385.3 391.8,383.1 394.0,382.6 396.2,381.5 398.4,381.0 400.6,381.0 402.8,381.5 405.0,382.6 407.2,383.1 409.3,384.8 411.5,386.9 413.7,388.0 415.9,390.1 418.1,392.8 420.3,395.5 422.5,395.5 424.7,395.5 426.9,396.6 429.1,397.1 431.2,397.6 433.4,398.2 435.6,398.2 437.8,397.6 440.0,399.2 442.2,399.8 444.4,400.3 446.6,401.4 448.8,402.4 450.9,404.6 453.1,406.2 455.3,407.8 457.5,408.3 459.7,410.0 461.9,411.0 464.1,411.6 466.3,412.1 468.5,412.6 470.7,413.2 472.8,414.2 475.0,413.7 477.2,414.2 479.4,413.7 481.6,413.2 483.8,413.2 486.0,412.6 488.2,413.2 490.4,412.6 492.5,413.2 494.7,412.1 496.9,411.6 499.1,411.0 501.3,412.1 503.5,412.6 505.7,414.2 507.9,415.8 510.1,418.0" fill="none" stroke="#aaffc3" stroke-width="2" stroke-linejoin="round"/>
<polyline points="1044.3,484.5 1046.4,482.3 1048.6,481.8 1050.8,481.8 1053.0,483.4 1055.2,482.9 1057.4,483.4 1059.6,482.9 1061.8,482.3 1064.0,482.9 1066.2,482.3 1068.3,481.8 1070.5,481.3 1072.7,479.6 1074.9,479.1 1077.1,478.6 1079.3,478.0 1081.5,475.9 1083.7,475.4 1085.9,473.7 1088.0,472.1 1090.2,470.5 1092.4,468.9 1094.6,467.3 1096.8,465.7 1099.0,464.1 1101.2,462.5 1103.4,459.8 1105.6,458.2 1107.8,456.6 1109.9,455.0 1112.1,453.9 1114.3,452.8 1116.5,452.3 1118.7,449.6 1120.9,446.4 1123.1,443.2 1125.3,440.0 1127.5,437.3 1129.6,434.1 1131.8,430.3 1134.0,428.2 1136.2,425.0 1138.4,422.8 1140.6,420.1 1142.8,418.5 1145.0,416.9 1147.2,415.8 1149.3,414.2 1151.5,414.2 1153.7,413.7 1155.9,413.7 1158.1,414.8 1160.3,414.8 1162.5,416.4 1164.7,416.9 1166.9,417.5 1169.1,418.5 1171.2,419.6 1173.4,420.1 1175.6,420.7 1177.8,423.4 1180.0,425.0" fill="none" stroke="#808000" stroke-width="2" stroke-linejoin="round"/>
<polyline points="450.9,467.8 453.1,465.7 455.3,463.0 457.5,461.4 459.7,459.3 461.9,456.1 464.1,453.4 466.3,450.7 468.5,448.0 470.7,444.3 472.8,442.1 475.0,440.0 477.2,438.4 479.4,436.2 481.6,435.1 483.8,434.1 486.0,433.0 488.2,433.0 490.4,432.5 492.5,431.9 494.7,431.4 496.9,430.9 499.1,430.3 501.3,428.7 503.5,428.2 505.7,426.6 507.9,425.0 510.1,424.4 512.2,422.3 514.4,419.6 516.6,418.0 518.8,416.4 521.0,414.8 523.2,412.1 525.4,409.4 527.6,407.8 529.8,405.1 532.0,402.4 534.1,399.8 536.3,396.0 538.5,393.9 540.7,391.2 542.9,389.0 545.1,386.9 547.3,385.3 549.5,383.7 551.7,383.7 553.8,382.1 556.0,382.6 558.2,381.5 560.4,382.6 562.6,381.5 564.8,381.0 567.0,380.5 569.2,379.9 571.4,379.9 573.6,379.9 575.7,380.5 577.9,382.1 580.1,382.1 582.3,382.1 584.5,383.1 586.7,384.2 588.9,384.8 591.1,384.8 593.3,384.8 595.4,384.8 597.6,385.3 599.8,385.3 602.0,383.7 604.2,384.8 606.4,384.2 608.6,384.8 610.8,386.4 613.0,383.1 615.1,380.5 617.3,377.8 619.5,374.6 621.7,373.5 623.9,371.9 626.1,370.8 628.3,369.2 630.5,369.2 632.7,369.2 634.9,370.3 637.0,370.8 639.2,371.4 641.4,372.4 643.6,374.0 645.8,375.6 648.0,376.7 650.2,377.8 652.4,378.9 654.6,379.9 656.7,381.5 658.9,383.1 661.1,385.3 663.3,386.4 665.5,388.5 667.7,389.0 669.9,388.5 672.1,387.4 674.3,385.8 676.4,384.8 678.6,384.8 680.8,383.7 683.0,384.2 685.2,383.1 687.4,382.6 689.6,382.6 691.8,382.6 694.0,383.1 696.2,382.1 698.3,382.6 700.5,382.6 702.7,383.1 704.9,385.3 707.1,385.3 709.3,385.3 711.5,384.8 713.7,384.8 715.9,384.8 718.0,385.8 720.2,385.8 722.4,385.8 724.6,385.3 726.8,385.3 729.0,385.8 731.2,386.9 733.4,389.6 735.6,389.6 737.8,391.2 739.9,393.3 742.1,395.5 744.3,397.1 746.5,400.8 748.7,403.5 750.9,406.2 753.1,407.8 755.3,410.5 757.5,412.6 759.6,414.8 761.8,417.5 764.0,420.1 766.2,423.4 768.4,424.4 770.6,427.1 772.8,426.6 775.0,426.0 777.2,426.0 779.3,425.0 781.5,423.4 783.7,421.2 785.9,418.0 788.1,415.8 790.3,412.6 792.5,410.5 794.7,410.0 796.9,408.3 799.1,407.8 801.2,407.3 803.4,405.7 805.6,405.7 807.8,405.1 810.0,405.7 812.2,406.2 814.4,406.7 816.6,408.3 818.8,409.4 820.9,410.0 823.1,409.4 825.3,409.4 827.5,408.3 829.7,408.3 831.9,407.8 834.1,408.3 836.3,408.3 838.5,408.3 840.7,407.8 842.8,408.3 845.0,407.8 847.2,406.2 849.4,404.6 851.6,403.0 853.8,402.4 856.0,401.4 858.2,400.3 860.4,399.8 862.5,398.7 864.7,398.2 866.9,398.7 869.1,398.7 871.3,399.2 873.5,400.8 875.7,400.8 877.9,401.9 880.1,403.5 882.2,405.1 884.4,406.2 886.6,408.3 888.8,410.0 891.0,411.0 893.2,412.1 895.4,414.2 897.6,415.8 899.8,417.5 902.0,419.6 904.1,421.2 906.3,421.7 908.5,423.9 910.7,426.0 912.9,427.6 915.1,429.8 917.3,431.9 919.5,432.5 921.7,434.6 923.8,435.7 926.0,437.3 928.2,438.4 930.4,440.5 932.6,441.6 934.8,442.1 937.0,443.2 939.2,444.3 941.4,444.8 943.6,445.9 945.7,446.9 947.9,447.5 950.1,447.5 952.3,448.6 954.5,449.1 956.7,449.1 958.9,450.2 961.1,449.6 963.3,449.6 965.4,450.7 967.6,450.2 969.8,450.2 972.0,450.2 974.2,452.8 976.4,453.9 978.6,455.0 980.8,456.6 983.0,457.7 985.1,458.2 987.3,459.3 989.5,460.3 991.7,460.9 993.9,462.0 996.1,462.5 998.3,462.5 1000.5,462.5 1002.7,463.0 1004.9,463.0 1007.0,463.6 1009.2,463.6 1011.4,462.5 1013.6,463.0 1015.8,462.0 1018.0,461.4 1020.2,460.9 1022.4,460.3 1024.6,461.4 1026.7,461.4 1028.9,462.5 1031.1,462.5 1033.3,464.1 1035.5,465.2 1037.7,464.6 1039.9,466.2 1042.1,467.8 1044.3,466.8 1046.4,466.2 1048.6,464.6 1050.8,464.1 1053.0,462.0 1055.2,459.3 1057.4,457.7 1059.6,455.5 1061.8,453.4 1064.0,450.2 1066.2,445.9 1068.3,441.6 1070.5,438.9 1072.7,435.7 1074.9,433.0 1077.1,430.3 1079.3,428.2 1081.5,426.6 1083.7,425.0 1085.9,422.8 1088.0,421.2 1090.2,420.7 1092.4,419.6 1094.6,419.1 1096.8,418.0 1099.0,416.9 1101.2,415.8 1103.4,414.2 1105.6,413.2 1107.8,412.6 1109.9,413.7 1112.1,412.6 1114.3,413.2 1116.5,413.7 1118.7,414.2 1120.9,415.8 1123.1,415.3 1125.3,415.3 1127.5,415.3 1129.6,414.2 1131.8,414.2 1134.0,412.6 1136.2,411.6 1138.4,410.0 1140.6,409.4 1142.8,410.0 1145.0,410.5 1147.2,411.6 1149.3,413.7 1151.5,414.8 1153.7,416.4 1155.9,416.9 1158.1,416.9 1160.3,416.9 1162.5,416.4 1164.7,417.5 1166.9,418.0 1169.1,418.5 1171.2,420.7 1173.4,421.7 1175.6,422.3 1177.8,424.4 1180.0,426.6" fill="none" stroke="#ffd8b1" stroke-width="2" stroke-linejoin="round"/>
<polyline points="1120.9,411.0 1123.1,408.3 1125.3,406.2 1127.5,405.1 1129.6,403.0 1131.8,401.9 1134.0,401.9 1136.2,401.9 1138.4,403.0 1140.6,405.1 1142.8,405.1 1145.0,406.7 1147.2,405.7 1149.3,405.7 1151.5,406.2 1153.7,406.7 1155.9,409.4 1158.1,411.0 1160.3,411.6 1162.5,413.7 1164.7,415.8 1166.9,418.5 1169.1,420.1 1171.2,421.2 1173.4,421.7 1175.6,422.8 1177.8,425.5 1180.0,427.1" fill="none" stroke="#000075" stroke-width="2" stroke-linejoin="round"/>
<polyline points="107.2,613.1 109.4,612.1 111.6,609.9 113.8,607.8 116.0,606.2 118.2,604.0 120.4,601.9 122.5,600.3 124.7,598.1 126.9,596.5 129.1,592.2 131.3,586.3 133.5,580.4 135.7,575.1 137.9,568.1 140.1,560.6 142.2,553.6 144.4,546.1 146.6,539.1 148.8,532.7 151.0,525.2 153.2,518.8 155.4,510.7 157.6,503.2 159.8,495.7 162.0,487.7 164.1,480.2 166.3,472.7 168.5,464.6 170.7,457.1 172.9,449.6 175.1,442.1 177.3,433.0 179.5,425.5 181.7,416.9 183.8,409.4 186.0,402.4 188.2,395.5 190.4,390.7 192.6,385.3 194.8,379.9 197.0,375.6 199.2,371.4 201.4,368.7 203.6,365.5 205.7,361.7 207.9,358.5 210.1,356.3 212.3,352.1 214.5,349.4 216.7,345.1 218.9,341.9 221.1,338.7 223.3,334.9 225.4,330.6 227.6,327.9 229.8,325.3 232.0,322.0 234.2,319.4 236.4,315.1 238.6,312.4 240.8,307.6 243.0,302.7 245.1,298.4 247.3,294.2 249.5,289.9 251.7,285.6 253.9,281.3 256.1,277.0 258.3,273.3 260.5,269.5 262.7,266.8 264.9,263.6 267.0,261.5 269.2,259.3 271.4,258.2 273.6,256.6 275.8,254.0 278.0,253.4 280.2,252.3 282.4,252.3 284.6,248.6 286.7,244.8 288.9,241.6 291.1,238.9 293.3,235.7 295.5,234.1 297.7,232.0 299.9,230.4 302.1,229.3 304.3,228.8 306.4,228.2 308.6,227.2 310.8,227.7 313.0,228.8 315.2,230.9 317.4,232.5 319.6,233.0 321.8,234.7 324.0,234.7 326.2,234.7 328.3,235.7 330.5,236.3 332.7,236.8 334.9,237.3 337.1,239.5 339.3,241.1 341.5,244.3 343.7,246.4 345.9,248.1 348.0,251.8 350.2,252.9 352.4,255.0 354.6,256.1 356.8,257.7 359.0,260.4 361.2,262.5 363.4,265.7 365.6,268.4 367.8,272.2 369.9,276.5 372.1,279.7 374.3,284.0 376.5,288.8 378.7,292.0 380.9,295.2 383.1,297.9 385.3,300.6 387.5,303.3 389.6,304.9 391.8,306.0 394.0,307.0 396.2,307.0 398.4,306.5 400.6,306.5 402.8,307.6 405.0,308.1 407.2,308.1 409.3,310.2 411.5,311.9 413.7,315.1 415.9,317.2 418.1,319.9 420.3,321.5 422.5,323.1 424.7,325.3 426.9,326.9 429.1,327.9 431.2,327.4 433.4,327.9 435.6,328.5 437.8,327.9 440.0,327.4 442.2,327.4 444.4,327.4 446.6,326.9 448.8,326.3 450.9,322.6 453.1,319.9 455.3,317.7 457.5,314.0 459.7,309.7 461.9,306.0 464.1,303.3 466.3,299.0 468.5,295.2 470.7,290.9 472.8,285.0 475.0,279.7 477.2,274.9 479.4,269.5 481.6,264.7 483.8,260.4 486.0,256.6 488.2,254.0 490.4,250.2 492.5,247.0 494.7,244.3 496.9,240.6 499.1,237.3 501.3,233.6 503.5,229.8 505.7,226.1 507.9,222.9 510.1,219.6 512.2,217.5 514.4,215.9 516.6,213.7 518.8,212.7 521.0,211.1 523.2,210.0 525.4,208.4 527.6,207.3 529.8,206.8 532.0,206.2 534.1,205.2 536.3,204.6 538.5,204.6 540.7,203.0 542.9,202.0 545.1,200.3 547.3,199.3 549.5,198.7 551.7,198.2 553.8,197.7 556.0,198.2 558.2,198.7 560.4,198.7 562.6,199.3 564.8,199.8 567.0,200.9 569.2,201.4 571.4,201.4 573.6,203.0 575.7,204.6 577.9,206.8 580.1,210.0 582.3,211.6 584.5,213.7 586.7,215.9 588.9,219.1 591.1,221.3 593.3,222.3 595.4,225.0 597.6,228.2 599.8,230.9 602.0,234.1 604.2,236.8 606.4,241.6 608.6,244.8 610.8,249.1 613.0,251.8 615.1,254.0 617.3,256.1 619.5,260.4 621.7,262.5 623.9,265.7 626.1,268.4 628.3,271.1 630.5,274.3 632.7,277.5 634.9,280.8 637.0,285.0 639.2,288.3 641.4,291.5 643.6,295.8 645.8,301.1 648.0,305.4 650.2,310.2 652.4,315.1 654.6,319.4 656.7,325.3 658.9,331.7 661.1,338.1 663.3,345.1 665.5,351.5 667.7,357.4 669.9,364.4 672.1,369.7 674.3,375.1 676.4,379.4 678.6,384.8 680.8,388.0 683.0,393.3 685.2,398.2 687.4,401.9 689.6,405.1 691.8,408.9 694.0,412.6 696.2,414.8 698.3,418.0 700.5,419.1 702.7,419.6 704.9,419.6 707.1,419.1 709.3,418.5 711.5,418.5 713.7,419.1 715.9,420.1 718.0,421.2 720.2,421.2 722.4,421.7 724.6,422.3 726.8,423.4 729.0,424.4 731.2,426.6 733.4,428.2 735.6,430.3 737.8,433.0 739.9,435.7 742.1,438.9 744.3,442.7 746.5,447.5 748.7,451.8 750.9,456.1 753.1,460.3 755.3,463.0 757.5,465.2 759.6,467.3 761.8,468.9 764.0,468.9 766.2,469.5 768.4,468.9 770.6,468.4 772.8,468.4 775.0,468.9 777.2,467.8 779.3,466.2 781.5,465.2 783.7,464.1 785.9,464.1 788.1,463.6 790.3,463.6 792.5,463.6 794.7,464.1 796.9,465.7 799.1,468.4 801.2,471.1 803.4,474.8 805.6,478.0 807.8,480.2 810.0,481.8 812.2,483.4 814.4,486.6 816.6,486.1 818.8,488.2 820.9,489.8 823.1,490.4 825.3,491.4 827.5,493.6 829.7,495.2 831.9,496.8 834.1,496.8 836.3,497.3 838.5,497.9 840.7,496.8 842.8,497.3 845.0,496.3 847.2,495.7 849.4,495.2 851.6,494.1 853.8,493.6 856.0,492.5 858.2,492.0 860.4,490.9 862.5,489.3 864.7,488.8 866.9,486.6 869.1,486.1 871.3,483.9 873.5,483.4 875.7,481.3 877.9,479.6 880.1,477.5 882.2,475.9 884.4,474.3 886.6,472.1 888.8,470.5 891.0,467.3 893.2,465.7 895.4,463.6 897.6,460.9 899.8,458.7 902.0,456.1 904.1,454.4 906.3,451.2 908.5,448.6 910.7,445.3 912.9,442.7 915.1,439.4 917.3,436.8 919.5,434.1 921.7,429.8 923.8,427.1 926.0,423.4 928.2,421.2 930.4,416.4 932.6,412.6 934.8,407.8 937.0,404.1 939.2,401.9 941.4,398.7 943.6,395.5 945.7,394.9 947.9,392.8 950.1,391.7 952.3,391.7 954.5,391.2 956.7,390.1 958.9,389.0 961.1,388.0 963.3,387.4 965.4,386.9 967.6,386.9 969.8,385.8 972.0,385.8 974.2,384.8 976.4,381.5 978.6,377.8 980.8,373.5 983.0,370.8 985.1,367.1 987.3,364.4 989.5,361.2 991.7,359.0 993.9,356.3 996.1,354.2 998.3,353.7 1000.5,352.6 1002.7,352.1 1004.9,351.0 1007.0,349.4 1009.2,349.4 1011.4,348.8 1013.6,344.0 1015.8,340.3 1018.0,336.0 1020.2,332.2 1022.4,329.5 1024.6,327.4 1026.7,325.8 1028.9,323.6 1031.1,324.2 1033.3,323.1 1035.5,323.6 1037.7,325.3 1039.9,326.3 1042.1,328.5 1044.3,330.1 1046.4,333.3 1048.6,336.0 1050.8,337.0 1053.0,338.7 1055.2,340.3 1057.4,341.9 1059.6,342.9 1061.8,344.0 1064.0,346.7 1066.2,349.4 1068.3,351.0 1070.5,354.2 1072.7,358.0 1074.9,361.2 1077.1,366.0 1079.3,369.7 1081.5,370.8 1083.7,372.4 1085.9,373.5 1088.0,374.0 1090.2,374.6 1092.4,375.1 1094.6,375.1 1096.8,376.7 1099.0,377.3 1101.2,378.3 1103.4,379.9 1105.6,382.1 1107.8,383.7 1109.9,385.3 1112.1,386.4 1114.3,386.4 1116.5,386.9 1118.7,389.0 1120.9,389.0 1123.1,390.1 1125.3,391.7 1127.5,391.7 1129.6,391.7 1131.8,391.7 1134.0,390.1 1136.2,390.1 1138.4,389.0 1140.6,389.0 1142.8,389.6 1145.0,390.1 1147.2,391.2 1149.3,392.3 1151.5,393.3 1153.7,394.9 1155.9,396.6 1158.1,398.2 1160.3,400.8 1162.5,403.0 1164.7,404.6 1166.9,407.8 1169.1,410.0 1171.2,413.2 1173.4,416.9 1175.6,420.1 1177.8,422.8" fill="none" stroke="#a9a9a9" stroke-width="2" stroke-linejoin="round"/>
<polyline points="350.2,477.5 352.4,475.9 354.6,473.7 356.8,473.2 359.0,471.1 361.2,469.5 363.4,464.6 365.6,459.3 367.8,453.4 369.9,448.6 372.1,442.7 374.3,437.8 376.5,433.0 378.7,428.2 380.9,421.7 383.1,416.9 385.3,407.8 387.5,400.8 389.6,393.9 391.8,386.9 394.0,379.4 396.2,373.0 398.4,366.0 400.6,360.1 402.8,354.2 405.0,348.8 407.2,345.1 409.3,340.8 411.5,336.0 413.7,332.8 415.9,327.9 418.1,320.4 420.3,315.6 422.5,310.2 424.7,304.9 426.9,300.1 429.1,295.8 431.2,292.0 433.4,288.3 435.6,285.0 437.8,280.8 440.0,278.1 442.2,274.3 444.4,270.6 446.6,266.3 448.8,263.1 450.9,260.9 453.1,258.2 455.3,256.1 457.5,253.4 459.7,250.7 461.9,249.1 464.1,246.4 466.3,244.8 468.5,243.2 470.7,241.6 472.8,239.5 475.0,237.9 477.2,236.8 479.4,228.8 481.6,222.3 483.8,216.4 486.0,211.1 488.2,204.6 490.4,200.3 492.5,195.5 494.7,191.2 496.9,187.5 499.1,184.3 501.3,181.6 503.5,180.0 505.7,177.8 507.9,176.8 510.1,176.2 512.2,175.2 514.4,174.6 516.6,174.1 518.8,174.6 521.0,174.6 523.2,176.2 525.4,178.4 527.6,180.0 529.8,182.1 532.0,185.3 534.1,188.6 536.3,191.8 538.5,193.9 540.7,195.5 542.9,197.1 545.1,199.3 547.3,201.4 549.5,203.6 551.7,205.7 553.8,208.4 556.0,210.5 558.2,213.2 560.4,215.4 562.6,211.1 564.8,205.7 567.0,202.0 569.2,199.3 571.4,196.1 573.6,192.8 575.7,191.2 577.9,187.5 580.1,184.3 582.3,182.1 584.5,178.9 586.7,177.3 588.9,174.1 591.1,171.9 593.3,170.9 595.4,169.3 597.6,167.6 599.8,166.6 602.0,166.0 604.2,166.6 606.4,167.1 608.6,168.7 610.8,169.8 613.0,172.5 615.1,175.2 617.3,179.4 619.5,182.7 621.7,186.4 623.9,190.2 626.1,193.9 628.3,196.6 630.5,199.3 632.7,202.5 634.9,205.7 637.0,207.9 639.2,209.5 641.4,212.1 643.6,213.7 645.8,214.8 648.0,215.4 650.2,216.4 652.4,217.5 654.6,217.5 656.7,217.0 658.9,217.0 661.1,215.4 663.3,214.8 665.5,213.7 667.7,213.2 669.9,212.7 672.1,212.1 674.3,212.7 676.4,212.7 678.6,213.2 680.8,213.2 683.0,214.3 685.2,211.1 687.4,209.5 689.6,207.3 691.8,206.8 694.0,205.2 696.2,204.1 698.3,202.5 700.5,202.5 702.7,201.4 704.9,200.9 707.1,199.8 709.3,199.8 711.5,198.7 713.7,198.7 715.9,198.2 718.0,197.1 720.2,198.2 722.4,198.2 724.6,196.6 726.8,195.5 729.0,194.5 731.2,193.4 733.4,191.8 735.6,190.2 737.8,188.0 739.9,186.4 742.1,184.3 744.3,182.1 746.5,180.5 748.7,178.4 750.9,176.8 753.1,175.7 755.3,175.2 757.5,175.2 759.6,175.7 761.8,177.3 764.0,176.8 766.2,177.8 768.4,178.9 770.6,178.9 772.8,179.4 775.0,179.4 777.2,180.5 779.3,181.0 781.5,181.6 783.7,182.1 785.9,182.7 788.1,183.7 790.3,183.7 792.5,185.9 794.7,188.0 796.9,191.2 799.1,192.3 801.2,192.3 803.4,192.3 805.6,192.3 807.8,193.9 810.0,194.5 812.2,195.0 814.4,196.6 816.6,198.2 818.8,199.8 820.9,202.5 823.1,204.1 825.3,207.3 827.5,211.1 829.7,212.7 831.9,215.9 834.1,220.2 836.3,223.4 838.5,227.7 840.7,232.0 842.8,236.8 845.0,241.6 847.2,247.5 849.4,254.0 851.6,259.9 853.8,267.9 856.0,274.9 858.2,284.5 860.4,288.3 862.5,293.1 864.7,298.4 866.9,304.9 869.1,309.7 871.3,314.5 873.5,318.8 875.7,324.7 877.9,330.1 880.1,335.4 882.2,340.8 884.4,346.2 886.6,351.5 888.8,355.3 891.0,360.6 893.2,365.5 895.4,371.4 897.6,377.8 899.8,383.1 902.0,389.0 904.1,393.9 906.3,397.6 908.5,401.4 910.7,405.1 912.9,407.8 915.1,411.6 917.3,415.3 919.5,419.1 921.7,421.7 923.8,425.0 926.0,425.5 928.2,427.1 930.4,428.2 932.6,429.3 934.8,431.9 937.0,434.1 939.2,436.8 941.4,437.8 943.6,437.8 945.7,438.4 947.9,438.9 950.1,440.0 952.3,439.4 954.5,439.4 956.7,438.9 958.9,438.4 961.1,437.3 963.3,437.3 965.4,438.4 967.6,437.8 969.8,437.8 972.0,437.8 974.2,437.3 976.4,437.3 978.6,437.8 980.8,435.7 983.0,434.1 985.1,433.5 987.3,433.0 989.5,432.5 991.7,431.9 993.9,430.9 996.1,429.8 998.3,429.3 1000.5,428.7 1002.7,428.2 1004.9,427.1 1007.0,427.1 1009.2,427.6 1011.4,429.8 1013.6,430.9 1015.8,433.5" fill="none" stroke="#ff1493" stroke-width="2" stroke-linejoin="round"/>
<polyline points="838.5,412.1 840.7,407.8 842.8,404.1 845.0,401.9 847.2,398.7 849.4,396.6 851.6,393.3 853.8,391.2 856.0,388.5 858.2,383.7 860.4,380.5 862.5,377.8 864.7,375.1 866.9,371.9 869.1,370.8 871.3,369.7 873.5,368.7 875.7,368.1 877.9,369.7 880.1,370.3 882.2,372.4 884.4,374.0 886.6,375.1 888.8,375.6 891.0,377.3 893.2,378.3 895.4,381.0 897.6,384.2 899.8,388.0 902.0,390.1 904.1,392.3 906.3,394.9 908.5,397.1 910.7,399.2 912.9,399.2 915.1,400.8 917.3,401.9 919.5,403.5 921.7,406.2 923.8,408.9 926.0,411.0 928.2,413.7 930.4,416.4 932.6,418.0 934.8,420.7 937.0,421.7 939.2,423.4 941.4,425.0 943.6,426.6 945.7,428.2 947.9,429.8 950.1,430.9 952.3,431.4 954.5,433.0 956.7,433.5 958.9,434.1 961.1,434.1 963.3,434.6 965.4,435.1 967.6,435.7 969.8,435.1 972.0,435.7 974.2,435.7 976.4,435.7 978.6,436.8 980.8,438.9 983.0,438.4 985.1,437.3 987.3,436.8 989.5,436.8 991.7,436.2 993.9,435.1 996.1,434.6 998.3,435.1 1000.5,434.6 1002.7,434.1 1004.9,433.5 1007.0,433.0 1009.2,432.5 1011.4,430.3 1013.6,429.8 1015.8,428.2 1018.0,427.1 1020.2,426.0 1022.4,424.4 1024.6,422.8 1026.7,420.7 1028.9,419.1 1031.1,417.5 1033.3,415.8 1035.5,414.8 1037.7,413.7 1039.9,413.2 1042.1,413.2 1044.3,412.1 1046.4,411.6 1048.6,412.1 1050.8,412.6 1053.0,413.2 1055.2,413.2 1057.4,412.6 1059.6,413.7 1061.8,414.2 1064.0,415.3 1066.2,415.3 1068.3,416.9 1070.5,418.0 1072.7,418.5 1074.9,419.6 1077.1,420.7 1079.3,419.6 1081.5,418.5 1083.7,419.1 1085.9,417.5 1088.0,416.4 1090.2,414.2 1092.4,413.2 1094.6,412.1 1096.8,410.5 1099.0,409.4 1101.2,408.3 1103.4,407.8 1105.6,406.7 1107.8,406.2 1109.9,404.6 1112.1,403.5 1114.3,400.8 1116.5,398.2 1118.7,394.9 1120.9,392.3 1123.1,390.1 1125.3,388.0 1127.5,386.4 1129.6,384.8 1131.8,384.2 1134.0,384.2 1136.2,384.8 1138.4,385.3 1140.6,385.8 1142.8,385.3 1145.0,385.8 1147.2,387.4 1149.3,388.0 1151.5,390.1 1153.7,391.7 1155.9,394.4 1158.1,397.1 1160.3,400.8 1162.5,404.1 1164.7,407.3 1166.9,410.0 1169.1,413.7 1171.2,418.0 1173.4,422.3 1175.6,425.5 1177.8,428.2" fill="none" stroke="#e6beff" stroke-width="2" stroke-linejoin="round"/>
<line x1="70" y1="50" x2="70" y2="645" stroke="#555555"/>
<line x1="70" y1="645" x2="1180" y2="645" stroke="#555555"/>
<rect x="1200" y="57" width="16" height="3" fill="#e6194b"/>
<text x="1222" y="62" fill="#cccccc" font-size="12">Nico Rosberg</text>
<rect x="1200" y="79" width="16" height="3" fill="#3cb44b"/>
<text x="1222" y="84" fill="#cccccc" font-size="12">Max Verstappen</text>
<rect x="1200" y="101" width="16" height="3" fill="#4363d8"/>
<text x="1222" y="106" fill="#cccccc" font-size="12">George Russell</text>
<rect x="1200" y="123" width="16" height="3" fill="#f58231"/>
<text x="1222" y="128" fill="#cccccc" font-size="12">Oscar Piastri</text>
<rect x="1200" y="145" width="16" height="3" fill="#911eb4"/>
<text x="1222" y="150" fill="#cccccc" font-size="12">Lando Norris</text>
<rect x="1200" y="167" width="16" height="3" fill="#42d4f4"/>
<text x="1222" y="172" fill="#cccccc" font-size="12">Charles Leclerc</text>
<rect x="1200" y="189" width="16" height="3" fill="#f032e6"/>
<text x="1222" y="194" fill="#cccccc" font-size="12">Mark Webber</text>
<rect x="1200" y="211" width="16" height="3" fill="#bfef45"/>
<text x="1222" y="216" fill="#cccccc" font-size="12">Lewis Hamilton</text>
<rect x="1200" y="233" width="16" height="3" fill="#ff6b6b"/>
<text x="1222" y="238" fill="#cccccc" font-size="12">Andrea Kimi Antonelli</text>
<rect x="1200" y="255" width="16" height="3" fill="#469990"/>
<text x="1222" y="260" fill="#cccccc" font-size="12">Mika Häkkinen</text>
<rect x="1200" y="277" width="16" height="3" fill="#9a6324"/>
<text x="1222" y="282" fill="#cccccc" font-size="12">Juan Pablo Montoya</text>
<rect x="1200" y="299" width="16" height="3" fill="#ffd700"/>
<text x="1222" y="304" fill="#cccccc" font-size="12">Oliver Bearman</text>
<rect x="1200" y="321" width="16" height="3" fill="#800000"/>
<text x="1222" y="326" fill="#cccccc" font-size="12">Carlos Sainz</text>
<rect x="1200" y="343" width="16" height="3" fill="#aaffc3"/>
<text x="1222" y="348" fill="#cccccc" font-size="12">Nick Heidfeld</text>
<rect x="1200" y="365" width="16" height="3" fill="#808000"/>
<text x="1222" y="370" fill="#cccccc" font-size="12">Liam Lawson</text>
<rect x="1200" y="387" width="16" height="3" fill="#ffd8b1"/>
<text x="1222" y="392" fill="#cccccc" font-size="12">Nico Hülkenberg</text>
<rect x="1200" y="409" width="16" height="3" fill="#000075"/>
<text x="1222" y="414" fill="#cccccc" font-size="12">Isack Hadjar</text>
<rect x="1200" y="431" width="16" height="3" fill="#a9a9a9"/>
<text x="1222" y="436" fill="#cccccc" font-size="12">Fernando Alonso</text>
<rect x="1200" y="453" width="16" height="3" fill="#ff1493"/>
<text x="1222" y="458" fill="#cccccc" font-size="12">Sebastian Vettel</text>
<rect x="1200" y="475" width="16" height="3" fill="#e6beff"/>
<text x="1222" y="480" fill="#cccccc" font-size="12">Alexander Albon</text>
</svg>