<svg xmlns="http://www.w3.org/2000/svg" viewBox="0 0 1400 700" font-family="sans-serif">
<rect width="1400" height="700" fill="#1a1a2e"/>
<text x="625" y="28" fill="#ffffff" font-size="15" text-anchor="middle">2000–2026 F1 Driver Ratings — μ − 2σ smoothed</text>
<line x1="70" y1="636.2" x2="1180" y2="636.2" stroke="#ffffff" stroke-opacity="0.08"/>
<text x="64" y="640.2" fill="#777777" font-size="11" text-anchor="end">-2</text>
<line x1="70" y1="544.9" x2="1180" y2="544.9" stroke="#ffffff" stroke-opacity="0.08"/>
<text x="64" y="548.9" fill="#777777" font-size="11" text-anchor="end">-1</text>
<line x1="70" y1="453.6" x2="1180" y2="453.6" stroke="#ffffff" stroke-opacity="0.08"/>
<text x="64" y="457.6" fill="#777777" font-size="11" text-anchor="end">0</text>
<line x1="70" y1="362.4" x2="1180" y2="362.4" stroke="#ffffff" stroke-opacity="0.08"/>
<text x="64" y="366.4" fill="#777777" font-size="11" text-anchor="end">1</text>
<line x1="70" y1="271.1" x2="1180" y2="271.1" stroke="#ffffff" stroke-opacity="0.08"/>
<text x="64" y="275.1" fill="#777777" font-size="11" text-anchor="end">2</text>
<line x1="70" y1="179.8" x2="1180" y2="179.8" stroke="#ffffff" stroke-opacity="0.08"/>
<text x="64" y="183.8" fill="#777777" font-size="11" text-anchor="end">3</text>
<line x1="70" y1="88.6" x2="1180" y2="88.6" stroke="#ffffff" stroke-opacity="0.08"/>
<text x="64" y="92.6" fill="#777777" font-size="11" text-anchor="end">4</text>
<line x1="70" y1="453.6" x2="1180" y2="453.6" stroke="#ffffff" stroke-opacity="0.25" stroke-dasharray="4,4"/>
<line x1="70.0" y1="50" x2="70.0" y2="645" stroke="#ffffff" stroke-opacity="0.2"/>
<text x="70.0" y="665" fill="#aaaaaa" font-size="12" text-anchor="middle">2000</text>
<line x1="107.2" y1="50" x2="107.2" y2="645" stroke="#ffffff" stroke-opacity="0.2"/>
<text x="107.2" y="665" fill="#aaaaaa" font-size="12" text-anchor="middle">2001</text>
<line x1="144.4" y1="50" x2="144.4" y2="645" stroke="#ffffff" stroke-opacity="0.2"/>
<text x="144.4" y="665" fill="#aaaaaa" font-size="12" text-anchor="middle">2002</text>
<line x1="181.7" y1="50" x2="181.7" y2="645" stroke="#ffffff" stroke-opacity="0.2"/>
<text x="181.7" y="665" fill="#aaaaaa" font-size="12" text-anchor="middle">2003</text>
<line x1="216.7" y1="50" x2="216.7" y2="645" stroke="#ffffff" stroke-opacity="0.2"/>
<text x="216.7" y="665" fill="#aaaaaa" font-size="12" text-anchor="middle">2004</text>
<line x1="256.1" y1="50" x2="256.1" y2="645" stroke="#ffffff" stroke-opacity="0.2"/>
<text x="256.1" y="665" fill="#aaaaaa" font-size="12" text-anchor="middle">2005</text>
<line x1="297.7" y1="50" x2="297.7" y2="645" stroke="#ffffff" stroke-opacity="0.2"/>
<text x="297.7" y="665" fill="#aaaaaa" font-size="12" text-anchor="middle">2006</text>
<line x1="337.1" y1="50" x2="337.1" y2="645" stroke="#ffffff" stroke-opacity="0.2"/>
<text x="337.1" y="665" fill="#aaaaaa" font-size="12" text-anchor="middle">2007</text>
<line x1="374.3" y1="50" x2="374.3" y2="645" stroke="#ffffff" stroke-opacity="0.2"/>
<text x="374.3" y="665" fill="#aaaaaa" font-size="12" text-anchor="middle">2008</text>
<line x1="413.7" y1="50" x2="413.7" y2="645" stroke="#ffffff" stroke-opacity="0.2"/>
<text x="413.7" y="665" fill="#aaaaaa" font-size="12" text-anchor="middle">2009</text>
<line x1="450.9" y1="50" x2="450.9" y2="645" stroke="#ffffff" stroke-opacity="0.2"/>
<text x="450.9" y="665" fill="#aaaaaa" font-size="12" text-anchor="middle">2010</text>
<line x1="492.5" y1="50" x2="492.5" y2="645" stroke="#ffffff" stroke-opacity="0.2"/>
<text x="492.5" y="665" fill="#aaaaaa" font-size="12" text-anchor="middle">2011</text>
<line x1="534.1" y1="50" x2="534.1" y2="645" stroke="#ffffff" stroke-opacity="0.2"/>
<text x="534.1" y="665" fill="#aaaaaa" font-size="12" text-anchor="middle">2012</text>
<line x1="577.9" y1="50" x2="577.9" y2="645" stroke="#ffffff" stroke-opacity="0.2"/>
<text x="577.9" y="665" fill="#aaaaaa" font-size="12" text-anchor="middle">2013</text>
<line x1="619.5" y1="50" x2="619.5" y2="645" stroke="#ffffff" stroke-opacity="0.2"/>
<text x="619.5" y="665" fill="#aaaaaa" font-size="12" text-anchor="middle">2014</text>
<line x1="661.1" y1="50" x2="661.1" y2="645" stroke="#ffffff" stroke-opacity="0.2"/>
<text x="661.1" y="665" fill="#aaaaaa" font-size="12" text-anchor="middle">2015</text>
<line x1="702.7" y1="50" x2="702.7" y2="645" stroke="#ffffff" stroke-opacity="0.2"/>
<text x="702.7" y="665" fill="#aaaaaa" font-size="12" text-anchor="middle">2016</text>
<line x1="748.7" y1="50" x2="748.7" y2="645" stroke="#ffffff" stroke-opacity="0.2"/>
<text x="748.7" y="665" fill="#aaaaaa" font-size="12" text-anchor="middle">2017</text>
<line x1="792.5" y1="50" x2="792.5" y2="645" stroke="#ffffff" stroke-opacity="0.2"/>
<text x="792.5" y="665" fill="#aaaaaa" font-size="12" text-anchor="middle">2018</text>
<line x1="838.5" y1="50" x2="838.5" y2="645" stroke="#ffffff" stroke-opacity="0.2"/>
<text x="838.5" y="665" fill="#aaaaaa" font-size="12" text-anchor="middle">2019</text>
<line x1="884.4" y1="50" x2="884.4" y2="645" stroke="#ffffff" stroke-opacity="0.2"/>
<text x="884.4" y="665" fill="#aaaaaa" font-size="12" text-anchor="middle">2020</text>
<line x1="921.7" y1="50" x2="921.7" y2="645" stroke="#ffffff" stroke-opacity="0.2"/>
<text x="921.7" y="665" fill="#aaaaaa" font-size="12" text-anchor="middle">2021</text>
<line x1="969.8" y1="50" x2="969.8" y2="645" stroke="#ffffff" stroke-opacity="0.2"/>
<text x="969.8" y="665" fill="#aaaaaa" font-size="12" text-anchor="middle">2022</text>
<line x1="1018.0" y1="50" x2="1018.0" y2="645" stroke="#ffffff" stroke-opacity="0.2"/>
<text x="1018.0" y="665" fill="#aaaaaa" font-size="12" text-anchor="middle">2023</text>
<line x1="1066.2" y1="50" x2="1066.2" y2="645" stroke="#ffffff" stroke-opacity="0.2"/>
<text x="1066.2" y="665" fill="#aaaaaa" font-size="12" text-anchor="middle">2024</text>
<line x1="1118.7" y1="50" x2="1118.7" y2="645" stroke="#ffffff" stroke-opacity="0.2"/>
<text x="1118.7" y="665" fill="#aaaaaa" font-size="12" text-anchor="middle">2025</text>
<line x1="1171.2" y1="50" x2="1171.2" y2="645" stroke="#ffffff" stroke-opacity="0.2"/>
<text x="1171.2" y="665" fill="#aaaaaa" font-size="12" text-anchor="middle">2026</text>
<polyline points="297.7,487.7 299.9,486.3 302.1,484.7 304.3,483.0 306.4,481.9 308.6,481.7 310.8,482.1 313.0,482.3 315.2,483.3 317.4,484.1 319.6,483.9 321.8,482.5 324.0,481.0 326.2,479.2 328.3,477.3 330.5,475.1 332.7,472.7 334.9,470.7 337.1,468.5 339.3,466.8 341.5,465.0 343.7,463.5 345.9,462.6 348.0,462.0 350.2,461.3 352.4,458.6 354.6,456.3 356.8,453.8 359.0,451.1 361.2,448.9 363.4,447.4 365.6,446.4 367.8,446.0 369.9,445.4 372.1,442.6 374.3,440.4 376.5,438.9 378.7,436.6 380.9,434.9 383.1,432.9 385.3,431.4 387.5,429.5 389.6,427.6 391.8,424.9 394.0,422.4 396.2,420.2 398.4,417.8 400.6,415.7 402.8,413.7 405.0,411.2 407.2,409.4 409.3,407.6 411.5,404.7 413.7,401.6 415.9,398.8 418.1,396.5 420.3,393.1 422.5,390.0 424.7,387.2 426.9,384.8 429.1,382.9 431.2,381.5 433.4,380.7 435.6,380.4 437.8,380.7 440.0,381.0 442.2,378.2 444.4,374.7 446.6,371.7 448.8,368.3 450.9,365.0 453.1,362.2 455.3,359.7 457.5,357.8 459.7,356.5 461.9,354.5 464.1,352.6 466.3,351.0 468.5,349.8 470.7,348.5 472.8,347.7 475.0,347.2 477.2,346.4 479.4,345.9 481.6,345.8 483.8,346.3 486.0,346.4 488.2,346.3 490.4,346.7 492.5,347.6 494.7,348.3 496.9,348.2 499.1,348.6 501.3,349.5 503.5,350.8 505.7,350.9 507.9,349.9 510.1,349.1 512.2,348.6 514.4,348.3 516.6,347.8 518.8,347.6 521.0,347.1 523.2,346.8 525.4,346.3 527.6,345.7 529.8,345.6 532.0,345.8 534.1,346.1 536.3,344.4 538.5,342.7 540.7,341.7 542.9,341.3 545.1,341.4 547.3,342.2 549.5,343.4 551.7,345.1 553.8,345.1 556.0,345.1 558.2,345.2 560.4,344.5 562.6,344.1 564.8,344.3 567.0,344.1 569.2,343.5 571.4,342.8 573.6,341.7 575.7,339.9 577.9,335.7 580.1,331.2 582.3,327.1 584.5,322.8 586.7,318.7 588.9,315.0 591.1,312.0 593.3,309.3 595.4,307.4 597.6,305.3 599.8,297.4 602.0,289.9 604.2,282.8 606.4,276.0 608.6,269.4 610.8,262.4 613.0,256.1 615.1,250.2 617.3,243.5 619.5,236.8 621.7,230.8 623.9,225.5 626.1,220.7 628.3,216.6 630.5,213.0 632.7,210.1 634.9,207.8 637.0,206.0 639.2,204.1 641.4,202.9 643.6,201.9 645.8,201.4 648.0,201.4 650.2,201.1 652.4,201.5 654.6,202.4 656.7,203.8 658.9,206.0 661.1,203.5 663.3,201.5 665.5,199.7 667.7,198.4 669.9,197.4 672.1,197.1 674.3,197.5 676.4,198.4 678.6,200.0 680.8,202.0 683.0,203.2 685.2,204.9 687.4,199.6 689.6,193.8 691.8,188.4 694.0,182.9 696.2,177.6 698.3,173.1 700.5,169.2 702.7,166.0 704.9,163.5 707.1,161.6 709.3,160.4 711.5,159.9 713.7,159.1 715.9,156.5 718.0,153.3 720.2,150.8 722.4,147.9 724.6,145.2 726.8,143.0 729.0,140.6 731.2,138.9 733.4,138.0 735.6,137.7 737.8,137.3 739.9,137.7 742.1,138.4 744.3,139.8 746.5,141.7" fill="none" stroke="#e6194b" stroke-width="2" stroke-linejoin="round"/>
<polyline points="663.3,402.5 665.5,400.3 667.7,395.6 669.9,390.8 672.1,386.3 674.3,381.7 676.4,376.2 678.6,371.0 680.8,365.7 683.0,361.2 685.2,357.1 687.4,353.0 689.6,348.9 691.8,345.1 694.0,341.0 696.2,337.4 698.3,333.5 700.5,329.5 702.7,323.4 704.9,316.9 707.1,310.7 709.3,305.0 711.5,299.0 713.7,293.8 715.9,288.3 718.0,283.4 720.2,278.5 722.4,274.3 724.6,270.8 726.8,267.6 729.0,265.1 731.2,261.4 733.4,257.7 735.6,253.9 737.8,250.9 739.9,248.5 742.1,245.9 744.3,243.8 746.5,242.3 748.7,241.2 750.9,240.1 753.1,239.5 755.3,238.7 757.5,238.1 759.6,237.3 761.8,236.8 764.0,236.1 766.2,235.2 768.4,234.1 770.6,233.4 772.8,232.7 775.0,231.8 777.2,228.9 779.3,225.7 781.5,223.3 783.7,221.4 785.9,219.6 788.1,218.4 790.3,217.4 792.5,216.2 794.7,214.6 796.9,212.8 799.1,211.1 801.2,209.1 803.4,207.6 805.6,203.9 807.8,200.7 810.0,198.1 812.2,196.1 814.4,193.8 816.6,191.2 818.8,188.4 820.9,185.7 823.1,182.5 825.3,179.9 827.5,177.1 829.7,174.7 831.9,172.8 834.1,171.6 836.3,171.0 838.5,170.5 840.7,170.4 842.8,170.3 845.0,170.1 847.2,169.8 849.4,169.8 851.6,169.7 853.8,169.2 856.0,168.8 858.2,169.0 860.4,168.7 862.5,169.0 864.7,169.7 866.9,170.2 869.1,168.7 871.3,167.6 873.5,166.1 875.7,164.3 877.9,161.6 880.1,158.9 882.2,156.9 884.4,155.2 886.6,153.4 888.8,151.4 891.0,149.9 893.2,148.8 895.4,148.3 897.6,148.1 899.8,148.0 902.0,147.7 904.1,147.1 906.3,147.0 908.5,147.0 910.7,147.1 912.9,146.9 915.1,145.8 917.3,145.0 919.5,144.0 921.7,143.6 923.8,143.6 926.0,144.2 928.2,145.2 930.4,146.6 932.6,148.6 934.8,150.4 937.0,152.8 939.2,155.8 941.4,159.4 943.6,162.8 945.7,161.8 947.9,161.5 950.1,161.7 952.3,161.6 954.5,161.9 956.7,162.7 958.9,164.0 961.1,165.9 963.3,168.1 965.4,170.7 967.6,173.6 969.8,177.2 972.0,172.6 974.2,168.5 976.4,164.1 978.6,160.3 980.8,156.9 983.0,154.1 985.1,151.3 987.3,148.9 989.5,147.1 991.7,142.5 993.9,138.1 996.1,134.1 998.3,130.7 1000.5,127.7 1002.7,125.3 1004.9,123.4 1007.0,119.2 1009.2,115.5 1011.4,112.3 1013.6,109.6 1015.8,105.2 1018.0,101.4 1020.2,98.0 1022.4,94.7 1024.6,91.9 1026.7,89.1 1028.9,86.8 1031.1,84.9 1033.3,83.5 1035.5,82.5 1037.7,82.0 1039.9,81.9 1042.1,82.2 1044.3,83.0 1046.4,84.2 1048.6,85.8 1050.8,86.0 1053.0,86.6 1055.2,87.5 1057.4,88.8 1059.6,90.6 1061.8,92.6 1064.0,95.1 1066.2,98.1 1068.3,101.5 1070.5,105.3 1072.7,108.9 1074.9,112.9 1077.1,117.4 1079.3,122.1 1081.5,127.3 1083.7,130.5 1085.9,134.1 1088.0,138.3 1090.2,141.9 1092.4,145.7 1094.6,148.8 1096.8,151.8 1099.0,155.0 1101.2,157.3 1103.4,159.2 1105.6,161.4 1107.8,163.6 1109.9,165.1 1112.1,167.0 1114.3,168.6 1116.5,170.8 1118.7,172.1 1120.9,173.7 1123.1,174.9 1125.3,176.7 1127.5,177.7 1129.6,179.1 1131.8,180.6 1134.0,182.7 1136.2,184.9 1138.4,184.5 1140.6,184.5 1142.8,184.3 1145.0,183.7 1147.2,183.3 1149.3,181.3 1151.5,179.6 1153.7,178.6 1155.9,178.2 1158.1,178.3 1160.3,179.1 1162.5,180.3 1164.7,181.9 1166.9,184.1 1169.1,187.0 1171.2,190.7 1173.4,193.8 1175.6,196.8 1177.8,198.9 1180.0,201.3" fill="none" stroke="#3cb44b" stroke-width="2" stroke-linejoin="round"/>
<polyline points="838.5,569.6 840.7,567.3 842.8,564.5 845.0,561.7 847.2,558.7 849.4,555.4 851.6,552.6 853.8,550.1 856.0,547.3 858.2,544.6 860.4,542.5 862.5,541.0 864.7,539.9 866.9,539.2 869.1,539.2 871.3,538.9 873.5,538.3 875.7,536.9 877.9,535.5 880.1,533.8 882.2,532.8 884.4,531.7 886.6,530.4 888.8,528.7 891.0,526.3 893.2,524.5 895.4,522.0 897.6,519.2 899.8,516.1 902.0,513.4 904.1,510.6 906.3,506.4 908.5,501.9 910.7,497.7 912.9,493.3 915.1,488.8 917.3,484.8 919.5,481.4 921.7,478.0 923.8,475.0 926.0,471.7 928.2,468.0 930.4,464.3 932.6,460.4 934.8,456.3 937.0,452.6 939.2,448.7 941.4,445.1 943.6,441.8 945.7,439.1 947.9,437.1 950.1,432.9 952.3,428.9 954.5,425.4 956.7,421.7 958.9,416.9 961.1,411.3 963.3,405.4 965.4,396.7 967.6,387.8 969.8,378.6 972.0,370.2 974.2,362.5 976.4,355.5 978.6,349.3 980.8,343.6 983.0,338.7 985.1,334.3 987.3,330.7 989.5,327.7 991.7,324.5 993.9,321.9 996.1,319.9 998.3,318.7 1000.5,318.0 1002.7,318.1 1004.9,319.0 1007.0,316.6 1009.2,314.1 1011.4,312.1 1013.6,310.7 1015.8,310.0 1018.0,309.8 1020.2,309.7 1022.4,310.2 1024.6,310.5 1026.7,310.8 1028.9,311.7 1031.1,313.2 1033.3,315.4 1035.5,317.3 1037.7,319.6 1039.9,322.6 1042.1,326.3 1044.3,330.4 1046.4,330.3 1048.6,330.6 1050.8,328.2 1053.0,326.0 1055.2,324.3 1057.4,322.9 1059.6,321.9 1061.8,320.5 1064.0,319.3 1066.2,318.6 1068.3,318.5 1070.5,318.7 1072.7,314.7 1074.9,310.8 1077.1,307.3 1079.3,303.9 1081.5,300.7 1083.7,298.1 1085.9,296.0 1088.0,294.4 1090.2,293.5 1092.4,292.4 1094.6,291.4 1096.8,285.0 1099.0,278.7 1101.2,272.7 1103.4,267.4 1105.6,262.5 1107.8,257.8 1109.9,253.4 1112.1,249.6 1114.3,246.4 1116.5,243.6 1118.7,241.1 1120.9,239.1 1123.1,237.5 1125.3,236.2 1127.5,235.4 1129.6,234.9 1131.8,234.9 1134.0,234.6 1136.2,232.6 1138.4,230.9 1140.6,229.9 1142.8,228.7 1145.0,226.3 1147.2,224.0 1149.3,222.2 1151.5,220.5 1153.7,218.9 1155.9,217.7 1158.1,217.3 1160.3,216.9 1162.5,216.1 1164.7,215.6 1166.9,215.7 1169.1,215.8 1171.2,216.0 1173.4,217.0 1175.6,218.5 1177.8,220.6" fill="none" stroke="#4363d8" stroke-width="2" stroke-linejoin="round"/>
<polyline points="838.5,423.6 840.7,420.7 842.8,418.6 845.0,413.0 847.2,408.0 849.4,402.9 851.6,398.1 853.8,393.2 856.0,388.8 858.2,385.2 860.4,381.9 862.5,378.5 864.7,375.5 866.9,372.3 869.1,369.5 871.3,367.2 873.5,365.1 875.7,362.3 877.9,359.3 880.1,356.6 882.2,354.4 884.4,352.5 886.6,351.3 888.8,350.6 891.0,349.3 893.2,348.5 895.4,347.8 897.6,347.1 899.8,346.7 902.0,346.8 904.1,347.2 906.3,345.3 908.5,343.1 910.7,339.7 912.9,336.2 915.1,333.1 917.3,330.5 919.5,327.3 921.7,324.6 923.8,322.5 926.0,321.0 928.2,319.9 930.4,318.8 932.6,318.3 934.8,318.3 937.0,318.8 939.2,319.7 941.4,321.2 943.6,323.3 945.7,325.0 947.9,326.1 950.1,326.8 952.3,328.0 954.5,329.5 956.7,331.3 958.9,333.0 961.1,334.7 963.3,335.8 965.4,336.8 967.6,337.3 969.8,338.0 972.0,338.4 974.2,339.1 976.4,340.3 978.6,342.0 980.8,343.3 983.0,344.8 985.1,346.8 987.3,348.8 989.5,348.9 991.7,349.2 993.9,349.8 996.1,350.6 998.3,351.7 1000.5,352.1 1002.7,352.8 1004.9,353.8 1007.0,355.4 1009.2,356.9 1011.4,358.8 1013.6,360.8 1015.8,362.5 1018.0,364.6 1020.2,363.4 1022.4,359.6 1024.6,356.3 1026.7,353.0 1028.9,347.7 1031.1,342.6 1033.3,335.4 1035.5,327.2 1037.7,319.6 1039.9,312.7 1042.1,306.4 1044.3,300.2 1046.4,294.2 1048.6,288.3 1050.8,283.0 1053.0,278.4 1055.2,274.4 1057.4,271.0 1059.6,267.9 1061.8,265.4 1064.0,262.6 1066.2,260.2 1068.3,257.9 1070.5,255.1 1072.7,252.7 1074.9,250.5 1077.1,248.9 1079.3,248.1 1081.5,248.0 1083.7,248.4 1085.9,249.4 1088.0,251.2 1090.2,246.6 1092.4,242.5 1094.6,239.0 1096.8,235.9 1099.0,233.4 1101.2,231.5 1103.4,230.1 1105.6,229.3 1107.8,228.9 1109.9,229.1 1112.1,229.3 1114.3,229.7 1116.5,228.3 1118.7,227.6 1120.9,227.6 1123.1,228.1 1125.3,229.2 1127.5,230.9 1129.6,233.0 1131.8,235.8 1134.0,239.3 1136.2,243.6 1138.4,248.6 1140.6,247.8 1142.8,247.7 1145.0,248.2 1147.2,249.5 1149.3,251.4 1151.5,247.6 1153.7,244.5 1155.9,241.2 1158.1,238.6 1160.3,236.7 1162.5,235.6 1164.7,235.2 1166.9,234.8 1169.1,234.8 1171.2,235.5 1173.4,236.7 1175.6,237.8 1177.8,239.4" fill="none" stroke="#f58231" stroke-width="2" stroke-linejoin="round"/>
<polyline points="1020.2,396.9 1022.4,393.3 1024.6,390.3 1026.7,387.5 1028.9,382.7 1031.1,378.3 1033.3,373.9 1035.5,369.6 1037.7,364.0 1039.9,359.2 1042.1,355.0 1044.3,350.6 1046.4,346.4 1048.6,341.8 1050.8,337.7 1053.0,334.3 1055.2,331.6 1057.4,328.6 1059.6,325.7 1061.8,319.4 1064.0,312.9 1066.2,306.9 1068.3,301.0 1070.5,295.6 1072.7,290.7 1074.9,285.6 1077.1,280.4 1079.3,273.5 1081.5,267.1 1083.7,261.5 1085.9,255.7 1088.0,250.1 1090.2,245.1 1092.4,240.5 1094.6,236.6 1096.8,233.4 1099.0,230.6 1101.2,228.4 1103.4,226.9 1105.6,225.9 1107.8,225.0 1109.9,223.5 1112.1,221.2 1114.3,218.7 1116.5,216.5 1118.7,212.3 1120.9,206.9 1123.1,202.1 1125.3,197.8 1127.5,194.1 1129.6,191.0 1131.8,188.7 1134.0,186.7 1136.2,185.1 1138.4,184.2 1140.6,183.5 1142.8,183.2 1145.0,183.4 1147.2,184.3 1149.3,185.8 1151.5,187.9 1153.7,190.5 1155.9,192.8 1158.1,195.4 1160.3,198.0 1162.5,200.8 1164.7,203.5 1166.9,206.0 1169.1,209.2 1171.2,213.1 1173.4,216.9 1175.6,220.5 1177.8,224.9 1180.0,230.2" fill="none" stroke="#911eb4" stroke-width="2" stroke-linejoin="round"/>
<polyline points="792.5,440.6 794.7,437.5 796.9,434.3 799.1,428.9 801.2,424.1 803.4,419.1 805.6,413.9 807.8,409.0 810.0,404.3 812.2,399.5 814.4,394.5 816.6,387.6 818.8,380.4 820.9,373.1 823.1,365.3 825.3,357.7 827.5,350.7 829.7,343.6 831.9,336.2 834.1,329.1 836.3,322.4 838.5,315.7 840.7,309.6 842.8,304.3 845.0,299.5 847.2,295.3 849.4,291.6 851.6,287.7 853.8,284.6 856.0,282.2 858.2,280.6 860.4,279.7 862.5,278.5 864.7,278.1 866.9,278.4 869.1,279.4 871.3,281.4 873.5,284.1 875.7,286.9 877.9,290.5 880.1,294.7 882.2,296.4 884.4,298.7 886.6,301.6 888.8,304.2 891.0,306.1 893.2,308.7 895.4,311.8 897.6,314.5 899.8,315.2 902.0,315.4 904.1,315.0 906.3,314.8 908.5,314.4 910.7,314.4 912.9,314.7 915.1,315.5 917.3,316.1 919.5,316.4 921.7,315.1 923.8,314.0 926.0,313.5 928.2,313.2 930.4,313.4 932.6,313.3 934.8,313.6 937.0,311.2 939.2,308.9 941.4,306.4 943.6,304.4 945.7,302.2 947.9,300.0 950.1,298.1 952.3,296.5 954.5,292.3 956.7,288.6 958.9,285.3 961.1,282.2 963.3,279.4 965.4,276.2 967.6,272.8 969.8,268.4 972.0,264.6 974.2,261.4 976.4,258.9 978.6,256.5 980.8,254.6 983.0,252.4 985.1,250.7 987.3,248.7 989.5,246.7 991.7,245.0 993.9,244.0 996.1,242.7 998.3,241.3 1000.5,239.7 1002.7,238.5 1004.9,237.9 1007.0,237.9 1009.2,238.3 1011.4,239.1 1013.6,239.9 1015.8,241.1 1018.0,243.0 1020.2,244.5 1022.4,245.8 1024.6,246.8 1026.7,248.3 1028.9,249.5 1031.1,250.8 1033.3,250.6 1035.5,250.6 1037.7,251.1 1039.9,251.0 1042.1,250.8 1044.3,251.0 1046.4,250.9 1048.6,251.1 1050.8,251.9 1053.0,252.9 1055.2,254.1 1057.4,250.3 1059.6,246.9 1061.8,243.3 1064.0,240.1 1066.2,237.6 1068.3,235.4 1070.5,233.5 1072.7,232.2 1074.9,231.1 1077.1,230.3 1079.3,230.0 1081.5,230.2 1083.7,231.1 1085.9,231.7 1088.0,232.5 1090.2,232.2 1092.4,228.7 1094.6,225.6 1096.8,223.0 1099.0,220.8 1101.2,219.3 1103.4,218.3 1105.6,217.5 1107.8,217.2 1109.9,217.5 1112.1,217.8 1114.3,218.5 1116.5,219.8 1118.7,221.5 1120.9,222.4 1123.1,222.9 1125.3,223.7 1127.5,224.9 1129.6,226.5 1131.8,227.9 1134.0,229.2 1136.2,231.1 1138.4,233.6 1140.6,236.3 1142.8,239.4 1145.0,238.8 1147.2,238.8 1149.3,239.1 1151.5,239.0 1153.7,239.4 1155.9,239.0 1158.1,238.8 1160.3,239.0 1162.5,240.0 1164.7,240.7 1166.9,241.6 1169.1,242.1 1171.2,243.2 1173.4,244.9 1175.6,246.6 1177.8,249.2 1180.0,251.5" fill="none" stroke="#42d4f4" stroke-width="2" stroke-linejoin="round"/>
<polyline points="144.4,572.3 146.6,571.3 148.8,570.1 151.0,569.6 153.2,568.5 155.4,567.2 157.6,565.1 159.8,562.7 162.0,560.8 164.1,558.5 166.3,556.1 168.5,553.9 170.7,551.7 172.9,548.1 175.1,544.3 177.3,540.4 179.5,536.3 181.7,532.3 183.8,528.2 186.0,523.9 188.2,519.4 190.4,514.7 192.6,510.5 194.8,506.8 197.0,502.9 199.2,499.5 201.4,496.7 203.6,494.6 205.7,491.9 207.9,488.8 210.1,486.3 212.3,484.3 214.5,482.0 216.7,479.8 218.9,477.4 221.1,474.8 223.3,472.7 225.4,470.3 227.6,467.5 229.8,464.5 232.0,461.9 234.2,459.2 236.4,456.2 238.6,453.5 240.8,451.2 243.0,449.4 245.1,447.3 247.3,445.0 249.5,442.8 251.7,441.0 253.9,438.9 256.1,436.6 258.3,435.0 260.5,433.1 262.7,431.6 264.9,430.3 267.0,429.6 269.2,429.5 271.4,429.2 273.6,429.3 275.8,429.1 278.0,428.2 280.2,427.3 282.4,426.2 284.6,425.5 286.7,424.7 288.9,423.4 291.1,422.7 293.3,421.8 295.5,421.5 297.7,421.8 299.9,422.6 302.1,423.2 304.3,423.6 306.4,424.7 308.6,425.5 310.8,426.8 313.0,427.9 315.2,428.7 317.4,428.6 319.6,428.3 321.8,427.7 324.0,426.9 326.2,425.9 328.3,424.9 330.5,424.0 332.7,423.1 334.9,422.0 337.1,420.7 339.3,418.9 341.5,417.3 343.7,415.5 345.9,413.4 348.0,411.1 350.2,408.7 352.4,406.7 354.6,404.4 356.8,402.0 359.0,400.2 361.2,398.7 363.4,397.0 365.6,395.4 367.8,394.2 369.9,392.7 372.1,391.1 374.3,389.2 376.5,387.0 378.7,385.4 380.9,384.2 383.1,383.3 385.3,382.9 387.5,383.1 389.6,381.4 391.8,380.3 394.0,379.0 396.2,377.3 398.4,375.8 400.6,373.6 402.8,371.6 405.0,369.8 407.2,367.8 409.3,365.9 411.5,362.4 413.7,358.9 415.9,354.8 418.1,351.1 420.3,347.9 422.5,344.7 424.7,341.9 426.9,339.5 429.1,337.8 431.2,336.6 433.4,336.2 435.6,336.2 437.8,336.0 440.0,335.0 442.2,333.7 444.4,332.1 446.6,325.6 448.8,319.8 450.9,314.5 453.1,309.1 455.3,302.9 457.5,297.2 459.7,291.3 461.9,286.1 464.1,281.6 466.3,277.4 468.5,273.5 470.7,269.3 472.8,265.8 475.0,262.2 477.2,259.3 479.4,256.9 481.6,254.3 483.8,251.9 486.0,250.1 488.2,247.9 490.4,246.3 492.5,244.0 494.7,241.4 496.9,238.8 499.1,236.7 501.3,235.0 503.5,233.5 505.7,232.1 507.9,230.8 510.1,229.9 512.2,229.3 514.4,229.2 516.6,229.0 518.8,229.2 521.0,229.2 523.2,229.6 525.4,230.4 527.6,231.6 529.8,233.1 532.0,234.7 534.1,236.9 536.3,239.5 538.5,242.6 540.7,246.2 542.9,250.3 545.1,253.3 547.3,256.9 549.5,260.6 551.7,264.4 553.8,268.8 556.0,273.1 558.2,277.3 560.4,281.3 562.6,282.0 564.8,281.1 567.0,279.4 569.2,278.1 571.4,277.4 573.6,276.4 575.7,275.0 577.9,274.0 580.1,273.1 582.3,272.6 584.5,272.0 586.7,271.5 588.9,271.4 591.1,271.9 593.3,272.8 595.4,274.4 597.6,276.0 599.8,278.2 602.0,280.8 604.2,284.0 606.4,283.7 608.6,283.3 610.8,283.6 613.0,283.8 615.1,284.8 617.3,286.5" fill="none" stroke="#f032e6" stroke-width="2" stroke-linejoin="round"/>
<polyline points="337.1,273.3 339.3,270.1 341.5,267.5 343.7,265.7 345.9,264.6 348.0,264.2 350.2,264.6 352.4,265.9 354.6,267.9 356.8,270.4 359.0,271.2 361.2,272.6 363.4,274.2 365.6,276.4 367.8,278.8 369.9,282.0 372.1,284.8 374.3,286.6 376.5,289.1 378.7,291.8 380.9,292.3 383.1,293.2 385.3,294.6 387.5,296.7 389.6,298.4 391.8,299.2 394.0,300.7 396.2,302.8 398.4,305.3 400.6,308.3 402.8,311.8 405.0,315.6 407.2,319.8 409.3,322.2 411.5,325.0 413.7,328.3 415.9,331.1 418.1,334.1 420.3,337.5 422.5,341.3 424.7,344.8 426.9,347.1 429.1,348.5 431.2,347.8 433.4,343.2 435.6,339.2 437.8,335.7 440.0,331.9 442.2,326.7 444.4,322.1 446.6,318.0 448.8,314.3 450.9,310.3 453.1,306.8 455.3,303.2 457.5,299.6 459.7,296.6 461.9,291.4 464.1,286.2 466.3,281.6 468.5,277.8 470.7,274.5 472.8,271.8 475.0,269.5 477.2,267.0 479.4,265.1 481.6,263.0 483.8,260.7 486.0,258.2 488.2,256.2 490.4,254.5 492.5,253.3 494.7,252.7 496.9,251.2 499.1,250.5 501.3,250.0 503.5,250.1 505.7,249.7 507.9,249.1 510.1,248.8 512.2,248.7 514.4,249.3 516.6,250.3 518.8,251.0 521.0,251.7 523.2,252.6 525.4,253.7 527.6,255.5 529.8,256.6 532.0,258.3 534.1,259.8 536.3,261.9 538.5,264.6 540.7,267.9 542.9,271.5 545.1,275.4 547.3,279.7 549.5,284.7 551.7,282.5 553.8,280.0 556.0,277.2 558.2,275.0 560.4,272.6 562.6,270.8 564.8,268.7 567.0,266.8 569.2,263.7 571.4,261.0 573.6,258.0 575.7,255.7 577.9,253.1 580.1,250.6 582.3,248.4 584.5,246.6 586.7,245.0 588.9,241.4 591.1,238.0 593.3,234.9 595.4,232.1 597.6,229.3 599.8,227.1 602.0,225.2 604.2,222.0 606.4,218.5 608.6,215.1 610.8,211.3 613.0,207.2 615.1,202.2 617.3,197.2 619.5,189.8 621.7,182.1 623.9,175.1 626.1,168.7 628.3,162.9 630.5,157.8 632.7,152.9 634.9,147.7 637.0,142.7 639.2,138.3 641.4,133.9 643.6,129.6 645.8,125.0 648.0,121.0 650.2,117.5 652.4,114.5 654.6,112.1 656.7,110.3 658.9,108.6 661.1,107.5 663.3,106.8 665.5,106.2 667.7,106.1 669.9,106.5 672.1,107.0 674.3,107.1 676.4,107.7 678.6,108.3 680.8,109.5 683.0,109.0 685.2,109.0 687.4,109.4 689.6,109.6 691.8,110.3 694.0,111.3 696.2,112.7 698.3,113.9 700.5,115.2 702.7,116.6 704.9,118.1 707.1,119.2 709.3,118.2 711.5,117.3 713.7,116.1 715.9,115.3 718.0,115.1 720.2,113.7 722.4,112.7 724.6,112.3 726.8,112.4 729.0,113.1 731.2,113.5 733.4,114.2 735.6,114.8 737.8,115.1 739.9,115.5 742.1,116.3 744.3,117.8 746.5,119.8 748.7,122.5 750.9,125.2 753.1,128.4 755.3,131.6 757.5,134.2 759.6,137.3 761.8,137.9 764.0,139.0 766.2,138.9 768.4,138.2 770.6,137.9 772.8,137.0 775.0,136.6 777.2,136.7 779.3,137.2 781.5,138.0 783.7,139.3 785.9,141.2 788.1,138.8 790.3,136.2 792.5,133.8 794.7,131.7 796.9,128.9 799.1,125.9 801.2,123.3 803.4,121.1 805.6,119.0 807.8,115.9 810.0,113.4 812.2,110.7 814.4,108.1 816.6,106.0 818.8,104.5 820.9,103.0 823.1,102.0 825.3,101.5 827.5,101.6 829.7,102.3 831.9,102.9 834.1,102.7 836.3,103.2 838.5,104.1 840.7,105.3 842.8,107.1 845.0,109.5 847.2,112.1 849.4,115.3 851.6,119.2 853.8,123.6 856.0,128.6 858.2,133.0 860.4,137.9 862.5,137.6 864.7,137.9 866.9,138.4 869.1,138.9 871.3,139.1 873.5,139.9 875.7,140.5 877.9,141.7 880.1,143.1 882.2,142.8 884.4,143.1 886.6,142.5 888.8,142.5 891.0,143.0 893.2,144.1 895.4,145.6 897.6,147.6 899.8,150.2 902.0,151.0 904.1,152.2 906.3,153.4 908.5,155.2 910.7,157.6 912.9,160.6 915.1,164.2 917.3,168.4 919.5,172.4 921.7,176.5 923.8,181.3 926.0,186.5 928.2,192.4 930.4,199.0 932.6,204.1 934.8,202.9 937.0,202.2 939.2,202.0 941.4,201.7 943.6,202.0 945.7,202.6 947.9,203.5 950.1,204.9 952.3,206.0 954.5,207.7 956.7,209.4 958.9,211.5 961.1,214.1 963.3,217.4 965.4,221.4 967.6,226.0 969.8,231.3 972.0,237.0 974.2,240.7 976.4,244.4 978.6,245.7 980.8,246.6 983.0,247.4 985.1,247.7 987.3,247.9 989.5,248.5 991.7,249.5 993.9,250.7 996.1,252.5 998.3,254.9 1000.5,256.9 1002.7,259.3 1004.9,262.0 1007.0,264.1 1009.2,266.3 1011.4,269.0 1013.6,272.3 1015.8,276.3 1018.0,274.4 1020.2,272.6 1022.4,271.1 1024.6,270.1 1026.7,269.2 1028.9,268.5 1031.1,268.1 1033.3,268.4 1035.5,269.1 1037.7,269.7 1039.9,270.7 1042.1,272.2 1044.3,274.2 1046.4,276.2 1048.6,278.5 1050.8,281.3 1053.0,284.5 1055.2,287.3 1057.4,287.2 1059.6,287.6 1061.8,287.5 1064.0,287.3 1066.2,286.8 1068.3,286.3 1070.5,285.2 1072.7,283.7 1074.9,281.5 1077.1,278.7 1079.3,276.0 1081.5,273.6 1083.7,271.3 1085.9,269.1 1088.0,267.5 1090.2,266.4 1092.4,266.1 1094.6,266.3 1096.8,267.3 1099.0,268.0 1101.2,269.2 1103.4,270.4 1105.6,271.8 1107.8,272.8 1109.9,274.4 1112.1,275.3 1114.3,276.8 1116.5,276.4 1118.7,276.5 1120.9,275.8 1123.1,274.7 1125.3,273.7 1127.5,273.1 1129.6,272.4 1131.8,271.7 1134.0,271.5 1136.2,271.5 1138.4,271.9 1140.6,272.5 1142.8,273.5 1145.0,275.0 1147.2,276.6 1149.3,277.5 1151.5,278.1 1153.7,278.9 1155.9,279.7 1158.1,280.5 1160.3,281.9 1162.5,283.3 1164.7,284.5 1166.9,285.1 1169.1,284.7 1171.2,284.3 1173.4,284.5 1175.6,285.3 1177.8,286.7 1180.0,288.6" fill="none" stroke="#bfef45" stroke-width="2" stroke-linejoin="round"/>
<polyline points="1118.7,356.1 1120.9,353.6 1123.1,351.7 1125.3,350.7 1127.5,349.8 1129.6,349.7 1131.8,350.4 1134.0,350.9 1136.2,348.3 1138.4,345.4 1140.6,343.4 1142.8,341.1 1145.0,338.6 1147.2,335.2 1149.3,332.1 1151.5,327.9 1153.7,323.9 1155.9,320.4 1158.1,317.6 1160.3,314.1 1162.5,311.2 1164.7,309.1 1166.9,307.7 1169.1,306.9 1171.2,304.9 1173.4,303.6 1175.6,303.3 1177.8,303.8 1180.0,305.3" fill="none" stroke="#ff6b6b" stroke-width="2" stroke-linejoin="round"/>
<polyline points="74.4,327.6 76.6,324.8 78.8,322.8 80.9,321.6 83.1,321.1 85.3,319.1 87.5,317.2 89.7,315.9 91.9,315.4 94.1,315.3 96.3,316.1 98.5,317.6 100.7,319.5 102.8,321.3 105.0,323.8 107.2,326.4 109.4,328.9 111.6,330.5 113.8,331.9 116.0,333.4 118.2,333.3 120.4,332.9 122.5,332.4 124.7,332.2 126.9,331.9 129.1,331.4 131.3,331.8 133.5,332.0 135.7,332.5 137.9,333.5 140.1,334.4 142.2,336.2" fill="none" stroke="#469990" stroke-width="2" stroke-linejoin="round"/>
<polyline points="116.0,356.0 118.2,353.9 120.4,351.7 122.5,349.4 124.7,347.0 126.9,345.6 129.1,344.0 131.3,343.0 133.5,341.8 135.7,339.5 137.9,337.1 140.1,335.4 142.2,333.7 144.4,332.6 146.6,332.0 148.8,332.2 151.0,332.3 153.2,332.8 155.4,334.0 157.6,335.9 159.8,337.5 162.0,338.9 164.1,340.0 166.3,341.8 168.5,343.7 170.7,346.3 172.9,346.9 175.1,348.0 177.3,348.8 179.5,350.0 181.7,351.3 183.8,353.2 186.0,352.2 188.2,350.8 190.4,349.1 192.6,347.5 194.8,345.6 197.0,344.4 199.2,343.7 201.4,343.7 203.6,344.3 205.7,345.6 207.9,347.5 210.1,350.1 212.3,353.4 214.5,355.3 216.7,356.9 218.9,358.7 221.1,361.1 223.3,361.0 225.4,361.4 227.6,361.5 229.8,361.7 232.0,361.1 234.2,360.2 236.4,359.0 238.6,357.5 240.8,356.2 243.0,355.2 245.1,354.5 247.3,353.5 249.5,352.7 251.7,352.3 253.9,351.7 256.1,351.8 258.3,352.0 260.5,352.6 262.7,353.0 264.9,353.1 267.0,353.0 269.2,353.4 271.4,354.0 273.6,354.4 275.8,354.6 278.0,354.6 280.2,355.5 282.4,357.1 284.6,358.5 286.7,360.7 288.9,363.7 291.1,362.4 293.3,362.0 295.5,361.3 297.7,360.6 299.9,360.4 302.1,360.9 304.3,361.2 306.4,362.3 308.6,363.3 310.8,364.3 313.0,366.1" fill="none" stroke="#9a6324" stroke-width="2" stroke-linejoin="round"/>
<polyline points="1068.3,447.3 1070.5,446.3 1072.7,445.2 1074.9,444.1 1077.1,442.9 1079.3,441.7 1081.5,440.4 1083.7,439.1 1085.9,437.7 1088.0,436.3 1090.2,434.7 1092.4,433.2 1094.6,431.5 1096.8,429.8 1099.0,428.0 1101.2,426.1 1103.4,425.2 1105.6,424.3 1107.8,423.2 1109.9,422.0 1112.1,421.4 1114.3,420.6 1116.5,419.7 1118.7,418.6 1120.9,416.2 1123.1,414.3 1125.3,413.1 1127.5,412.4 1129.6,411.7 1131.8,410.8 1134.0,408.1 1136.2,405.7 1138.4,401.6 1140.6,397.9 1142.8,394.2 1145.0,391.0 1147.2,388.1 1149.3,385.0 1151.5,382.4 1153.7,380.0 1155.9,377.7 1158.1,375.9 1160.3,374.6 1162.5,374.1 1164.7,374.2 1166.9,374.5 1169.1,374.6 1171.2,375.0 1173.4,376.0 1175.6,377.8 1177.8,379.4 1180.0,381.4" fill="none" stroke="#ffd700" stroke-width="2" stroke-linejoin="round"/>
<polyline points="70.0,592.6 72.2,590.2 74.4,587.7 76.6,585.2 78.8,582.5 80.9,579.3 83.1,576.1 85.3,573.3 87.5,570.3 89.7,567.7 91.9,565.0 94.1,560.8 96.3,556.5 98.5,552.1 100.7,547.6 102.8,543.3 105.0,538.9 107.2,534.4 109.4,530.6 111.6,526.8 113.8,523.7 116.0,521.1 118.2,519.2 120.4,517.2 122.5,515.0 124.7,512.6 126.9,510.1 129.1,508.3 131.3,507.1 133.5,505.7 135.7,505.0 137.9,504.2 140.1,502.4 142.2,501.3 144.4,500.7 146.6,499.8 148.8,499.5 151.0,499.1 153.2,498.1 155.4,497.9 157.6,497.4 159.8,497.2 162.0,496.6 164.1,496.5 166.3,497.0 168.5,497.6 170.7,498.7 172.9,500.3 175.1,501.6 177.3,502.9 179.5,504.6 181.7,506.6 183.8,508.4 186.0,510.8 188.2,512.8 190.4,515.3 192.6,517.4 194.8,519.1 197.0,521.0 199.2,522.5 201.4,524.6 203.6,526.6 205.7,526.1 207.9,525.8 210.1,525.9 212.3,526.3 214.5,527.2 216.7,528.8 218.9,530.0 221.1,531.0 223.3,531.6 225.4,532.0 227.6,532.1 229.8,532.7 232.0,533.6 234.2,534.5 236.4,535.1 238.6,535.1 240.8,533.8 243.0,532.2 245.1,530.4 247.3,527.4 249.5,523.4 251.7,519.6 253.9,515.6 256.1,511.4 258.3,506.9 260.5,503.2 262.7,499.3 264.9,496.0 267.0,493.0 269.2,490.7 271.4,489.2 273.6,487.6 275.8,485.7 278.0,482.7 280.2,479.9 282.4,477.4 284.6,475.6 286.7,473.6 288.9,471.4 291.1,469.1 293.3,466.6 295.5,463.8 297.7,460.9 299.9,458.2 302.1,455.4 304.3,453.1 306.4,450.6 308.6,447.4 310.8,444.7 313.0,442.5 315.2,440.8 317.4,439.5 319.6,438.0 321.8,436.8 324.0,435.4 326.2,434.6 328.3,432.5 330.5,430.7 332.7,429.3 334.9,428.1 337.1,422.1 339.3,416.8 341.5,412.1 343.7,408.1 345.9,403.9 348.0,400.3 350.2,397.4 352.4,394.2 354.6,391.7 356.8,389.7 359.0,388.2 361.2,387.4 363.4,387.3 365.6,387.8 367.8,388.9 369.9,387.0 372.1,385.4 374.3,384.2 376.5,383.6 378.7,383.6 380.9,384.1 383.1,384.1 385.3,384.7 387.5,383.1 389.6,382.0 391.8,380.5 394.0,379.5 396.2,379.1 398.4,378.8 400.6,378.5 402.8,378.8 405.0,379.6 407.2,380.8 409.3,382.3 411.5,384.2 413.7,386.3 415.9,388.4 418.1,391.1 420.3,393.8 422.5,394.2 424.7,394.8 426.9,395.4 429.1,396.1 431.2,396.3 433.4,396.7 435.6,396.8 437.8,396.8 440.0,397.4 442.2,398.4 444.4,399.1 446.6,400.5 448.8,401.6 450.9,403.5 453.1,405.1 455.3,406.6 457.5,407.9 459.7,409.1 461.9,410.1 464.1,411.0 466.3,411.7 468.5,412.3 470.7,412.7 472.8,412.9 475.0,413.0 477.2,413.0 479.4,412.7 481.6,412.3 483.8,411.8 486.0,411.6 488.2,411.9 490.4,411.6 492.5,411.6 494.7,410.3 496.9,409.8 499.1,409.5 501.3,409.8 503.5,410.8 505.7,412.3 507.9,413.7 510.1,415.7" fill="none" stroke="#800000" stroke-width="2" stroke-linejoin="round"/>
<polyline points="661.1,420.3 663.3,417.6 665.5,415.6 667.7,413.8 669.9,411.9 672.1,410.5 674.3,409.6 676.4,408.9 678.6,408.1 680.8,407.1 683.0,405.9 685.2,404.5 687.4,403.6 689.6,402.8 691.8,402.5 694.0,401.9 696.2,401.7 698.3,400.6 700.5,399.2 702.7,398.1 704.9,397.3 707.1,396.3 709.3,395.7 711.5,395.1 713.7,395.1 715.9,395.5 718.0,396.3 720.2,396.9 722.4,397.9 724.6,399.6 726.8,401.8 729.0,403.9 731.2,405.6 733.4,406.6 735.6,406.6 737.8,406.2 739.9,405.2 742.1,404.7 744.3,403.6 746.5,403.1 748.7,402.3 750.9,401.7 753.1,401.5 755.3,401.1 757.5,400.6 759.6,400.5 761.8,401.0 764.0,401.2 766.2,401.8 768.4,402.2 770.6,402.3 772.8,403.0 775.0,403.7 777.2,404.1 779.3,405.0 781.5,405.6 783.7,406.0 785.9,406.8 788.1,407.4 790.3,407.7 792.5,407.8 794.7,408.1 796.9,408.1 799.1,408.6 801.2,409.6 803.4,410.8 805.6,412.4 807.8,414.5 810.0,417.0 812.2,418.2 814.4,419.0 816.6,419.2 818.8,419.6 820.9,418.8 823.1,418.3 825.3,418.1 827.5,415.2 829.7,412.2 831.9,409.4 834.1,406.3 836.3,402.8 838.5,399.8 840.7,396.4 842.8,392.8 845.0,387.8 847.2,383.2 849.4,379.0 851.6,375.4 853.8,371.6 856.0,368.4 858.2,365.6 860.4,363.4 862.5,361.8 864.7,360.9 866.9,359.7 869.1,358.3 871.3,356.2 873.5,354.5 875.7,353.3 877.9,350.7 880.1,348.2 882.2,346.3 884.4,344.4 886.6,342.8 888.8,341.0 891.0,339.2 893.2,336.6 895.4,333.2 897.6,330.2 899.8,326.8 902.0,324.2 904.1,321.3 906.3,318.1 908.5,315.2 910.7,312.7 912.9,310.0 915.1,307.9 917.3,306.2 919.5,304.8 921.7,303.8 923.8,302.6 926.0,301.7 928.2,299.9 930.4,298.0 932.6,296.8 934.8,295.5 937.0,293.3 939.2,291.3 941.4,289.5 943.6,287.6 945.7,286.2 947.9,284.5 950.1,282.6 952.3,280.3 954.5,278.4 956.7,276.4 958.9,274.0 961.1,271.7 963.3,269.4 965.4,266.8 967.6,263.6 969.8,260.9 972.0,258.8 974.2,257.2 976.4,255.4 978.6,253.2 980.8,251.6 983.0,250.2 985.1,249.5 987.3,248.6 989.5,248.2 991.7,248.5 993.9,248.6 996.1,248.7 998.3,249.3 1000.5,250.3 1002.7,250.8 1004.9,251.7 1007.0,253.1 1009.2,254.2 1011.4,254.9 1013.6,256.0 1015.8,257.7 1018.0,259.8 1020.2,262.1 1022.4,264.7 1024.6,265.1 1026.7,265.6 1028.9,266.4 1031.1,267.0 1033.3,267.8 1035.5,268.8 1037.7,269.9 1039.9,270.4 1042.1,270.7 1044.3,270.6 1046.4,270.8 1048.6,271.5 1050.8,272.9 1053.0,274.4 1055.2,275.5 1057.4,277.2 1059.6,279.3 1061.8,281.4 1064.0,283.7 1066.2,281.6 1068.3,280.1 1070.5,278.3 1072.7,277.2 1074.9,276.5 1077.1,276.2 1079.3,276.3 1081.5,276.8 1083.7,278.0 1085.9,278.9 1088.0,280.1 1090.2,282.0 1092.4,284.4 1094.6,287.2 1096.8,290.6 1099.0,294.5 1101.2,299.1 1103.4,301.0 1105.6,303.1 1107.8,305.9 1109.9,309.3 1112.1,312.4 1114.3,316.2 1116.5,320.6 1118.7,325.6 1120.9,330.3 1123.1,334.6 1125.3,338.1 1127.5,341.3 1129.6,344.8 1131.8,348.6 1134.0,352.7 1136.2,357.2 1138.4,361.0 1140.6,365.1 1142.8,368.7 1145.0,372.5 1147.2,375.2 1149.3,378.0 1151.5,380.7 1153.7,383.5 1155.9,386.8 1158.1,390.7 1160.3,394.2 1162.5,395.2 1164.7,395.9 1166.9,397.3 1169.1,399.4 1171.2,401.8 1173.4,403.2 1175.6,404.8 1177.8,406.5 1180.0,408.7" fill="none" stroke="#aaffc3" stroke-width="2" stroke-linejoin="round"/>
<polyline points="1044.3,484.0 1046.4,482.4 1048.6,481.8 1050.8,482.2 1053.0,483.5 1055.2,483.6 1057.4,483.6 1059.6,483.5 1061.8,483.4 1064.0,483.1 1066.2,482.7 1068.3,482.3 1070.5,481.7 1072.7,481.0 1074.9,480.3 1077.1,479.5 1079.3,478.5 1081.5,477.5 1083.7,476.4 1085.9,475.2 1088.0,473.8 1090.2,472.4 1092.4,470.8 1094.6,469.2 1096.8,467.4 1099.0,465.4 1101.2,463.4 1103.4,461.2 1105.6,458.8 1107.8,457.1 1109.9,455.5 1112.1,454.6 1114.3,453.6 1116.5,452.5 1118.7,449.6 1120.9,446.5 1123.1,443.6 1125.3,440.6 1127.5,437.2 1129.6,434.0 1131.8,430.6 1134.0,427.2 1136.2,424.4 1138.4,422.2 1140.6,419.7 1142.8,417.8 1145.0,415.8 1147.2,414.3 1149.3,413.6 1151.5,413.2 1153.7,412.8 1155.9,413.2 1158.1,413.6 1160.3,414.6 1162.5,415.3 1164.7,416.8 1166.9,417.2 1169.1,418.3 1171.2,418.8 1173.4,419.5 1175.6,420.7 1177.8,422.6 1180.0,424.5" fill="none" stroke="#808000" stroke-width="2" stroke-linejoin="round"/>
<polyline points="450.9,467.5 453.1,465.1 455.3,462.5 457.5,460.5 459.7,457.9 461.9,455.3 464.1,452.6 466.3,449.2 468.5,446.2 470.7,443.0 472.8,440.3 475.0,437.8 477.2,435.9 479.4,434.2 481.6,433.2 483.8,432.5 486.0,431.6 488.2,431.0 490.4,431.1 492.5,430.8 494.7,430.2 496.9,429.5 499.1,428.7 501.3,427.7 503.5,426.6 505.7,425.3 507.9,423.9 510.1,422.4 512.2,420.8 514.4,419.0 516.6,417.1 518.8,415.1 521.0,413.0 523.2,410.7 525.4,408.2 527.6,405.7 529.8,403.0 532.0,400.1 534.1,397.0 536.3,393.8 538.5,391.3 540.7,388.5 542.9,386.1 545.1,384.2 547.3,382.7 549.5,381.3 551.7,380.4 553.8,379.6 556.0,379.2 558.2,379.0 560.4,379.5 562.6,379.3 564.8,378.2 567.0,377.6 569.2,377.4 571.4,377.6 573.6,377.5 575.7,377.8 577.9,378.7 580.1,379.3 582.3,380.1 584.5,380.9 586.7,381.8 588.9,382.3 591.1,382.6 593.3,382.6 595.4,382.6 597.6,382.7 599.8,382.8 602.0,382.1 604.2,381.8 606.4,381.9 608.6,382.5 610.8,383.7 613.0,381.0 615.1,377.7 617.3,374.9 619.5,372.3 621.7,370.0 623.9,368.2 626.1,367.1 628.3,366.5 630.5,366.1 632.7,366.1 634.9,366.7 637.0,367.5 639.2,368.6 641.4,370.1 643.6,371.2 645.8,372.5 648.0,373.5 650.2,374.7 652.4,376.2 654.6,377.8 656.7,378.9 658.9,380.5 661.1,382.7 663.3,385.2 665.5,386.1 667.7,386.7 669.9,386.6 672.1,385.2 674.3,383.8 676.4,382.8 678.6,382.2 680.8,381.9 683.0,381.4 685.2,380.6 687.4,380.3 689.6,379.8 691.8,379.9 694.0,379.7 696.2,379.2 698.3,379.2 700.5,379.7 702.7,380.7 704.9,382.3 707.1,382.7 709.3,382.7 711.5,382.5 713.7,381.9 715.9,381.9 718.0,382.4 720.2,383.2 722.4,382.5 724.6,382.2 726.8,382.3 729.0,382.9 731.2,384.1 733.4,385.7 735.6,386.9 737.8,388.4 739.9,390.6 742.1,392.4 744.3,394.8 746.5,397.9 748.7,401.6 750.9,404.1 753.1,406.2 755.3,408.3 757.5,410.7 759.6,413.6 761.8,416.2 764.0,419.2 766.2,421.9 768.4,423.7 770.6,426.2 772.8,425.4 775.0,425.1 777.2,424.8 779.3,424.3 781.5,422.0 783.7,419.4 785.9,416.6 788.1,413.5 790.3,410.6 792.5,408.3 794.7,406.5 796.9,405.3 799.1,404.8 801.2,404.0 803.4,403.0 805.6,402.5 807.8,402.6 810.0,403.1 812.2,403.3 814.4,404.2 816.6,405.6 818.8,406.8 820.9,407.7 823.1,407.4 825.3,407.2 827.5,406.7 829.7,406.0 831.9,405.8 834.1,406.1 836.3,406.1 838.5,405.9 840.7,406.4 842.8,406.5 845.0,406.5 847.2,404.5 849.4,402.8 851.6,400.9 853.8,399.5 856.0,398.6 858.2,397.7 860.4,397.2 862.5,396.4 864.7,395.7 866.9,395.5 869.1,395.9 871.3,396.7 873.5,397.6 875.7,398.3 877.9,399.2 880.1,400.6 882.2,402.3 884.4,404.2 886.6,405.9 888.8,407.4 891.0,408.8 893.2,410.1 895.4,412.1 897.6,414.0 899.8,415.8 902.0,417.4 904.1,419.0 906.3,420.4 908.5,422.5 910.7,424.6 912.9,426.5 915.1,428.3 917.3,430.1 919.5,431.8 921.7,433.3 923.8,434.8 926.0,436.3 928.2,437.6 930.4,438.9 932.6,440.1 934.8,441.2 937.0,442.3 939.2,443.2 941.4,444.1 943.6,445.0 945.7,445.7 947.9,446.4 950.1,447.0 952.3,447.5 954.5,448.0 956.7,448.3 958.9,448.6 961.1,448.8 963.3,448.9 965.4,449.0 967.6,448.9 969.8,448.7 972.0,449.6 974.2,451.2 976.4,452.7 978.6,454.2 980.8,455.5 983.0,456.7 985.1,457.8 987.3,458.9 989.5,459.8 991.7,460.6 993.9,461.3 996.1,461.9 998.3,462.4 1000.5,462.8 1002.7,463.0 1004.9,463.2 1007.0,463.1 1009.2,463.0 1011.4,462.7 1013.6,462.2 1015.8,461.5 1018.0,460.7 1020.2,460.0 1022.4,460.0 1024.6,460.7 1026.7,461.1 1028.9,461.8 1031.1,462.5 1033.3,463.5 1035.5,464.5 1037.7,465.1 1039.9,466.2 1042.1,467.4 1044.3,466.4 1046.4,465.9 1048.6,464.5 1050.8,463.5 1053.0,461.7 1055.2,459.1 1057.4,456.9 1059.6,454.9 1061.8,452.8 1064.0,448.7 1066.2,444.8 1068.3,440.9 1070.5,437.4 1072.7,434.4 1074.9,431.6 1077.1,429.2 1079.3,427.2 1081.5,425.6 1083.7,423.7 1085.9,421.6 1088.0,419.8 1090.2,418.7 1092.4,418.2 1094.6,417.8 1096.8,416.7 1099.0,415.8 1101.2,414.1 1103.4,412.9 1105.6,412.1 1107.8,411.8 1109.9,412.1 1112.1,412.0 1114.3,412.6 1116.5,412.9 1118.7,413.7 1120.9,415.2 1123.1,415.6 1125.3,415.8 1127.5,415.6 1129.6,414.7 1131.8,413.5 1134.0,412.4 1136.2,410.9 1138.4,410.0 1140.6,409.6 1142.8,409.6 1145.0,410.2 1147.2,411.3 1149.3,412.8 1151.5,414.6 1153.7,416.2 1155.9,417.6 1158.1,416.9 1160.3,416.9 1162.5,416.7 1164.7,417.0 1166.9,417.9 1169.1,418.7 1171.2,420.2 1173.4,421.5 1175.6,423.0 1177.8,425.2 1180.0,427.2" fill="none" stroke="#ffd8b1" stroke-width="2" stroke-linejoin="round"/>
<polyline points="1120.9,412.5 1123.1,409.6 1125.3,407.5 1127.5,405.5 1129.6,404.0 1131.8,403.0 1134.0,402.5 1136.2,402.8 1138.4,403.8 1140.6,405.2 1142.8,406.6 1145.0,407.7 1147.2,406.9 1149.3,406.7 1151.5,407.1 1153.7,407.9 1155.9,409.3 1158.1,411.3 1160.3,412.9 1162.5,414.7 1164.7,417.2 1166.9,420.3 1169.1,421.4 1171.2,422.4 1173.4,423.3 1175.6,424.6 1177.8,426.6 1180.0,428.4" fill="none" stroke="#000075" stroke-width="2" stroke-linejoin="round"/>
<polyline points="107.2,613.1 109.4,611.9 111.6,610.2 113.8,608.4 116.0,606.4 118.2,604.9 120.4,603.3 122.5,601.6 124.7,599.7 126.9,597.7 129.1,594.1 131.3,589.1 133.5,583.0 135.7,576.8 137.9,570.5 140.1,563.1 142.2,555.6 144.4,548.6 146.6,541.6 148.8,534.5 151.0,527.3 153.2,520.0 155.4,512.6 157.6,505.1 159.8,497.5 162.0,489.9 164.1,482.1 166.3,474.3 168.5,466.4 170.7,458.3 172.9,450.3 175.1,442.1 177.3,433.8 179.5,425.4 181.7,417.0 183.8,409.0 186.0,402.0 188.2,395.6 190.4,389.9 192.6,385.0 194.8,380.0 197.0,375.5 199.2,371.7 201.4,368.6 203.6,365.3 205.7,361.8 207.9,358.9 210.1,356.7 212.3,353.3 214.5,349.7 216.7,345.9 218.9,342.6 221.1,339.0 223.3,335.3 225.4,332.1 227.6,329.2 229.8,326.1 232.0,323.0 234.2,319.7 236.4,316.2 238.6,313.3 240.8,308.2 243.0,303.6 245.1,299.3 247.3,294.8 249.5,290.1 251.7,285.7 253.9,281.0 256.1,276.6 258.3,272.4 260.5,268.9 262.7,265.9 264.9,263.5 267.0,261.4 269.2,259.3 271.4,257.8 273.6,256.1 275.8,254.2 278.0,252.9 280.2,252.2 282.4,252.0 284.6,248.0 286.7,244.3 288.9,241.1 291.1,238.1 293.3,235.2 295.5,232.4 297.7,230.2 299.9,228.6 302.1,227.2 304.3,226.4 306.4,226.0 308.6,225.9 310.8,226.4 313.0,227.5 315.2,229.2 317.4,231.5 319.6,232.2 321.8,233.4 324.0,233.8 326.2,234.0 328.3,234.6 330.5,234.9 332.7,235.5 334.9,236.7 337.1,238.4 339.3,240.5 341.5,243.3 343.7,245.6 345.9,248.1 348.0,251.2 350.2,252.6 352.4,254.6 354.6,255.7 356.8,257.4 359.0,259.7 361.2,262.1 363.4,265.0 365.6,268.5 367.8,272.5 369.9,276.1 372.1,280.2 374.3,284.8 376.5,289.4 378.7,293.4 380.9,296.7 383.1,299.6 385.3,302.3 387.5,304.2 389.6,305.7 391.8,306.9 394.0,308.1 396.2,307.8 398.4,307.9 400.6,307.6 402.8,307.7 405.0,308.1 407.2,309.2 409.3,310.9 411.5,313.0 413.7,315.6 415.9,318.4 418.1,320.5 420.3,322.3 422.5,324.2 424.7,326.2 426.9,328.1 429.1,329.7 431.2,329.9 433.4,330.0 435.6,329.8 437.8,329.7 440.0,329.2 442.2,329.0 444.4,329.1 446.6,328.7 448.8,327.9 450.9,324.8 453.1,322.2 455.3,320.0 457.5,315.6 459.7,311.5 461.9,307.9 464.1,304.2 466.3,300.0 468.5,296.4 470.7,292.3 472.8,285.8 475.0,280.0 477.2,274.7 479.4,269.2 481.6,264.3 483.8,260.0 486.0,256.1 488.2,252.8 490.4,249.9 492.5,246.7 494.7,243.4 496.9,240.0 499.1,235.9 501.3,232.2 503.5,228.4 505.7,225.0 507.9,221.4 510.1,218.4 512.2,215.9 514.4,214.0 516.6,212.5 518.8,210.8 521.0,209.3 523.2,207.9 525.4,207.0 527.6,205.9 529.8,205.1 532.0,204.7 534.1,204.4 536.3,203.7 538.5,203.7 540.7,202.3 542.9,200.4 545.1,199.0 547.3,197.9 549.5,196.7 551.7,196.2 553.8,196.1 556.0,196.6 558.2,197.1 560.4,197.3 562.6,197.8 564.8,198.4 567.0,198.8 569.2,199.3 571.4,200.3 573.6,201.6 575.7,203.2 577.9,205.3 580.1,207.8 582.3,210.0 584.5,212.8 586.7,214.8 588.9,217.5 591.1,219.3 593.3,221.5 595.4,224.1 597.6,226.8 599.8,229.4 602.0,232.6 604.2,236.2 606.4,240.4 608.6,244.4 610.8,248.6 613.0,251.0 615.1,253.5 617.3,256.0 619.5,258.8 621.7,261.4 623.9,264.4 626.1,266.9 628.3,270.0 630.5,273.1 632.7,276.4 634.9,279.6 637.0,283.0 639.2,286.5 641.4,290.3 643.6,294.8 645.8,299.5 648.0,303.8 650.2,308.7 652.4,313.1 654.6,318.3 656.7,324.1 658.9,330.5 661.1,337.6 663.3,344.4 665.5,350.8 667.7,356.9 669.9,363.1 672.1,369.0 674.3,374.5 676.4,379.6 678.6,384.4 680.8,388.4 683.0,393.1 685.2,397.9 687.4,401.5 689.6,404.8 691.8,408.5 694.0,412.3 696.2,415.0 698.3,417.3 700.5,418.6 702.7,418.6 704.9,418.2 707.1,417.6 709.3,417.2 711.5,417.4 713.7,417.3 715.9,417.9 718.0,418.8 720.2,419.4 722.4,419.5 724.6,419.8 726.8,420.6 729.0,421.7 731.2,423.5 733.4,425.2 735.6,427.4 737.8,430.2 739.9,433.1 742.1,436.5 744.3,440.5 746.5,444.9 748.7,449.9 750.9,454.5 753.1,458.8 755.3,461.3 757.5,463.5 759.6,465.8 761.8,467.8 764.0,467.3 766.2,467.3 768.4,467.0 770.6,466.5 772.8,466.7 775.0,466.5 777.2,465.4 779.3,464.0 781.5,462.9 783.7,461.9 785.9,460.5 788.1,459.8 790.3,459.6 792.5,459.9 794.7,461.0 796.9,462.7 799.1,465.1 801.2,468.1 803.4,471.7 805.6,475.1 807.8,478.1 810.0,479.6 812.2,481.6 814.4,484.2 816.6,485.0 818.8,486.5 820.9,487.7 823.1,488.7 825.3,490.4 827.5,492.3 829.7,494.0 831.9,495.4 834.1,496.6 836.3,496.7 838.5,496.8 840.7,496.8 842.8,496.6 845.0,496.3 847.2,495.9 849.4,495.4 851.6,494.7 853.8,494.0 856.0,493.1 858.2,492.1 860.4,491.1 862.5,490.0 864.7,488.8 866.9,487.5 869.1,486.1 871.3,484.6 873.5,483.1 875.7,481.5 877.9,479.8 880.1,478.0 882.2,476.1 884.4,474.2 886.6,472.2 888.8,470.1 891.0,468.0 893.2,465.7 895.4,463.4 897.6,461.0 899.8,458.6 902.0,456.0 904.1,453.3 906.3,450.6 908.5,447.8 910.7,444.9 912.9,441.8 915.1,438.7 917.3,435.4 919.5,432.1 921.7,428.6 923.8,424.9 926.0,421.7 928.2,419.2 930.4,414.5 932.6,409.6 934.8,405.5 937.0,401.9 939.2,398.8 941.4,395.8 943.6,393.4 945.7,391.7 947.9,390.5 950.1,389.8 952.3,389.3 954.5,389.4 956.7,388.4 958.9,387.1 961.1,386.3 963.3,385.7 965.4,385.7 967.6,384.8 969.8,384.3 972.0,384.4 974.2,384.1 976.4,380.5 978.6,376.5 980.8,372.4 983.0,368.5 985.1,365.1 987.3,362.1 989.5,359.2 991.7,356.9 993.9,354.5 996.1,352.6 998.3,351.0 1000.5,350.0 1002.7,349.5 1004.9,348.8 1007.0,347.8 1009.2,347.2 1011.4,346.9 1013.6,342.1 1015.8,337.8 1018.0,333.4 1020.2,329.5 1022.4,326.4 1024.6,323.9 1026.7,322.0 1028.9,320.7 1031.1,320.2 1033.3,320.0 1035.5,320.6 1037.7,321.8 1039.9,323.4 1042.1,325.3 1044.3,327.7 1046.4,330.8 1048.6,334.0 1050.8,335.4 1053.0,336.9 1055.2,338.7 1057.4,340.2 1059.6,341.4 1061.8,343.1 1064.0,345.1 1066.2,347.5 1068.3,350.2 1070.5,353.4 1072.7,356.9 1074.9,360.9 1077.1,365.4 1079.3,370.3 1081.5,371.6 1083.7,372.4 1085.9,373.5 1088.0,374.4 1090.2,374.6 1092.4,375.0 1094.6,375.5 1096.8,376.4 1099.0,377.5 1101.2,378.7 1103.4,380.5 1105.6,382.8 1107.8,384.9 1109.9,386.6 1112.1,386.9 1114.3,387.4 1116.5,388.3 1118.7,389.7 1120.9,390.8 1123.1,391.5 1125.3,392.6 1127.5,392.8 1129.6,393.2 1131.8,392.2 1134.0,391.4 1136.2,390.3 1138.4,389.7 1140.6,389.6 1142.8,390.0 1145.0,390.9 1147.2,391.4 1149.3,392.6 1151.5,394.4 1153.7,395.9 1155.9,397.2 1158.1,399.3 1160.3,401.8 1162.5,404.1 1164.7,406.2 1166.9,408.5 1169.1,411.4 1171.2,415.2 1173.4,418.8 1175.6,422.2 1177.8,425.3" fill="none" stroke="#a9a9a9" stroke-width="2" stroke-linejoin="round"/>
<polyline points="350.2,480.8 352.4,479.4 354.6,477.8 356.8,476.1 359.0,474.3 361.2,472.2 363.4,468.5 365.6,463.0 367.8,457.3 369.9,451.5 372.1,446.4 374.3,441.3 376.5,436.0 378.7,430.6 380.9,425.0 383.1,419.3 385.3,410.7 387.5,402.9 389.6,395.5 391.8,388.4 394.0,381.1 396.2,374.3 398.4,367.4 400.6,360.9 402.8,355.1 405.0,350.1 407.2,345.6 409.3,341.5 411.5,337.1 413.7,333.4 415.9,328.4 418.1,321.7 420.3,315.7 422.5,310.3 424.7,305.4 426.9,300.3 429.1,295.8 431.2,291.9 433.4,288.7 435.6,285.3 437.8,281.7 440.0,278.4 442.2,274.3 444.4,270.3 446.6,267.0 448.8,263.6 450.9,260.9 453.1,258.4 455.3,255.7 457.5,253.6 459.7,251.2 461.9,249.1 464.1,247.4 466.3,245.4 468.5,243.5 470.7,242.2 472.8,240.2 475.0,238.5 477.2,237.0 479.4,229.9 481.6,222.9 483.8,216.3 486.0,210.3 488.2,204.0 490.4,198.4 492.5,193.5 494.7,189.1 496.9,185.3 499.1,181.9 501.3,179.1 503.5,177.0 505.7,175.4 507.9,174.0 510.1,173.3 512.2,172.9 514.4,172.1 516.6,171.8 518.8,172.0 521.0,172.9 523.2,174.3 525.4,176.0 527.6,178.4 529.8,181.4 532.0,184.2 534.1,187.4 536.3,191.2 538.5,193.1 540.7,195.1 542.9,197.6 545.1,200.0 547.3,202.3 549.5,204.9 551.7,207.1 553.8,209.6 556.0,212.0 558.2,214.6 560.4,217.6 562.6,212.4 564.8,207.7 567.0,203.5 569.2,199.8 571.4,196.8 573.6,193.8 575.7,191.2 577.9,187.7 580.1,184.4 582.3,181.6 584.5,178.5 586.7,175.9 588.9,173.3 591.1,171.0 593.3,169.4 595.4,167.5 597.6,166.2 599.8,165.1 602.0,164.5 604.2,164.6 606.4,165.4 608.6,166.7 610.8,168.6 613.0,171.2 615.1,174.3 617.3,178.0 619.5,182.3 621.7,186.4 623.9,190.5 626.1,194.1 628.3,197.3 630.5,200.5 632.7,203.3 634.9,206.3 637.0,208.9 639.2,211.2 641.4,213.5 643.6,214.9 645.8,215.9 648.0,216.5 650.2,217.4 652.4,218.5 654.6,218.8 656.7,218.3 658.9,217.6 661.1,216.3 663.3,215.0 665.5,214.4 667.7,214.0 669.9,213.5 672.1,213.4 674.3,213.7 676.4,213.8 678.6,213.8 680.8,214.0 683.0,214.9 685.2,212.1 687.4,209.9 689.6,208.2 691.8,206.7 694.0,205.6 696.2,204.5 698.3,203.2 700.5,202.2 702.7,201.3 704.9,200.7 707.1,199.9 709.3,199.6 711.5,199.0 713.7,198.5 715.9,198.0 718.0,198.0 720.2,198.5 722.4,198.8 724.6,197.4 726.8,196.1 729.0,194.7 731.2,192.9 733.4,191.5 735.6,189.8 737.8,187.8 739.9,186.0 742.1,184.0 744.3,181.9 746.5,179.4 748.7,177.2 750.9,175.7 753.1,174.5 755.3,174.1 757.5,174.1 759.6,174.4 761.8,175.4 764.0,176.1 766.2,176.7 768.4,177.8 770.6,177.4 772.8,177.7 775.0,178.3 777.2,179.1 779.3,179.7 781.5,180.3 783.7,180.5 785.9,181.1 788.1,181.8 790.3,183.0 792.5,184.5 794.7,186.6 796.9,189.3 799.1,190.3 801.2,190.4 803.4,190.3 805.6,190.7 807.8,191.8 810.0,192.8 812.2,193.5 814.4,194.8 816.6,195.8 818.8,197.4 820.9,199.6 823.1,201.9 825.3,204.6 827.5,207.9 829.7,210.7 831.9,213.8 834.1,217.6 836.3,221.0 838.5,225.0 840.7,229.3 842.8,233.9 845.0,239.0 847.2,244.8 849.4,251.0 851.6,258.0 853.8,265.8 856.0,274.2 858.2,283.5 860.4,287.8 862.5,292.7 864.7,298.2 866.9,304.3 869.1,308.6 871.3,313.5 873.5,318.1 875.7,323.3 877.9,329.3 880.1,334.8 882.2,339.8 884.4,345.4 886.6,350.4 888.8,355.0 891.0,360.1 893.2,365.7 895.4,371.3 897.6,377.4 899.8,383.3 902.0,388.8 904.1,393.2 906.3,397.3 908.5,400.8 910.7,404.5 912.9,407.7 915.1,411.4 917.3,415.0 919.5,418.5 921.7,421.6 923.8,424.1 926.0,425.3 928.2,426.4 930.4,427.1 932.6,428.5 934.8,430.4 937.0,432.9 939.2,435.6 941.4,436.4 943.6,436.8 945.7,436.9 947.9,437.7 950.1,438.4 952.3,438.3 954.5,438.7 956.7,437.4 958.9,436.3 961.1,435.8 963.3,435.6 965.4,435.9 967.6,435.8 969.8,436.2 972.0,436.4 974.2,436.3 976.4,435.9 978.6,436.2 980.8,434.0 983.0,432.3 985.1,431.1 987.3,430.5 989.5,430.2 991.7,430.2 993.9,428.5 996.1,427.0 998.3,426.1 1000.5,425.7 1002.7,425.2 1004.9,424.5 1007.0,424.4 1009.2,425.2 1011.4,426.6 1013.6,428.2 1015.8,430.2" fill="none" stroke="#ff1493" stroke-width="2" stroke-linejoin="round"/>
<polyline points="534.1,446.9 536.3,444.1 538.5,442.2 540.7,440.4 542.9,439.1 545.1,438.4 547.3,438.0 549.5,437.7 551.7,437.1 553.8,436.8 556.0,436.6 558.2,436.4 560.4,436.8 562.6,436.8 564.8,436.5 567.0,436.4 569.2,436.8 571.4,437.3 573.6,437.7 575.7,437.7 577.9,438.4 580.1,439.0 582.3,439.9 584.5,440.9 586.7,441.6 588.9,441.0 591.1,440.9 593.3,441.4 595.4,441.7 597.6,441.6 599.8,441.8 602.0,442.2 604.2,442.3 606.4,442.6 608.6,441.9 610.8,441.4 613.0,441.2 615.1,440.2 617.3,439.5 619.5,438.1 621.7,437.1 623.9,435.8 626.1,434.2 628.3,433.1 630.5,431.6 632.7,430.0 634.9,428.9 637.0,427.5 639.2,426.6 641.4,425.3 643.6,424.5 645.8,424.0 648.0,423.8 650.2,424.2 652.4,425.2 654.6,426.5 656.7,428.4 658.9,430.5" fill="none" stroke="#e6beff" stroke-width="2" stroke-linejoin="round"/>
<line x1="70" y1="50" x2="70" y2="645" stroke="#555555"/>
<line x1="70" y1="645" x2="1180" y2="645" stroke="#555555"/>
<rect x="1200" y="57" width="16" height="3" fill="#e6194b"/>
<text x="1222" y="62" fill="#cccccc" font-size="12">Nico Rosberg</text>
<rect x="1200" y="79" width="16" height="3" fill="#3cb44b"/>
<text x="1222" y="84" fill="#cccccc" font-size="12">Max Verstappen</text>
<rect x="1200" y="101" width="16" height="3" fill="#4363d8"/>
<text x="1222" y="106" fill="#cccccc" font-size="12">George Russell</text>
<rect x="1200" y="123" width="16" height="3" fill="#f58231"/>
<text x="1222" y="128" fill="#cccccc" font-size="12">Lando Norris</text>
<rect x="1200" y="145" width="16" height="3" fill="#911eb4"/>
<text x="1222" y="150" fill="#cccccc" font-size="12">Oscar Piastri</text>
<rect x="1200" y="167" width="16" height="3" fill="#42d4f4"/>
<text x="1222" y="172" fill="#cccccc" font-size="12">Charles Leclerc</text>
<rect x="1200" y="189" width="16" height="3" fill="#f032e6"/>
<text x="1222" y="194" fill="#cccccc" font-size="12">Mark Webber</text>
<rect x="1200" y="211" width="16" height="3" fill="#bfef45"/>
<text x="1222" y="216" fill="#cccccc" font-size="12">Lewis Hamilton</text>
<rect x="1200" y="233" width="16" height="3" fill="#ff6b6b"/>
<text x="1222" y="238" fill="#cccccc" font-size="12">Andrea Kimi Antonelli</text>
<rect x="1200" y="255" width="16" height="3" fill="#469990"/>
<text x="1222" y="260" fill="#cccccc" font-size="12">Mika Häkkinen</text>
<rect x="1200" y="277" width="16" height="3" fill="#9a6324"/>
<text x="1222" y="282" fill="#cccccc" font-size="12">Juan Pablo Montoya</text>
<rect x="1200" y="299" width="16" height="3" fill="#ffd700"/>
<text x="1222" y="304" fill="#cccccc" font-size="12">Oliver Bearman</text>
<rect x="1200" y="321" width="16" height="3" fill="#800000"/>
<text x="1222" y="326" fill="#cccccc" font-size="12">Nick Heidfeld</text>
<rect x="1200" y="343" width="16" height="3" fill="#aaffc3"/>
<text x="1222" y="348" fill="#cccccc" font-size="12">Carlos Sainz</text>
<rect x="1200" y="365" width="16" height="3" fill="#808000"/>
<text x="1222" y="370" fill="#cccccc" font-size="12">Liam Lawson</text>
<rect x="1200" y="387" width="16" height="3" fill="#ffd8b1"/>
<text x="1222" y="392" fill="#cccccc" font-size="12">Nico Hülkenberg</text>
<rect x="1200" y="409" width="16" height="3" fill="#000075"/>
<text x="1222" y="414" fill="#cccccc" font-size="12">Isack Hadjar</text>
<rect x="1200" y="431" width="16" height="3" fill="#a9a9a9"/>
<text x="1222" y="436" fill="#cccccc" font-size="12">Fernando Alonso</text>
<rect x="1200" y="453" width="16" height="3" fill="#ff1493"/>
<text x="1222" y="458" fill="#cccccc" font-size="12">Sebastian Vettel</text>
<rect x="1200" y="475" width="16" height="3" fill="#e6beff"/>
<text x="1222" y="480" fill="#cccccc" font-size="12">Jean-Éric Vergne</text>
</svg>